#N canvas 1009 177 582 609 10;
#X declare -path ../utils;
#X obj 7 12 declare -path ../utils;
#X obj 12 301 addslash;
#X obj 12 361 trapenv;
#X obj 12 121 timegate;
#X obj 12 391 tabplay2~;
#X obj 12 151 mstats;
#X obj 12 211 list_value;
#X obj 12 181 list_iot;
#X obj 12 241 euclidist;
#X obj 12 418 balance~;
#X text 13 91 EssentiaRT~ management;
#X text 12 101 ----------------------;
#X text 12 270 Open Sound Control;
#X text 11 281 ------------------;
#X text 12 330 Misc.;
#X text 11 341 -----;
#X text 73 121 stops outputing data for the specified time.;
#X text 62 151 outputs simple statistics about the last n events.;
#X text 72 181 keeps track of the elapsed times between consecutive
inputs.;
#X text 82 211 stores incoming values into a circular list.;
#X text 82 241 euclidean distance between two lists of equal length.
;
#X text 72 301 prepends a forward slash to an incoming symbol.;
#X text 66 361 trapezoidal envelope generator.;
#X text 76 391 alternative to pd native's [tabplay~];
#X text 136 429 balance control for stereo signals.;
#X text 8 35 In order to facilitate interaction with [essentiaRT~]
\, we provide a number of abstractions \, listed below. Right-click
on them to access the help file for each object.;
#X obj 12 469 folderplay~;
#X text 320 518 plays randomly audio files from a folder;
