#N canvas 542 22 577 839 10;
#X declare -path ../bin -path ../utils;
#X obj 24 754 cnv 15 160 50 empty empty empty 20 12 0 14 -261234 -66577
0;
#X obj -3 135 cnv 15 110 18 empty empty empty 20 12 0 14 -204786 -66577
0;
#X obj 32 759 output~;
#X obj 51 310 route list;
#X obj 70 478 random;
#X obj 103 437 length;
#X obj 51 420 t l b l;
#X floatatom 58 353 5 0 0 0 - - -;
#X floatatom 111 457 5 0 0 0 - - -;
#X obj 114 683 *~;
#X obj 51 506 list split;
#X obj 79 528 sum;
#X floatatom 87 548 7 0 0 0 - - -;
#X obj 338 414 spigot 0;
#X obj 383 395 tgl 15 0 empty empty empty 17 7 0 10 -262144 -1 -1 0
1;
#X msg 57 375 reset;
#X text 144 396 stores elapsed time between detections;
#X text -3 12 =================;
#X obj 101 661 delread~ deline;
#X obj 338 434 print LIST-IOT;
#X text 100 762 (1) DSP on;
#X text 105 779 & volume up;
#X obj 51 332 route i.strength;
#X obj 11 288 essentiaRT~ 50;
#X obj 1 178 tabplay2~ sample;
#X obj 1 136 tgl 15 0 empty empty empty 17 7 0 10 -262144 -1 -1 1 1
;
#X msg 21 157 loop \$1;
#X obj 21 136 tgl 15 1 empty empty empty 17 7 0 10 -262144 -1 -1 1
1;
#X text 40 135 (2) play!;
#X floatatom 123 495 5 0 0 0 - - -;
#X obj 79 625 trapenv 2;
#X obj 28 376 bng 20 250 50 0 empty empty empty 17 7 0 10 -262144 -1
-1;
#X text 158 325 Among the many features reported \, We take the onset
strenght and use that to trigger onsets.;
#X obj 51 397 list_iot 24000;
#X text 144 620 (fades the edges to avoid clipping when jumping between
different positions in the buffer.);
#X obj -3 111 cnv 15 360 18 empty empty empty 20 12 0 14 -204800 -66577
0;
#X text 22 112 Audio: Bonobo - The North Borders (2013) - Cirrus;
#X text 200 654 Last \, we read from the buffer to retrieve previous
audio slices!;
#X text 402 394 (show);
#N canvas 1408 73 383 143 init 0;
#X obj -31 39 loadbang;
#X obj -31 98 soundfiler;
#X obj -31 120 table sample 4410;
#X obj -32 17 declare -path ../bin -path ../utils;
#X msg -31 60 read -resize ./soundfiles/Bonobo-TheNorthBorders-Cirrus.wav
sample;
#X connect 0 0 4 0;
#X connect 4 0 1 0;
#X restore 8 683 pd init;
#X obj 19 202 delwrite~ deline 24000;
#X text -1 25 This example shows how to use [essentiaRT~] to report
strong onset positions (beats) and store them as a list of time intervals
for later retrieval. In this example \, we set the threshold of essentiaRT~
to 50 to detect only very strong onsets (beats) \, and use the same
onsets to trigger past events from the incoming audio.;
#X text 162 202 First \, store incoming audio in a buffer for later
use.;
#X text 18 227 The threshold level in [essentiaRT~] is the key element
to detect different types of onsets. Thresholds above 30 usually report
only strong positions with percussive attacks \, such as kick and snare.
;
#X text 146 458 onsets in buffer;
#X text 135 541 add together all the time intervals to compute elapsed
time to chosen onset.;
#X text 160 495 on every trigger \, play a random onset in buffer (0
= oldest);
#X obj 1 704 balance~;
#X obj 79 587 - 5.8;
#X text 130 573 we subtract a few extra miliseconds equivalent to the
hop size of the analysis (252 points) to compensate for the onset detector
estimation time.;
#X text -1 4 1 Onset detector;
#X connect 3 0 22 0;
#X connect 4 0 10 1;
#X connect 4 0 29 0;
#X connect 5 0 8 0;
#X connect 5 0 4 1;
#X connect 6 0 10 0;
#X connect 6 1 4 0;
#X connect 6 2 5 0;
#X connect 9 0 47 1;
#X connect 10 1 11 0;
#X connect 11 0 12 0;
#X connect 11 0 48 0;
#X connect 13 0 19 0;
#X connect 14 0 13 1;
#X connect 15 0 33 0;
#X connect 18 0 9 0;
#X connect 22 0 7 0;
#X connect 22 0 33 0;
#X connect 22 0 31 0;
#X connect 23 1 3 0;
#X connect 24 0 23 0;
#X connect 24 0 40 0;
#X connect 24 0 47 0;
#X connect 25 0 24 0;
#X connect 26 0 24 0;
#X connect 27 0 26 0;
#X connect 30 0 18 0;
#X connect 30 1 9 1;
#X connect 33 0 13 0;
#X connect 33 0 6 0;
#X connect 47 0 2 0;
#X connect 47 1 2 1;
#X connect 48 0 30 0;
