#N canvas 130 22 922 875 10;
#X declare -path ../bin -path ../utils;
#X msg -892 174 reset;
#N canvas 1035 41 659 220 inputs 0;
#X obj -302 -86 s~ input1;
#X msg -292 -184 loop \$1;
#X obj -302 -256 inlet;
#X obj -292 -206 inlet;
#X obj -302 -133 tabplay2~ sample1;
#X obj -142 -133 tabplay2~ sample2;
#X obj 18 -133 tabplay2~ sample3;
#X obj 178 -133 tabplay2~ sample4;
#X obj 178 -86 s~ input4;
#X obj 18 -86 s~ input3;
#X obj -142 -86 s~ input2;
#X obj -294 -110 delwrite~ deline1 30000;
#X obj -134 -110 delwrite~ deline2 30000;
#X obj 26 -110 delwrite~ deline3 30000;
#X obj 186 -110 delwrite~ deline4 30000;
#X connect 1 0 4 0;
#X connect 1 0 5 0;
#X connect 1 0 6 0;
#X connect 1 0 7 0;
#X connect 2 0 4 0;
#X connect 2 0 5 0;
#X connect 2 0 6 0;
#X connect 2 0 7 0;
#X connect 3 0 1 0;
#X connect 4 0 0 0;
#X connect 4 0 11 0;
#X connect 5 0 10 0;
#X connect 5 0 12 0;
#X connect 6 0 9 0;
#X connect 6 0 13 0;
#X connect 7 0 8 0;
#X connect 7 0 14 0;
#X restore -776 -300 pd inputs;
#N canvas 430 274 281 364 direct_outs 0;
#X obj 9 29 r~ input1;
#X obj 25 241 line~;
#X obj 10 264 *~;
#X obj 24 73 vsl 15 100 0 1 0 0 empty empty empty 0 -9 0 10 -262144
-1 -1 2475 1;
#X obj 25 193 *;
#X msg 25 218 \$1 20;
#X obj 92 241 line~;
#X obj 77 264 *~;
#X obj 54 73 vsl 15 100 0 1 0 0 empty empty empty 0 -9 0 10 -262144
-1 -1 2475 1;
#X obj 92 193 *;
#X msg 92 218 \$1 20;
#X obj 152 241 line~;
#X obj 137 264 *~;
#X obj 86 73 vsl 15 100 0 1 0 0 empty empty empty 0 -9 0 10 -262144
-1 -1 2475 1;
#X obj 152 193 *;
#X msg 152 218 \$1 20;
#X obj 212 241 line~;
#X obj 197 264 *~;
#X obj 116 73 vsl 15 100 0 1 0 0 empty empty empty 0 -9 0 10 -262144
-1 -1 2475 1;
#X obj 212 193 *;
#X msg 212 218 \$1 20;
#X obj 196 29 r~ input4;
#X obj 136 29 r~ input3;
#X obj 76 29 r~ input2;
#X obj 101 310 +~;
#X obj 101 331 outlet~;
#X text 27 71 1;
#X text 59 71 2;
#X text 89 71 3;
#X text 118 71 4;
#X obj 217 78 loadbang;
#X msg 217 101 0.25;
#X connect 0 0 2 0;
#X connect 1 0 2 1;
#X connect 2 0 24 0;
#X connect 3 0 4 1;
#X connect 3 0 4 0;
#X connect 4 0 5 0;
#X connect 5 0 1 0;
#X connect 6 0 7 1;
#X connect 7 0 24 0;
#X connect 8 0 9 1;
#X connect 8 0 9 0;
#X connect 9 0 10 0;
#X connect 10 0 6 0;
#X connect 11 0 12 1;
#X connect 12 0 24 0;
#X connect 13 0 14 1;
#X connect 13 0 14 0;
#X connect 14 0 15 0;
#X connect 15 0 11 0;
#X connect 16 0 17 1;
#X connect 17 0 24 0;
#X connect 18 0 19 1;
#X connect 18 0 19 0;
#X connect 19 0 20 0;
#X connect 20 0 16 0;
#X connect 21 0 17 0;
#X connect 22 0 12 0;
#X connect 23 0 7 0;
#X connect 24 0 25 0;
#X connect 30 0 31 0;
#X connect 31 0 18 0;
#X connect 31 0 13 0;
#X connect 31 0 8 0;
#X connect 31 0 3 0;
#X coords 0 -1 1 1 120 130 1 20 50;
#X restore -907 -325 pd direct_outs;
#X obj -850 9 route list;
#X floatatom -841 51 5 0 0 0 - - -;
#X text -806 51 strength;
#X obj -718 8 route list;
#X floatatom -708 50 5 0 0 0 - - -;
#X text -673 50 strength;
#X obj -748 261 list_value;
#X obj -718 95 t b b;
#X obj -850 91 t b b;
#X obj -748 346 s input_id;
#X obj -890 -35 r~ input1;
#X obj -761 -36 r~ input2;
#X obj -850 231 t l l;
#X obj -587 8 route list;
#X floatatom -577 50 5 0 0 0 - - -;
#X text -542 50 strength;
#X obj -587 93 t b b;
#X obj -633 -36 r~ input3;
#X obj -456 9 route list;
#X floatatom -446 51 5 0 0 0 - - -;
#X obj -456 100 t b b;
#X obj -496 -35 r~ input4;
#X obj -732 304 spigot;
#X obj -699 283 tgl 15 0 empty empty empty 17 7 0 10 -262144 -1 -1
0 1;
#X obj -732 326 print SOURCES;
#X obj -880 -114 cnv 15 160 50 empty empty empty 20 12 0 14 -261234
-66577 0;
#X obj -875 -107 output~;
#X text -807 -104 (1) DSP on;
#X text -802 -87 & Volume Up;
#X text -907 -503 4_multiple_inputs_random;
#X text -909 -495 =========================;
#X obj -850 290 s iots;
#X obj -678 270 cnv 15 370 45 empty empty empty 20 12 0 14 -261682
-66577 0;
#X text -676 270 we add an identifier for each input source and we
store all the onset reports on the same [list_iot] object. In this
way we can later switch between the different sources.;
#X obj -263 -124 cnv 15 200 165 empty empty empty 20 12 0 14 -261682
-66577 0;
#X obj -344 -157 timer;
#X obj -313 78 +;
#X obj -316 -10 list split;
#X obj -288 57 sum;
#X obj -296 -156 list;
#X obj -292 -184 t b l;
#X obj -420 -322 delay;
#X obj -352 -204 t b b;
#X obj -279 13 list split 1;
#X obj -313 120 trapenv 2;
#X obj -296 -134 t l b l;
#X obj -226 -117 length;
#X obj -259 -96 random;
#X obj -219 -53 r input_id;
#X obj -188 -5 packel;
#X obj -145 -58 + 1;
#X obj -240 -31 list;
#X floatatom -178 18 5 0 0 0 - - -;
#X obj -238 137 demux~ 1 2 3 4;
#X obj -184 240 *~;
#X obj -169 214 delread~ deline3;
#X obj -157 262 *~;
#X obj -142 240 delread~ deline4;
#X obj -238 190 *~;
#X obj -211 212 *~;
#X obj -259 -75 t f b f;
#X obj -352 -301 prepend 1;
#X obj -420 -300 prepend 0;
#X obj -352 -246 route;
#X obj -223 167 delread~ deline1;
#X obj -196 190 delread~ deline2;
#X text -142 18 source;
#X obj -292 -205 r iots;
#X obj -315 -246 sel 0;
#X obj -329 -281 cnv 15 320 30 empty empty empty 20 12 0 14 -204786
-66577 0;
#X obj -325 -272 tgl 15 0 empty empty empty 17 7 0 10 -262144 -1 -1
1 1;
#X text -307 -280 trigger slices according to length of events (0)
;
#X text -211 -96 random voice allocation;
#X text -221 115 demultiplex to the four delreads;
#X text -907 -481 This example takes four different streams of audio
and stores their respective onsets into a single list. At the same
time \, we also store "source identifiers" so they can be classified
together \, identified \, and retrieved indepentently.;
#X obj -850 30 route i.strength;
#X obj -718 29 route i.strength;
#X obj -587 29 route i.strength;
#X obj -456 30 route i.strength;
#X obj -907 -163 balance~;
#X obj -908 -408 cnv 15 360 18 empty empty empty 20 12 0 14 -204800
-66577 0;
#N canvas 106 146 441 390 init 0;
#X obj -161 29 loadbang;
#X obj -161 197 soundfiler;
#X obj -162 7 declare -path ../bin -path ../utils;
#X obj -161 219 table sample1 4410;
#X obj -161 239 table sample2 4410;
#X obj -161 259 table sample3 4410;
#X obj -161 279 table sample4 4410;
#X msg -161 51 read -resize ./soundfiles/Bonobo-TheNorthBorders-Cirrus.wav
sample1 \, read -resize ./soundfiles/Plastikman-Closer-Headcase.wav
sample2 \, read -resize ./soundfiles/OrenAmbarchi-AudienceOfOne-Salt.wav
sample3 \, read -resize ./soundfiles/Matmos-QuasiObjects-Latex.wav
sample4 \; sample1 normalize \; sample2 normalize \; sample3 normalize
\; sample4 normalize;
#X connect 0 0 7 0;
#X connect 7 0 1 0;
#X restore -900 -185 pd init;
#X obj -782 -326 cnv 15 110 18 empty empty empty 20 12 0 14 -204786
-66577 0;
#X obj -776 -325 tgl 15 0 empty empty empty 17 7 0 10 -262144 -1 -1
1 1;
#X obj -725 -325 tgl 15 1 empty empty empty 17 7 0 10 -262144 -1 -1
1 1;
#X text -706 -326 loop;
#X text -758 -326 play;
#X obj -908 -388 cnv 15 360 18 empty empty empty 20 12 0 14 -204800
-66577 0;
#X obj -908 -368 cnv 15 360 18 empty empty empty 20 12 0 14 -204800
-66577 0;
#X obj -908 -348 cnv 15 360 18 empty empty empty 20 12 0 14 -204800
-66577 0;
#X text -902 -408 Audio 1: Bonobo - The North Borders (2013) - Cirrus
;
#X text -902 -388 Audio 2: Kid Koala - 12-bit Blues (2012) - 2-bit
Blues;
#X obj -890 -13 essentiaRT~ 50;
#X text -902 -348 Audio 4: Matmos - Quasi Objects (1997) - Latex;
#X text -902 -368 Audio 3: Oren Ambarchi - Audience of One (2012) -
Salt;
#X obj -368 -223 bng 15 250 50 0 empty empty empty 17 7 0 10 -262144
-1 -1;
#X obj -841 72 bng 15 250 50 0 empty empty empty 17 7 0 10 -262144
-1 -1;
#X obj -708 72 bng 15 250 50 0 empty empty empty 17 7 0 10 -262144
-1 -1;
#X obj -577 72 bng 15 250 50 0 empty empty empty 17 7 0 10 -262144
-1 -1;
#X obj -446 72 bng 15 250 50 0 empty empty empty 17 7 0 10 -262144
-1 -1;
#X obj -455 242 s onsets;
#X obj -352 -391 r onsets;
#X floatatom -313 -366 5 1 4 0 - - -;
#X obj -346 -321 bng 15 250 50 0 empty empty empty 17 7 0 10 -262144
-1 -1;
#X obj -455 197 swap;
#X obj -455 221 pack;
#X msg -823 113 1;
#X msg -691 117 2;
#X msg -560 115 3;
#X msg -429 122 4;
#X obj -238 99 - 1;
#X obj -238 295 throw~ slices;
#X obj -795 -186 catch~ slices;
#X obj -496 -12 essentiaRT~ 20;
#X obj -633 -14 essentiaRT~ 11.5;
#X obj -761 -14 essentiaRT~ 2.5;
#X obj -352 -343 route 4;
#X obj -279 35 s NewEvent;
#X obj -420 -343 r NewEvent;
#X text -276 -367 align slices to other input;
#X obj -850 207 list_iot 30000;
#X text -307 -266 or to onsets of one of the sources (1);
#X obj -313 99 - 5.8;
#X obj -315 -226 s NewEvent;
#X connect 0 0 123 0;
#X connect 2 0 82 0;
#X connect 3 0 78 0;
#X connect 4 0 99 0;
#X connect 6 0 79 0;
#X connect 7 0 100 0;
#X connect 9 0 12 0;
#X connect 9 0 25 0;
#X connect 10 0 107 0;
#X connect 10 0 123 0;
#X connect 10 1 110 0;
#X connect 11 0 107 0;
#X connect 11 0 123 0;
#X connect 11 1 109 0;
#X connect 13 0 95 0;
#X connect 14 0 118 0;
#X connect 15 0 34 0;
#X connect 15 1 9 0;
#X connect 16 0 80 0;
#X connect 17 0 101 0;
#X connect 19 0 107 0;
#X connect 19 0 123 0;
#X connect 19 1 111 0;
#X connect 20 0 117 0;
#X connect 21 0 81 0;
#X connect 22 0 102 0;
#X connect 23 0 107 0;
#X connect 23 0 123 0;
#X connect 23 1 112 0;
#X connect 24 0 116 0;
#X connect 25 0 27 0;
#X connect 26 0 25 1;
#X connect 38 0 39 0;
#X connect 39 0 125 0;
#X connect 40 1 41 0;
#X connect 40 1 46 0;
#X connect 41 0 39 1;
#X connect 42 0 48 0;
#X connect 43 0 38 0;
#X connect 43 1 42 1;
#X connect 44 0 65 0;
#X connect 45 0 38 1;
#X connect 45 1 42 0;
#X connect 46 0 120 0;
#X connect 47 0 58 0;
#X connect 47 0 60 0;
#X connect 47 0 67 0;
#X connect 47 0 68 0;
#X connect 47 1 56 0;
#X connect 48 0 40 0;
#X connect 48 1 50 0;
#X connect 48 2 49 0;
#X connect 49 0 50 1;
#X connect 50 0 63 0;
#X connect 51 0 54 1;
#X connect 52 0 55 0;
#X connect 52 0 113 0;
#X connect 53 0 52 1;
#X connect 54 0 52 0;
#X connect 56 0 61 0;
#X connect 56 1 62 0;
#X connect 56 2 57 0;
#X connect 56 3 59 0;
#X connect 57 0 114 0;
#X connect 58 0 57 1;
#X connect 59 0 114 0;
#X connect 60 0 59 1;
#X connect 61 0 114 0;
#X connect 62 0 114 0;
#X connect 63 0 40 1;
#X connect 63 1 54 0;
#X connect 63 2 53 0;
#X connect 64 0 66 0;
#X connect 65 0 66 0;
#X connect 66 0 45 0;
#X connect 66 0 98 0;
#X connect 67 0 61 1;
#X connect 68 0 62 1;
#X connect 70 0 43 0;
#X connect 71 0 126 0;
#X connect 73 0 66 1;
#X connect 73 0 71 0;
#X connect 78 0 4 0;
#X connect 78 0 11 0;
#X connect 79 0 7 0;
#X connect 79 0 10 0;
#X connect 80 0 17 0;
#X connect 80 0 19 0;
#X connect 81 0 22 0;
#X connect 81 0 23 0;
#X connect 82 0 29 0;
#X connect 82 1 29 1;
#X connect 86 0 1 0;
#X connect 87 0 1 1;
#X connect 95 1 3 0;
#X connect 104 0 119 0;
#X connect 105 0 119 1;
#X connect 107 0 108 0;
#X connect 107 1 108 1;
#X connect 108 0 103 0;
#X connect 109 0 9 1;
#X connect 109 0 107 1;
#X connect 110 0 9 1;
#X connect 110 0 107 1;
#X connect 111 0 9 1;
#X connect 111 0 107 1;
#X connect 112 0 9 1;
#X connect 112 0 107 1;
#X connect 113 0 56 0;
#X connect 115 0 82 1;
#X connect 116 1 21 0;
#X connect 117 1 16 0;
#X connect 118 1 6 0;
#X connect 119 0 106 0;
#X connect 119 0 64 0;
#X connect 121 0 44 0;
#X connect 123 0 15 0;
#X connect 125 0 47 0;
