#N canvas 103 70 890 873 10;
#X declare -lib mrpeach;
#X declare -path ../bin -path ../utils;
#X obj -123 98 cnv 15 110 18 empty empty empty 20 12 0 14 -204786 -66577
0;
#X msg -105 416 reset;
#X obj -119 99 tgl 15 0 empty empty empty 17 7 0 10 -262144 -1 -1 1
1;
#X msg -99 120 loop \$1;
#X obj -99 99 tgl 15 1 empty empty empty 17 7 0 10 -262144 -1 -1 1
1;
#X text -80 98 (2) play!;
#X obj -79 215 bng 20 250 50 0 empty empty empty 17 7 0 10 -262144
-1 -1;
#X obj -63 436 list_iot 24000;
#X obj -123 74 cnv 15 360 18 empty empty empty 20 12 0 14 -204800 -66577
0;
#X text -98 75 Audio: Bonobo - The North Borders (2013) - Cirrus;
#N canvas 802 57 383 143 init 0;
#X obj -31 39 loadbang;
#X obj -31 98 soundfiler;
#X obj -31 120 table sample 4410;
#X msg -31 60 read -resize ./soundfiles/Bonobo-TheNorthBorders-Cirrus.wav
sample;
#X connect 0 0 3 0;
#X connect 3 0 1 0;
#X restore -27 15 pd init;
#X obj -101 165 delwrite~ deline 24000;
#X obj 26 305 f;
#X obj 50 304 + 1;
#X obj -35 480 list_value 24000;
#X obj 78 303 % 20000;
#X obj -119 141 tabplay2~ sample;
#X obj 26 327 s \$0-count;
#X obj -81 283 s \$0-curdesc;
#X obj 58 457 r \$0-count;
#X obj -28 219 route list;
#X obj -28 240 t a a;
#X obj -1 262 route i.strength;
#X obj -120 15 import mrpeach;
#X obj -121 36 declare -path ../bin -path ../utils;
#X obj -35 500 s \$0-syncIdx;
#X obj -62 521 s \$0-syncTimes;
#X text 37 283 identifies onsets with a UID;
#X obj -1 348 s \$0-onset;
#X obj -1 283 t b b;
#X obj -63 413 r \$0-onset;
#X obj -62 458 t l l;
#X obj 314 658 del;
#X obj -119 188 essentiaRT~ 20;
#X obj -125 386 cnv 15 360 18 empty empty store_data_:_idx_and_iot
0 12 0 14 -204800 -66577 0;
#X obj -125 606 cnv 15 380 18 empty empty simulation_of_external_app_comunicating_via_OSC
0 12 0 14 -204800 -66577 0;
#X text -122 -3 ========================================================
;
#X text -130 543 keep track of index vs iot times in the buffer: -
synctimes is list of ioi - syncidx is the list of UID with synchronized
with synctimes;
#X text 42 164 cache: last 24 seconds of audio;
#X obj 352 785 cnv 15 160 50 empty empty empty 20 12 0 14 -261234 -66577
0;
#X obj 362 790 output~;
#X obj 392 763 *~;
#X text 430 793 (1) DSP on;
#X text 435 808 & volume up;
#X obj 339 132 addslash;
#X obj 339 66 list split 1;
#X obj 453 68 r \$0-count;
#X obj 339 111 list append;
#X obj 373 88 list prepend 0;
#X obj 339 43 r \$0-curdesc;
#X obj 339 153 route list;
#X obj 338 173 prepend send;
#X obj 346 194 PRINT;
#X obj 341 337 OSCroute /play;
#X obj 341 401 list-find;
#X obj 392 381 l;
#X obj 346 487 list split;
#X obj 407 360 r \$0-syncIdx;
#X obj 356 443 r \$0-syncTimes;
#X obj 341 464 l;
#X obj 375 508 sum;
#X floatatom 416 525 7 0 0 0 - - -;
#X obj 380 575 timer;
#X obj 380 554 r \$0-onset;
#X obj 365 596 +;
#X obj 314 637 packel;
#X obj 365 617 - 5.8;
#X text 407 614 correction to get full attack of onset;
#X obj 375 531 t f b;
#X obj 365 659 t b f;
#X obj 336 714 vline~ 1;
#X obj 338 264 sendOSC;
#X obj 345 220 loadbang;
#X msg 345 242 connect localhost 9009;
#X obj 341 315 dumpOSC 9010;
#X obj 341 359 t i b;
#X msg 314 678 0 10;
#X msg 356 687 1 20;
#X obj 407 742 *~;
#X obj 365 637 trapenv 2;
#X text 417 382 replay part controlled from external app;
#X obj 341 421 t b f f;
#X obj 328 -11 cnv 15 360 18 empty empty Send_indexed_descriptors_over_OSC
0 12 0 14 -204800 -66577 0;
#X obj 332 288 cnv 15 360 18 empty empty play_requested_sample 0 12
0 14 -204800 -66577 0;
#X floatatom 421 592 5 0 0 0 - - -;
#X text 422 573 add elapsed time since last onset to the sum of iot
;
#X obj 437 332 PRINT;
#N canvas 900 22 825 844 fakeApp 1;
#X obj 224 169 metro 200;
#X obj 224 146 loadbang;
#X text 220 78 the only limitation is to call UID that appends in the
range of bufferlength (here 24s);
#X obj 221 282 vradio 15 1 0 8 empty empty empty 0 -8 0 10 -262144
-1 -1 7;
#X obj 236 282 vradio 15 1 0 8 empty empty empty 0 -8 0 10 -262144
-1 -1 6;
#X obj 251 282 vradio 15 1 0 8 empty empty empty 0 -8 0 10 -262144
-1 -1 5;
#X obj 266 282 vradio 15 1 0 8 empty empty empty 0 -8 0 10 -262144
-1 -1 4;
#X obj 281 282 vradio 15 1 0 8 empty empty empty 0 -8 0 10 -262144
-1 -1 3;
#X obj 296 282 vradio 15 1 0 8 empty empty empty 0 -8 0 10 -262144
-1 -1 2;
#X obj 311 282 vradio 15 1 0 8 empty empty empty 0 -8 0 10 -262144
-1 -1 1;
#X obj 326 282 vradio 15 1 0 8 empty empty empty 0 -8 0 10 -262144
-1 -1 0;
#X obj -31 193 sort;
#X obj -65 98 list split 1;
#X obj -31 143 list split 50;
#X obj -111 224 list split 50;
#X obj -24 530 packel;
#X obj 222 212 f;
#X obj 248 212 + 1;
#X obj 222 190 t b;
#X floatatom 221 420 5 0 0 0 - - -;
#X obj -24 509 l;
#X obj -51 599 packel;
#X obj -51 578 l;
#X obj 222 261 hradio 15 1 0 8 empty empty empty 0 -8 0 10 -261234
-4160 -1 0;
#X obj -21 722 PRINT;
#X obj 231 236 route 0 1 2 3 4 5 6 7;
#X obj -51 620 list prepend /play;
#X obj -65 55 dumpOSC 9009;
#X obj -51 808 sendOSC;
#X msg -44 787 connect localhost 9010;
#X obj -51 745 prepend send;
#X obj -44 766 loadbang;
#X obj -31 120 list append;
#X obj -111 201 list append;
#X obj -51 661 list-len;
#X obj -51 681 == 2;
#X obj -51 723 l;
#X obj -51 640 t l l;
#X obj -51 701 sel 1;
#X msg 35 176 -1;
#X msg 67 176 1;
#X text 316 147 generate our own metronome;
#X text -1 682 integrity check;
#X text 31 746 send a play order to pd with the UID;
#X floatatom 280 148 5 0 0 0 - - -;
#X obj 221 441 route 0;
#X obj -65 77 OSCroute /centroid.mean;
#X obj -10 414 packel 0 4 8 12 16 20 24 28;
#X obj 1 442 pack 0 0 0 0 0 0 0 0;
#X text 94 172 sort order;
#X obj 49 289 * 0.375;
#X obj 89 331 * 0.625;
#X obj 109 352 * 0.75;
#X obj 129 370 * 0.875;
#X obj 149 393 - 1;
#X obj -24 550 t b f;
#X obj -18 487 t b f;
#X obj -156 2 cnv 15 700 18 empty empty this_processing_could_be_implemented_in_few_lines_in_any_OOP_language
0 12 0 14 -4034 -66577 0;
#X text 219 108 in this example we decide to regenerate a sequence
the sorted centroid.means;
#X text 219 34 simmulation of external app : do what you wnat here
or adopt this structure in any complementary application supporting
OSC.;
#X obj 274 211 % 8;
#X obj 69 310 * 0.5;
#X obj 29 268 * 0.25;
#X obj 9 241 * 0.125;
#X floatatom 163 231 5 0 0 0 - - -;
#X obj 149 210 length;
#X obj 349 278 cnv 15 200 18 empty empty empty 20 12 0 14 -204786 -66577
0;
#X text 349 278 sequence it \, 0 represent silences;
#X obj 348 300 cnv 15 110 18 empty empty empty 20 12 0 14 -204786 -66577
0;
#X text 353 300 PLAY HERE!;
#X obj 352 187 bng 15 250 50 0 empty empty empty 17 7 0 10 -262144
-1 -1;
#X obj 438 211 s;
#X connect 0 0 18 0;
#X connect 0 0 70 0;
#X connect 1 0 0 0;
#X connect 3 0 19 0;
#X connect 4 0 19 0;
#X connect 5 0 19 0;
#X connect 6 0 19 0;
#X connect 7 0 19 0;
#X connect 8 0 19 0;
#X connect 9 0 19 0;
#X connect 10 0 19 0;
#X connect 11 1 47 0;
#X connect 11 1 65 0;
#X connect 12 0 33 0;
#X connect 12 1 32 0;
#X connect 13 0 11 0;
#X connect 13 0 32 1;
#X connect 13 2 11 0;
#X connect 13 2 32 1;
#X connect 14 0 22 1;
#X connect 14 0 33 1;
#X connect 14 2 22 1;
#X connect 14 2 33 1;
#X connect 15 0 55 0;
#X connect 16 0 17 0;
#X connect 16 0 23 0;
#X connect 16 0 25 0;
#X connect 17 0 60 0;
#X connect 18 0 16 0;
#X connect 19 0 45 0;
#X connect 20 0 15 0;
#X connect 21 0 26 0;
#X connect 22 0 21 0;
#X connect 25 0 3 0;
#X connect 25 1 4 0;
#X connect 25 2 5 0;
#X connect 25 3 6 0;
#X connect 25 4 7 0;
#X connect 25 5 8 0;
#X connect 25 6 9 0;
#X connect 25 7 10 0;
#X connect 26 0 37 0;
#X connect 27 0 46 0;
#X connect 29 0 28 0;
#X connect 30 0 28 0;
#X connect 31 0 29 0;
#X connect 32 0 13 0;
#X connect 33 0 14 0;
#X connect 34 0 35 0;
#X connect 35 0 38 0;
#X connect 36 0 30 0;
#X connect 36 0 24 0;
#X connect 37 0 34 0;
#X connect 37 1 36 1;
#X connect 38 0 36 0;
#X connect 39 0 11 1;
#X connect 40 0 11 1;
#X connect 44 0 0 1;
#X connect 45 1 56 0;
#X connect 46 0 12 0;
#X connect 47 0 48 0;
#X connect 47 1 48 1;
#X connect 47 2 48 2;
#X connect 47 3 48 3;
#X connect 47 4 48 4;
#X connect 47 5 48 5;
#X connect 47 6 48 6;
#X connect 47 7 48 7;
#X connect 48 0 20 1;
#X connect 50 0 47 3;
#X connect 51 0 47 5;
#X connect 52 0 47 6;
#X connect 53 0 47 7;
#X connect 54 0 47 8;
#X connect 55 0 22 0;
#X connect 55 1 21 1;
#X connect 56 0 20 0;
#X connect 56 1 15 1;
#X connect 60 0 16 1;
#X connect 61 0 47 4;
#X connect 62 0 47 2;
#X connect 63 0 47 1;
#X connect 65 0 50 0;
#X connect 65 0 51 0;
#X connect 65 0 52 0;
#X connect 65 0 53 0;
#X connect 65 0 54 0;
#X connect 65 0 61 0;
#X connect 65 0 62 0;
#X connect 65 0 63 0;
#X connect 65 0 64 0;
#X restore -125 652 pd fakeApp;
#X text -120 -16 6 Asynchronoous OSC example showing use of external
app;
#X text 329 11 send indexed features: /name index value;
#X text -124 629 open this to test the program (and make sound!);
#X obj 393 680 delread~ deline;
#X connect 1 0 7 0;
#X connect 2 0 16 0;
#X connect 3 0 16 0;
#X connect 4 0 3 0;
#X connect 7 0 31 0;
#X connect 12 0 13 0;
#X connect 12 0 17 0;
#X connect 13 0 15 0;
#X connect 14 0 25 0;
#X connect 15 0 12 1;
#X connect 16 0 11 0;
#X connect 16 0 33 0;
#X connect 19 0 14 1;
#X connect 20 0 21 0;
#X connect 21 0 18 0;
#X connect 21 1 22 0;
#X connect 22 0 29 0;
#X connect 29 0 28 0;
#X connect 29 1 12 0;
#X connect 30 0 7 0;
#X connect 31 0 26 0;
#X connect 31 1 14 0;
#X connect 32 0 76 0;
#X connect 33 1 6 0;
#X connect 33 1 20 0;
#X connect 33 2 18 0;
#X connect 41 0 40 1;
#X connect 41 0 40 0;
#X connect 44 0 50 0;
#X connect 45 0 47 0;
#X connect 45 1 48 0;
#X connect 46 0 48 1;
#X connect 47 0 44 0;
#X connect 48 0 47 1;
#X connect 49 0 45 0;
#X connect 50 0 51 0;
#X connect 51 0 52 0;
#X connect 51 0 71 0;
#X connect 53 0 75 0;
#X connect 54 0 81 0;
#X connect 55 0 54 1;
#X connect 56 1 60 0;
#X connect 57 0 55 1;
#X connect 58 0 59 1;
#X connect 59 0 56 0;
#X connect 59 0 65 0;
#X connect 60 0 61 0;
#X connect 60 0 68 0;
#X connect 62 0 64 1;
#X connect 62 0 84 0;
#X connect 63 0 62 0;
#X connect 64 0 66 0;
#X connect 65 0 32 0;
#X connect 66 0 79 0;
#X connect 68 0 64 0;
#X connect 68 1 62 1;
#X connect 69 0 77 0;
#X connect 69 1 91 0;
#X connect 70 0 78 0;
#X connect 72 0 73 0;
#X connect 73 0 71 0;
#X connect 74 0 53 0;
#X connect 74 0 86 0;
#X connect 75 0 54 0;
#X connect 75 1 55 0;
#X connect 76 0 70 0;
#X connect 77 0 70 0;
#X connect 78 0 41 1;
#X connect 79 0 69 0;
#X connect 79 1 78 1;
#X connect 81 0 59 0;
#X connect 81 1 56 1;
#X connect 81 2 65 1;
#X connect 91 0 41 0;
