#N canvas 334 22 679 514 10;
#X declare -path ../bin -path ../utils;
#X text -385 -463 =========================;
#N canvas 141 361 1652 579 have-a-look-here 0;
#X obj -233 -188 r~ input1;
#X obj -320 -94 route list;
#X obj -232 318 list_value;
#X obj -214 2 t b b;
#X obj -232 337 s input_id;
#X obj -286 208 t l l;
#X obj -286 337 s iots;
#X obj -139 -94 route list;
#X msg -221 -144 delayMode 0;
#X obj -193 -72 timer;
#X obj -193 -94 t b;
#X obj -166 -94 t b;
#X obj -101 319 list_value;
#X obj 72 292 list_value;
#X obj -101 339 s noisiness;
#X obj 72 312 s loudness;
#X obj -214 -20 pipe;
#X obj -221 -165 loadbang;
#X obj 77 -93 route list;
#X obj 183 -2 t b b;
#X obj 258 -93 route list;
#X msg 176 -143 delayMode 0;
#X obj 204 -72 timer;
#X obj 204 -93 t b;
#X obj 231 -93 t b;
#X obj 183 -24 pipe;
#X obj 176 -164 loadbang;
#X obj 470 -94 route list;
#X obj 576 -3 t b b;
#X obj 651 -94 route list;
#X msg 569 -144 delayMode 0;
#X obj 597 -73 timer;
#X obj 597 -94 t b;
#X obj 624 -94 t b;
#X obj 576 -25 pipe;
#X obj 569 -165 loadbang;
#X obj 867 -93 route list;
#X obj 973 -2 t b b;
#X obj 1048 -93 route list;
#X msg 966 -143 delayMode 0;
#X obj 994 -72 timer;
#X obj 994 -93 t b;
#X obj 1021 -93 t b;
#X obj 973 -24 pipe;
#X obj 966 -164 loadbang;
#X obj 164 -187 r~ input2;
#X obj 557 -188 r~ input3;
#X obj 954 -187 r~ input4;
#X obj 1148 -51 s to_loudness;
#X obj 129 271 r to_loudness;
#X obj 751 -50 s to_loudness;
#X obj 358 -51 s to_loudness;
#X obj -39 -50 s to_loudness;
#X obj -320 -52 timegate 500;
#X obj 77 -49 timegate 500;
#X obj 470 -50 timegate 500;
#X obj 867 -49 timegate 500;
#X obj 651 -73 route noisiness.mean loudness.mean;
#X obj 1048 -72 route noisiness.mean loudness.mean;
#X obj 258 -72 route noisiness.mean loudness.mean;
#X obj -139 -73 route noisiness.mean loudness.mean;
#X obj -139 -51 s to_noisiness;
#X obj 258 -52 s to_noisiness;
#X obj 651 -50 s to_noisiness;
#X obj 1048 -52 s to_noisiness;
#X obj -44 296 r to_noisiness;
#X obj -320 -73 route i.strength;
#X obj 77 -72 route i.strength;
#X obj 470 -73 route i.strength;
#X obj 867 -72 route i.strength;
#X obj 499 310 s onsets;
#X obj 499 265 swap;
#X obj 499 289 pack;
#X obj -233 -123 essentiaRT~ 50;
#X obj 164 -122 essentiaRT~ 2.5;
#X obj 557 -123 essentiaRT~ 11.5;
#X obj 954 -122 essentiaRT~ 20;
#X obj -286 186 list_iot 5000;
#X msg -187 24 1;
#X msg 210 20 2;
#X msg 603 19 3;
#X msg 1000 20 4;
#X connect 0 0 73 0;
#X connect 1 0 66 0;
#X connect 2 0 4 0;
#X connect 3 0 71 0;
#X connect 3 0 77 0;
#X connect 3 1 78 0;
#X connect 5 0 6 0;
#X connect 5 1 2 0;
#X connect 5 1 13 0;
#X connect 5 1 12 0;
#X connect 7 0 60 0;
#X connect 8 0 73 0;
#X connect 9 0 16 1;
#X connect 10 0 9 0;
#X connect 11 0 9 1;
#X connect 12 0 14 0;
#X connect 13 0 15 0;
#X connect 16 0 3 0;
#X connect 17 0 8 0;
#X connect 18 0 67 0;
#X connect 19 0 71 0;
#X connect 19 0 77 0;
#X connect 19 1 79 0;
#X connect 20 0 59 0;
#X connect 21 0 74 0;
#X connect 22 0 25 1;
#X connect 23 0 22 0;
#X connect 24 0 22 1;
#X connect 25 0 19 0;
#X connect 26 0 21 0;
#X connect 27 0 68 0;
#X connect 28 0 71 0;
#X connect 28 0 77 0;
#X connect 28 1 80 0;
#X connect 29 0 57 0;
#X connect 30 0 75 0;
#X connect 31 0 34 1;
#X connect 32 0 31 0;
#X connect 33 0 31 1;
#X connect 34 0 28 0;
#X connect 35 0 30 0;
#X connect 36 0 69 0;
#X connect 37 0 71 0;
#X connect 37 0 77 0;
#X connect 37 1 81 0;
#X connect 38 0 58 0;
#X connect 39 0 76 0;
#X connect 40 0 43 1;
#X connect 41 0 40 0;
#X connect 42 0 40 1;
#X connect 43 0 37 0;
#X connect 44 0 39 0;
#X connect 45 0 74 0;
#X connect 46 0 75 0;
#X connect 47 0 76 0;
#X connect 49 0 13 1;
#X connect 53 0 16 0;
#X connect 54 0 25 0;
#X connect 55 0 34 0;
#X connect 56 0 43 0;
#X connect 57 0 63 0;
#X connect 57 1 50 0;
#X connect 58 0 64 0;
#X connect 58 1 48 0;
#X connect 59 0 62 0;
#X connect 59 1 51 0;
#X connect 60 0 61 0;
#X connect 60 1 52 0;
#X connect 65 0 12 1;
#X connect 66 0 53 0;
#X connect 67 0 54 0;
#X connect 68 0 55 0;
#X connect 69 0 56 0;
#X connect 71 0 72 0;
#X connect 71 1 72 1;
#X connect 72 0 70 0;
#X connect 73 1 10 0;
#X connect 73 1 1 0;
#X connect 73 2 7 0;
#X connect 73 2 11 0;
#X connect 74 1 23 0;
#X connect 74 1 18 0;
#X connect 74 2 20 0;
#X connect 74 2 24 0;
#X connect 75 1 32 0;
#X connect 75 1 27 0;
#X connect 75 2 29 0;
#X connect 75 2 33 0;
#X connect 76 1 41 0;
#X connect 76 1 36 0;
#X connect 76 2 38 0;
#X connect 76 2 42 0;
#X connect 77 0 5 0;
#X connect 78 0 2 1;
#X connect 78 0 71 1;
#X connect 79 0 2 1;
#X connect 79 0 71 1;
#X connect 80 0 2 1;
#X connect 80 0 71 1;
#X connect 81 0 2 1;
#X connect 81 0 71 1;
#X restore -251 -218 pd have-a-look-here;
#X text -383 -449 This example attempts some simple classification
of detected onsets on multiple inlets. It stores the noisiness mean
values averaged over the full chunk length and the source id number
in lists synched with the onset times \, so we can arrange the playback
with the classifier values. In this example \, only the strongest onset
of the list is played-back.;
#N canvas 1035 41 659 220 inputs 0;
#X obj -302 -86 s~ input1;
#X msg -292 -184 loop \$1;
#X obj -302 -256 inlet;
#X obj -292 -206 inlet;
#X obj -302 -133 tabplay2~ sample1;
#X obj -142 -133 tabplay2~ sample2;
#X obj 18 -133 tabplay2~ sample3;
#X obj 178 -133 tabplay2~ sample4;
#X obj 178 -86 s~ input4;
#X obj 18 -86 s~ input3;
#X obj -142 -86 s~ input2;
#X obj -294 -110 delwrite~ deline1 5000;
#X obj -134 -110 delwrite~ deline2 5000;
#X obj 26 -110 delwrite~ deline3 5000;
#X obj 186 -110 delwrite~ deline4 5000;
#X connect 1 0 4 0;
#X connect 1 0 5 0;
#X connect 1 0 6 0;
#X connect 1 0 7 0;
#X connect 2 0 4 0;
#X connect 2 0 5 0;
#X connect 2 0 6 0;
#X connect 2 0 7 0;
#X connect 3 0 1 0;
#X connect 4 0 0 0;
#X connect 4 0 11 0;
#X connect 5 0 10 0;
#X connect 5 0 12 0;
#X connect 6 0 9 0;
#X connect 6 0 13 0;
#X connect 7 0 8 0;
#X connect 7 0 14 0;
#X restore -250 -240 pd inputs;
#N canvas 430 274 281 364 direct_outs 0;
#X obj 9 29 r~ input1;
#X obj 25 241 line~;
#X obj 10 264 *~;
#X obj 24 73 vsl 15 100 0 1 0 0 empty empty empty 0 -9 0 10 -262144
-1 -1 2475 1;
#X obj 25 193 *;
#X msg 25 218 \$1 20;
#X obj 92 241 line~;
#X obj 77 264 *~;
#X obj 54 73 vsl 15 100 0 1 0 0 empty empty empty 0 -9 0 10 -262144
-1 -1 2475 1;
#X obj 92 193 *;
#X msg 92 218 \$1 20;
#X obj 152 241 line~;
#X obj 137 264 *~;
#X obj 86 73 vsl 15 100 0 1 0 0 empty empty empty 0 -9 0 10 -262144
-1 -1 2475 1;
#X obj 152 193 *;
#X msg 152 218 \$1 20;
#X obj 212 241 line~;
#X obj 197 264 *~;
#X obj 116 73 vsl 15 100 0 1 0 0 empty empty empty 0 -9 0 10 -262144
-1 -1 2475 1;
#X obj 212 193 *;
#X msg 212 218 \$1 20;
#X obj 196 29 r~ input4;
#X obj 136 29 r~ input3;
#X obj 76 29 r~ input2;
#X obj 101 310 +~;
#X obj 101 331 outlet~;
#X text 27 71 1;
#X text 59 71 2;
#X text 89 71 3;
#X text 118 71 4;
#X obj 217 78 loadbang;
#X msg 217 101 0.25;
#X connect 0 0 2 0;
#X connect 1 0 2 1;
#X connect 2 0 24 0;
#X connect 3 0 4 1;
#X connect 3 0 4 0;
#X connect 4 0 5 0;
#X connect 5 0 1 0;
#X connect 6 0 7 1;
#X connect 7 0 24 0;
#X connect 8 0 9 1;
#X connect 8 0 9 0;
#X connect 9 0 10 0;
#X connect 10 0 6 0;
#X connect 11 0 12 1;
#X connect 12 0 24 0;
#X connect 13 0 14 1;
#X connect 13 0 14 0;
#X connect 14 0 15 0;
#X connect 15 0 11 0;
#X connect 16 0 17 1;
#X connect 17 0 24 0;
#X connect 18 0 19 1;
#X connect 18 0 19 0;
#X connect 19 0 20 0;
#X connect 20 0 16 0;
#X connect 21 0 17 0;
#X connect 22 0 12 0;
#X connect 23 0 7 0;
#X connect 24 0 25 0;
#X connect 30 0 31 0;
#X connect 31 0 18 0;
#X connect 31 0 13 0;
#X connect 31 0 8 0;
#X connect 31 0 3 0;
#X coords 0 -1 1 1 120 130 1 20 50;
#X restore -381 -265 pd direct_outs;
#X obj -354 -27 cnv 15 160 50 empty empty empty 20 12 0 14 -261234
-66577 0;
#X obj -349 -20 output~;
#X text -281 -19 (1) DSP on;
#X text -276 -2 & Volume Up;
#X obj -381 -78 balance~;
#X obj -382 -349 cnv 15 360 18 empty empty empty 20 12 0 14 -204800
-66577 0;
#N canvas 106 146 441 390 init 0;
#X obj -161 29 loadbang;
#X obj -161 197 soundfiler;
#X obj -162 7 declare -path ../bin -path ../utils;
#X obj -161 219 table sample1 4410;
#X obj -161 239 table sample2 4410;
#X obj -161 259 table sample3 4410;
#X obj -161 279 table sample4 4410;
#X msg -161 51 read -resize ./soundfiles/Bonobo-TheNorthBorders-Cirrus.wav
sample1 \, read -resize ./soundfiles/Plastikman-Closer-Headcase.wav
sample2 \, read -resize ./soundfiles/OrenAmbarchi-AudienceOfOne-Salt.wav
sample3 \, read -resize ./soundfiles/Matmos-QuasiObjects-Latex.wav
sample4 \; sample1 normalize \; sample2 normalize \; sample3 normalize
\; sample4 normalize;
#X connect 0 0 7 0;
#X connect 7 0 1 0;
#X restore -257 -77 pd init;
#X obj -256 -266 cnv 15 110 18 empty empty empty 20 12 0 14 -204786
-66577 0;
#X obj -250 -265 tgl 15 0 empty empty empty 17 7 0 10 -262144 -1 -1
0 1;
#X obj -199 -265 tgl 15 1 empty empty empty 17 7 0 10 -262144 -1 -1
1 1;
#X text -180 -266 loop;
#X text -232 -266 play;
#X obj -382 -329 cnv 15 360 18 empty empty empty 20 12 0 14 -204800
-66577 0;
#X obj -382 -309 cnv 15 360 18 empty empty empty 20 12 0 14 -204800
-66577 0;
#X obj -382 -289 cnv 15 360 18 empty empty empty 20 12 0 14 -204800
-66577 0;
#X text -376 -349 Audio 1: Bonobo - The North Borders (2013) - Cirrus
;
#X text -376 -329 Audio 2: Kid Koala - 12-bit Blues (2012) - 2-bit
Blues;
#X text -376 -289 Audio 4: Matmos - Quasi Objects (1997) - Latex;
#X text -376 -309 Audio 3: Oren Ambarchi - Audience of One (2012) -
Salt;
#X text -383 -471 5 multiple inputs classification;
#X floatatom -87 -237 5 1 4 0 - - -;
#X text -50 -238 align slices to other input;
#X obj -87 -214 s triggerSource;
#X obj -48 -175 cnv 15 320 30 empty empty empty 20 12 0 14 -204786
-66577 0;
#X obj -44 -166 tgl 15 0 empty empty empty 17 7 0 10 -262144 -1 -1
0 1;
#X text -26 -174 trigger slices according to length of events (0);
#X text -26 -160 or to onsets of one of the sources (1);
#X obj -44 -135 s triggerMode;
#X floatatom -148 -168 5 0 0 0 - - -;
#X obj -148 -144 s candidates;
#X obj -147 -83 s noisy;
#X msg -147 -115 1;
#X msg -113 -115 -1;
#X obj -173 -11 randomSlice 3;
#X obj -268 -126 catch~ slices;
#X obj -173 9 randomSlice 4;
#X obj -173 -51 randomSlice 1;
#X obj -173 -31 randomSlice 2;
#X connect 4 0 9 0;
#X connect 9 0 6 0;
#X connect 9 1 6 1;
#X connect 13 0 3 0;
#X connect 14 0 3 1;
#X connect 25 0 27 0;
#X connect 29 0 32 0;
#X connect 33 0 34 0;
#X connect 36 0 35 0;
#X connect 37 0 35 0;
#X connect 39 0 9 1;
