#N canvas 61 22 1920 981 10;
#X declare -path ../bin -path ../utils;
#X msg -892 174 reset;
#N canvas 1035 41 659 220 inputs 0;
#X obj -302 -86 s~ input1;
#X msg -292 -184 loop \$1;
#X obj -302 -256 inlet;
#X obj -292 -206 inlet;
#X obj -294 -110 delwrite~ deline1 14000;
#X obj -302 -133 tabplay2~ sample1;
#X obj -142 -133 tabplay2~ sample2;
#X obj 18 -133 tabplay2~ sample3;
#X obj 178 -133 tabplay2~ sample4;
#X obj -134 -110 delwrite~ deline2 14000;
#X obj 26 -110 delwrite~ deline3 14000;
#X obj 186 -110 delwrite~ deline4 14000;
#X obj 178 -86 s~ input4;
#X obj 18 -86 s~ input3;
#X obj -142 -86 s~ input2;
#X connect 1 0 5 0;
#X connect 1 0 6 0;
#X connect 1 0 7 0;
#X connect 1 0 8 0;
#X connect 2 0 5 0;
#X connect 2 0 6 0;
#X connect 2 0 7 0;
#X connect 2 0 8 0;
#X connect 3 0 1 0;
#X connect 5 0 0 0;
#X connect 5 0 4 0;
#X connect 6 0 9 0;
#X connect 6 0 14 0;
#X connect 7 0 10 0;
#X connect 7 0 13 0;
#X connect 8 0 11 0;
#X connect 8 0 12 0;
#X restore -776 -300 pd inputs;
#N canvas 430 274 281 364 direct_outs 0;
#X obj 9 29 r~ input1;
#X obj 25 241 line~;
#X obj 10 264 *~;
#X obj 24 73 vsl 15 100 0 1 0 0 empty empty empty 0 -9 0 10 -262144
-1 -1 0 1;
#X obj 25 193 *;
#X msg 25 218 \$1 20;
#X obj 92 241 line~;
#X obj 77 264 *~;
#X obj 54 73 vsl 15 100 0 1 0 0 empty empty empty 0 -9 0 10 -262144
-1 -1 0 1;
#X obj 92 193 *;
#X msg 92 218 \$1 20;
#X obj 152 241 line~;
#X obj 137 264 *~;
#X obj 86 73 vsl 15 100 0 1 0 0 empty empty empty 0 -9 0 10 -262144
-1 -1 0 1;
#X obj 152 193 *;
#X msg 152 218 \$1 20;
#X obj 212 241 line~;
#X obj 197 264 *~;
#X obj 116 73 vsl 15 100 0 1 0 0 empty empty empty 0 -9 0 10 -262144
-1 -1 0 1;
#X obj 212 193 *;
#X msg 212 218 \$1 20;
#X obj 196 29 r~ input4;
#X obj 136 29 r~ input3;
#X obj 76 29 r~ input2;
#X obj 101 310 +~;
#X obj 101 331 outlet~;
#X text 27 71 1;
#X text 59 71 2;
#X text 89 71 3;
#X text 118 71 4;
#X obj 217 78 loadbang;
#X msg 217 101 0.25;
#X connect 0 0 2 0;
#X connect 1 0 2 1;
#X connect 2 0 24 0;
#X connect 3 0 4 1;
#X connect 3 0 4 0;
#X connect 4 0 5 0;
#X connect 5 0 1 0;
#X connect 6 0 7 1;
#X connect 7 0 24 0;
#X connect 8 0 9 1;
#X connect 8 0 9 0;
#X connect 9 0 10 0;
#X connect 10 0 6 0;
#X connect 11 0 12 1;
#X connect 12 0 24 0;
#X connect 13 0 14 1;
#X connect 13 0 14 0;
#X connect 14 0 15 0;
#X connect 15 0 11 0;
#X connect 16 0 17 1;
#X connect 17 0 24 0;
#X connect 18 0 19 1;
#X connect 18 0 19 0;
#X connect 19 0 20 0;
#X connect 20 0 16 0;
#X connect 21 0 17 0;
#X connect 22 0 12 0;
#X connect 23 0 7 0;
#X connect 24 0 25 0;
#X connect 30 0 31 0;
#X connect 31 0 18 0;
#X connect 31 0 13 0;
#X connect 31 0 8 0;
#X connect 31 0 3 0;
#X coords 0 -1 1 1 120 130 1 20 50;
#X restore -907 -325 pd direct_outs;
#X obj -850 9 route list;
#X floatatom -841 51 5 0 0 0 - - -;
#X text -806 51 strength;
#X obj -718 8 route list;
#X floatatom -708 50 5 0 0 0 - - -;
#X text -673 50 strength;
#X obj -748 261 list_value;
#X obj -718 95 t b b;
#X obj -850 91 t b b;
#X obj -748 346 s input_id;
#X obj -890 -35 r~ input1;
#X obj -758 -36 r~ input2;
#X obj -850 231 t l l;
#X msg -823 113 0;
#X msg -691 117 1;
#X obj -587 8 route list;
#X floatatom -577 50 5 0 0 0 - - -;
#X text -542 50 strength;
#X obj -587 93 t b b;
#X obj -627 -36 r~ input3;
#X obj -456 9 route list;
#X floatatom -446 51 5 0 0 0 - - -;
#X text -411 -59 strength;
#X obj -456 100 t b b;
#X obj -496 -35 r~ input4;
#X msg -560 115 2;
#X msg -429 122 3;
#X obj -850 207 list_iot 10000;
#X obj -627 -14 essentiaRT~ 10;
#X obj -732 304 spigot;
#X obj -699 283 tgl 15 0 empty empty empty 17 7 0 10 -262144 -1 -1
0 1;
#X obj -732 326 print SOURCES;
#X obj -880 -114 cnv 15 160 50 empty empty empty 20 12 0 14 -261234
-66577 0;
#X obj -875 -107 output~;
#X text -807 -104 (1) DSP on;
#X obj -850 70 timegate 1000;
#X obj -718 73 timegate 1000;
#X obj -587 73 timegate 1000;
#X obj -456 74 timegate 1000;
#X text -802 -87 & Volume Up;
#X text -907 -503 4_multiple_inputs_random;
#X text -909 -495 =========================;
#X obj -850 290 s iots;
#X obj -678 259 cnv 15 370 45 empty empty empty 20 12 0 14 -261682
-66577 0;
#X text -676 259 we add an identifier for each input source and we
store all the onset reports on the same [list_iot] object. In this
way we can later switch between the different sources.;
#X obj -222 -146 cnv 15 200 165 empty empty empty 20 12 0 14 -261682
-66577 0;
#X obj -303 -179 timer;
#X obj -272 56 +;
#X obj -275 -32 list split;
#X obj -247 35 sum;
#X obj -255 -178 list;
#X obj -251 -206 t b l;
#X obj -428 -377 delay;
#X obj -311 -226 t b b;
#X obj -238 13 s newEvent;
#X obj -428 -400 r newEvent;
#X obj -238 -9 list split 1;
#X obj -272 78 trapenv 2;
#X obj -255 -156 t l b l;
#X obj -185 -139 length;
#X obj -218 -118 random;
#X obj -178 -75 r input_id;
#X obj -147 -27 packel;
#X obj -104 -80 + 1;
#X obj -199 -53 list;
#X floatatom -137 -4 5 0 0 0 - - -;
#X obj -197 95 demux~ 1 2 3 4;
#X obj -143 198 *~;
#X obj -128 172 delread~ deline3;
#X obj -116 220 *~;
#X obj -101 198 delread~ deline4;
#X obj -197 148 *~;
#X obj -170 170 *~;
#X obj -218 -97 t f b f;
#X obj -351 -380 r~ input1;
#X obj -311 -336 prepend 1;
#X obj -428 -355 prepend 0;
#X obj -311 -268 route;
#X obj -182 125 delread~ deline1;
#X obj -155 148 delread~ deline2;
#X obj -334 -251 bng 15 250 50 0 empty empty empty 17 7 0 10 -262144
-1 -1;
#X text -101 -4 source;
#X obj -251 -227 r iots;
#X obj -274 -269 sel 0;
#X obj -274 -248 s newEvent;
#X obj -288 -303 cnv 15 320 30 empty empty empty 20 12 0 14 -204786
-66577 0;
#X obj -284 -294 tgl 15 0 empty empty empty 17 7 0 10 -262144 -1 -1
1 1;
#X text -266 -302 trigger slices according to length of events (0)
;
#X text -266 -288 or to tempo of one of the sources (1);
#X text -170 -118 random voice allocation;
#X text -180 73 demultiplex to the four delreads;
#X text -907 -481 This example takes four different streams of audio
and stores their respective onsets into a single list. At the same
time \, we also store "source identifiers" so they can be classified
together \, identified \, and retrieved indepentently.;
#X obj -850 30 route i.strength;
#X obj -718 29 route i.strength;
#X obj -587 29 route i.strength;
#X obj -456 30 route i.strength;
#X obj -907 -163 balance~;
#X obj -908 -408 cnv 15 360 18 empty empty empty 20 12 0 14 -204800
-66577 0;
#N canvas 252 187 870 514 init 0;
#X obj -161 29 loadbang;
#X obj -161 181 soundfiler;
#X obj -162 7 declare -path ../bin -path ../utils;
#X obj -161 203 table sample1 4410;
#X obj -161 223 table sample2 4410;
#X obj -161 243 table sample3 4410;
#X obj -161 263 table sample4 4410;
#X msg -161 51 read -resize ./Bonobo-TheNorthBorders-Cirrus.wav sample1
\, read -resize ./KidKoala-12bitBlues-2bitBlues.wav sample2 \, read
-resize ./OrenAmbarchi-AudienceOfOne-Salt.wav sample3 \, read -resize
./Matmos-QuasiObjects-Latex.wav sample4 \; sample1 normalize \; sample2
normalize \; sample3 normalize \; sample4 normalize;
#X connect 0 0 7 0;
#X connect 7 0 1 0;
#X restore -900 -185 pd init;
#X obj -782 -326 cnv 15 110 18 empty empty empty 20 12 0 14 -204786
-66577 0;
#X obj -776 -325 tgl 15 0 empty empty empty 17 7 0 10 -262144 -1 -1
1 1;
#X obj -725 -325 tgl 15 1 empty empty empty 17 7 0 10 -262144 -1 -1
1 1;
#X text -706 -326 loop;
#X text -758 -326 play;
#X obj -908 -388 cnv 15 360 18 empty empty empty 20 12 0 14 -204800
-66577 0;
#X obj -908 -368 cnv 15 360 18 empty empty empty 20 12 0 14 -204800
-66577 0;
#X obj -908 -348 cnv 15 360 18 empty empty empty 20 12 0 14 -204800
-66577 0;
#X text -902 -408 Audio 1: Bonobo - The North Borders (2013) - Cirrus
;
#X text -902 -388 Audio 2: Kid Koala - 12-bit Blues (2012) - 2-bit
Blues;
#X obj -351 -358 essentiaRT~ 50;
#X obj -890 -13 essentiaRT~ 50;
#X obj -758 -14 essentiaRT~ 30;
#X obj -496 -13 essentiaRT~ 70;
#X text -283 -381 synch tempo of the mashup to tempo of input 1;
#X obj -225 -341 bng 15 250 50 0 empty empty empty 17 7 0 10 -262144
-1 -1;
#X obj 201 -146 cnv 15 200 165 empty empty empty 20 12 0 14 -261682
-66577 0;
#X obj 120 -179 timer;
#X obj 151 56 +;
#X obj 148 -32 list split;
#X obj 176 35 sum;
#X obj 168 -178 list;
#X obj 172 -206 t b l;
#X obj 112 -394 delay;
#X obj 112 -226 t b b;
#X obj 185 13 s newEvent;
#X obj 112 -417 r newEvent;
#X obj 185 -9 list split 1;
#X obj 151 78 trapenv 2;
#X obj 168 -156 t l b l;
#X obj 238 -139 length;
#X obj 205 -118 random;
#X obj 245 -75 r input_id;
#X obj 276 -27 packel;
#X obj 319 -80 + 1;
#X obj 224 -53 list;
#X floatatom 286 -4 5 0 0 0 - - -;
#X obj 226 95 demux~ 1 2 3 4;
#X obj 280 198 *~;
#X obj 295 172 delread~ deline3;
#X obj 307 220 *~;
#X obj 322 198 delread~ deline4;
#X obj 253 170 *~;
#X obj 205 -97 t f b f;
#X obj 112 -372 prepend 0;
#X obj 112 -268 route;
#X obj 241 125 delread~ deline1;
#X obj 268 148 delread~ deline2;
#X obj 89 -251 bng 15 250 50 0 empty empty empty 17 7 0 10 -262144
-1 -1;
#X text 322 -4 source;
#X obj 172 -227 r iots;
#X obj 149 -269 sel 0;
#X obj 149 -248 s newEvent;
#X obj 135 -303 cnv 15 320 30 empty empty empty 20 12 0 14 -204786
-66577 0;
#X obj 139 -294 tgl 15 0 empty empty empty 17 7 0 10 -262144 -1 -1
1 1;
#X text 157 -302 trigger slices according to length of events (0);
#X text 157 -288 or to tempo of one of the sources (1);
#X text 253 -118 random voice allocation;
#X text 243 73 demultiplex to the four delreads;
#X obj 198 -341 bng 15 250 50 0 empty empty empty 17 7 0 10 -262144
-1 -1;
#X obj -197 253 throw~ slices1;
#X obj -747 -209 catch~ slices1;
#X obj -733 -182 catch~ slices2;
#X obj 226 253 throw~ slices2;
#X text -902 -348 Audio 4: Matmos - Quasi Objects (1997) - Latex;
#X text -902 -368 Audio 3: Oren Ambarchi - Audience of One (2012) -
Salt;
#X connect 0 0 30 0;
#X connect 2 0 99 0;
#X connect 3 0 95 0;
#X connect 6 0 96 0;
#X connect 9 0 12 0;
#X connect 9 0 32 0;
#X connect 10 0 30 0;
#X connect 10 1 17 0;
#X connect 11 0 30 0;
#X connect 11 1 16 0;
#X connect 13 0 113 0;
#X connect 14 0 114 0;
#X connect 15 0 45 0;
#X connect 15 1 9 0;
#X connect 16 0 9 1;
#X connect 17 0 9 1;
#X connect 18 0 97 0;
#X connect 21 0 30 0;
#X connect 21 1 28 0;
#X connect 22 0 31 0;
#X connect 23 0 98 0;
#X connect 26 0 30 0;
#X connect 26 1 29 0;
#X connect 27 0 115 0;
#X connect 28 0 9 1;
#X connect 29 0 9 1;
#X connect 30 0 15 0;
#X connect 31 1 18 0;
#X connect 32 0 34 0;
#X connect 33 0 32 1;
#X connect 38 0 11 0;
#X connect 39 0 10 0;
#X connect 40 0 21 0;
#X connect 41 0 26 0;
#X connect 49 0 50 0;
#X connect 50 0 60 0;
#X connect 51 1 52 0;
#X connect 51 1 59 0;
#X connect 52 0 50 1;
#X connect 53 0 61 0;
#X connect 54 0 49 0;
#X connect 54 1 53 1;
#X connect 55 0 79 0;
#X connect 56 0 49 1;
#X connect 56 1 53 0;
#X connect 58 0 55 0;
#X connect 59 0 57 0;
#X connect 60 0 71 0;
#X connect 60 0 73 0;
#X connect 60 0 81 0;
#X connect 60 0 82 0;
#X connect 60 1 69 0;
#X connect 61 0 51 0;
#X connect 61 1 63 0;
#X connect 61 2 62 0;
#X connect 62 0 63 1;
#X connect 63 0 76 0;
#X connect 64 0 67 1;
#X connect 65 0 68 0;
#X connect 65 0 69 0;
#X connect 66 0 65 1;
#X connect 67 0 65 0;
#X connect 69 0 74 0;
#X connect 69 1 75 0;
#X connect 69 2 70 0;
#X connect 69 3 72 0;
#X connect 70 0 162 0;
#X connect 71 0 70 1;
#X connect 72 0 162 0;
#X connect 73 0 72 1;
#X connect 74 0 162 0;
#X connect 75 0 162 0;
#X connect 76 0 51 1;
#X connect 76 1 67 0;
#X connect 76 2 66 0;
#X connect 77 0 112 0;
#X connect 78 0 80 0;
#X connect 78 0 147 0;
#X connect 79 0 80 0;
#X connect 80 0 56 0;
#X connect 80 0 83 0;
#X connect 81 0 74 1;
#X connect 82 0 75 1;
#X connect 85 0 54 0;
#X connect 86 0 87 0;
#X connect 89 0 80 1;
#X connect 89 0 86 0;
#X connect 95 0 4 0;
#X connect 95 0 38 0;
#X connect 96 0 7 0;
#X connect 96 0 39 0;
#X connect 97 0 19 0;
#X connect 97 0 40 0;
#X connect 98 0 24 0;
#X connect 98 0 41 0;
#X connect 99 0 36 0;
#X connect 99 1 36 1;
#X connect 103 0 1 0;
#X connect 104 0 1 1;
#X connect 112 1 78 0;
#X connect 112 1 117 0;
#X connect 113 1 3 0;
#X connect 114 1 6 0;
#X connect 115 1 23 0;
#X connect 119 0 120 0;
#X connect 120 0 130 0;
#X connect 121 1 122 0;
#X connect 121 1 129 0;
#X connect 122 0 120 1;
#X connect 123 0 131 0;
#X connect 124 0 119 0;
#X connect 124 1 123 1;
#X connect 125 0 146 0;
#X connect 126 0 119 1;
#X connect 126 1 123 0;
#X connect 128 0 125 0;
#X connect 129 0 127 0;
#X connect 130 0 141 0;
#X connect 130 0 143 0;
#X connect 130 0 148 0;
#X connect 130 0 149 0;
#X connect 130 1 139 0;
#X connect 131 0 121 0;
#X connect 131 1 133 0;
#X connect 131 2 132 0;
#X connect 132 0 133 1;
#X connect 133 0 145 0;
#X connect 134 0 137 1;
#X connect 135 0 138 0;
#X connect 135 0 139 0;
#X connect 136 0 135 1;
#X connect 137 0 135 0;
#X connect 139 1 144 0;
#X connect 139 2 140 0;
#X connect 139 3 142 0;
#X connect 140 0 165 0;
#X connect 141 0 140 1;
#X connect 142 0 165 0;
#X connect 143 0 142 1;
#X connect 144 0 165 0;
#X connect 145 0 121 1;
#X connect 145 1 137 0;
#X connect 145 2 136 0;
#X connect 146 0 147 0;
#X connect 147 0 126 0;
#X connect 147 0 150 0;
#X connect 149 0 144 1;
#X connect 152 0 124 0;
#X connect 153 0 154 0;
#X connect 156 0 147 1;
#X connect 156 0 153 0;
#X connect 163 0 99 0;
#X connect 164 0 99 1;
