#N canvas 484 30 592 918 10;
#X obj 46 -135 timer;
#X obj 134 182 +;
#X obj 131 94 list split;
#X obj 159 161 sum;
#X obj 116 -146 list;
#X obj 110 -172 t b l;
#X obj 22 -372 delay;
#X obj 168 117 list split 1;
#X obj 134 204 trapenv 2;
#X obj 239 221 demux~ 1 2 3 4;
#X obj 293 324 *~;
#X obj 308 298 delread~ deline3;
#X obj 320 346 *~;
#X obj 335 324 delread~ deline4;
#X obj 239 274 *~;
#X obj 266 296 *~;
#X obj 114 -351 prepend 1;
#X obj 22 -350 prepend 0;
#X obj 105 -293 route;
#X obj 254 251 delread~ deline1;
#X obj 281 274 delread~ deline2;
#X obj 82 -276 bng 15 250 50 0 empty empty empty 17 7 0 10 -262144
-1 -1;
#X obj 110 -193 r iots;
#X obj 142 -294 sel 0;
#X obj 253 116 packel;
#X obj 286 92 + 1;
#X obj 253 93 list;
#X obj 182 -191 r noisiness;
#X obj 161 -167 list;
#X obj 326 -169 r input_id;
#X obj 305 -147 list;
#X obj 105 -251 t b b b b;
#X obj 196 54 t f b f;
#X obj 161 -145 sort -1;
#X obj 114 -423 r onsets;
#X obj 114 -375 route 4;
#X obj 153 -398 r triggerSource;
#X obj 22 -395 r newEvent-\$1;
#X obj 135 -321 r triggerMode;
#X obj 142 -274 s newEvent-\$1;
#X obj 168 139 s newEvent-\$1;
#X obj 334 -118 r candidates;
#X obj 200 -167 r noisy;
#X obj 201 18 packel;
#X obj 234 -7 + 1;
#X obj 201 -54 t l b;
#X obj 253 138 - 1;
#X obj 205 -97 list split 3;
#X obj 234 -31 random 3;
#X obj 239 379 *~ 0.25;
#X obj 239 401 throw~ slices;
#X connect 0 0 1 0;
#X connect 1 0 8 0;
#X connect 2 1 3 0;
#X connect 2 1 7 0;
#X connect 3 0 1 1;
#X connect 4 0 2 0;
#X connect 5 0 0 0;
#X connect 5 1 4 1;
#X connect 6 0 17 0;
#X connect 7 0 40 0;
#X connect 8 0 11 0;
#X connect 8 0 13 0;
#X connect 8 0 19 0;
#X connect 8 0 20 0;
#X connect 8 1 9 0;
#X connect 9 0 14 0;
#X connect 9 1 15 0;
#X connect 9 2 10 0;
#X connect 9 3 12 0;
#X connect 10 0 49 0;
#X connect 11 0 10 1;
#X connect 12 0 49 0;
#X connect 13 0 12 1;
#X connect 14 0 49 0;
#X connect 15 0 49 0;
#X connect 16 0 18 0;
#X connect 17 0 18 0;
#X connect 18 0 21 0;
#X connect 18 0 31 0;
#X connect 19 0 14 1;
#X connect 20 0 15 1;
#X connect 22 0 5 0;
#X connect 23 0 39 0;
#X connect 24 0 46 0;
#X connect 25 0 24 1;
#X connect 26 0 24 0;
#X connect 27 0 28 1;
#X connect 28 0 33 0;
#X connect 29 0 30 1;
#X connect 30 0 26 1;
#X connect 31 0 0 1;
#X connect 31 1 4 0;
#X connect 31 2 28 0;
#X connect 31 3 30 0;
#X connect 32 0 2 1;
#X connect 32 1 26 0;
#X connect 32 2 25 0;
#X connect 33 1 47 0;
#X connect 34 0 35 0;
#X connect 35 0 16 0;
#X connect 36 0 35 1;
#X connect 37 0 6 0;
#X connect 38 0 18 1;
#X connect 38 0 23 0;
#X connect 41 0 47 1;
#X connect 41 0 48 1;
#X connect 42 0 33 1;
#X connect 43 0 32 0;
#X connect 44 0 43 1;
#X connect 45 0 43 0;
#X connect 45 1 48 0;
#X connect 46 0 9 0;
#X connect 47 0 45 0;
#X connect 48 0 44 0;
#X connect 49 0 50 0;
