#N canvas 430 410 893 431 10;
#N canvas 0 22 450 278 (subpatch) 0;
#X array \$1-slice 284927 float 2;
#X coords 0 1 284927 -1 100 20 1 0 0;
#X restore 100 100 graph;
#X obj 232 320 r declare-id;
#X obj 232 364 s id-list;
#X obj 39 175 r \$1-features;
#X obj 153 267 tabplay~ \$1-slice;
#X obj 129 290 throw~ sliceout;
#X obj 162 205 route play;
#X obj 167 182 r global-slice;
#X obj 158 231 sel \$1;
#X obj 233 340 f \$1;
#X connect 1 0 9 0;
#X connect 4 0 5 0;
#X connect 6 0 8 0;
#X connect 7 0 6 0;
#X connect 8 0 4 0;
#X connect 9 0 2 0;
#X coords 0 -1 1 1 100 60 1 100 100;
