#N canvas 0 22 450 300 10;
#X obj -49 -136 s~ input;
#X obj -44 -240 vline~;
#X obj -40 -192 *~;
#X obj -29 -162 dac~;
#X floatatom -16 -326 5 0 0 0 - - -;
#X msg -50 -272 0 \, 1 100 \, 0 200 200;
#X obj -16 -304 osc~ 1111;
#X connect 1 0 2 1;
#X connect 2 0 3 0;
#X connect 2 0 0 0;
#X connect 4 0 6 0;
#X connect 5 0 1 0;
#X connect 6 0 2 0;
