#N canvas 595 128 902 547 10;
#X obj -33 -48 s~ input;
#X obj -44 -240 vline~;
#X obj -40 -192 *~;
#X floatatom -16 -326 5 0 0 0 - - -;
#X obj -16 -304 osc~ 1111;
#X obj 103 68 route list;
#X obj 103 94 route onset_strength inst.centroid;
#X floatatom 104 116 5 0 0 0 - - -;
#X floatatom 205 117 5 0 0 0 - - -;
#X obj 91 -138 r~ input;
#X obj 254 -104 route list;
#X floatatom 366 131 5 0 0 0 - - -;
#X obj 254 -78 route pitched.mean;
#X obj 116 -31 bng 15 250 50 0 empty empty empty 17 7 0 10 -262144
-1 -1;
#X obj -29 -145 osc~ 400;
#X floatatom 3 -179 5 0 0 0 - - -;
#X obj 201 -9 timer;
#X obj 199 -34 t b b;
#X floatatom 232 24 5 0 0 0 - - -;
#X obj 74 -53 essentiaRT~ 5;
#X msg -50 -272 0 \, 1 100 \, 0 200 300;
#X obj 445 52 route list;
#X obj 445 78 route onset_strength inst.centroid;
#X floatatom 137 116 5 0 0 0 - - -;
#X floatatom 241 118 5 0 0 0 - - -;
#X obj 433 -154 r~ input;
#X obj 596 -120 route list;
#X floatatom 403 132 5 0 0 0 - - -;
#X obj 596 -94 route pitched.mean;
#X obj 458 -47 bng 15 250 50 0 empty empty empty 17 7 0 10 -262144
-1 -1;
#X obj 543 -25 timer;
#X obj 541 -50 t b b;
#X floatatom 574 8 5 0 0 0 - - -;
#X obj 416 -69 essentiaRT~ 5;
#X obj 267 49 print;
#X connect 1 0 2 1;
#X connect 3 0 4 0;
#X connect 4 0 2 0;
#X connect 5 0 6 0;
#X connect 6 0 7 0;
#X connect 6 1 8 0;
#X connect 9 0 19 0;
#X connect 10 0 12 0;
#X connect 12 0 11 0;
#X connect 13 0 17 0;
#X connect 14 0 0 0;
#X connect 15 0 14 0;
#X connect 16 0 18 0;
#X connect 17 0 16 0;
#X connect 17 1 16 1;
#X connect 18 0 34 0;
#X connect 19 1 5 0;
#X connect 19 1 13 0;
#X connect 19 2 10 0;
#X connect 20 0 1 0;
#X connect 21 0 22 0;
#X connect 22 0 23 0;
#X connect 22 1 24 0;
#X connect 25 0 33 0;
#X connect 26 0 28 0;
#X connect 28 0 27 0;
#X connect 29 0 31 0;
#X connect 30 0 32 0;
#X connect 31 0 30 0;
#X connect 31 1 30 1;
#X connect 33 1 21 0;
#X connect 33 1 29 0;
#X connect 33 2 26 0;
