#N canvas 519 198 1076 657 10;
#X obj 16 591 *~;
#X obj 127 97 peakenv~ 100;
#X obj 146 439 line~;
#X obj 128 128 unsig~ 50;
#X msg 42 279 stop;
#X floatatom 244 422 5 0 0 0 - - -;
#X obj 244 393 unsig~ 50;
#X obj 128 351 moses;
#X text 292 421 gain;
#X obj 127 67 inlet~;
#X obj 16 67 inlet~;
#X obj 16 621 outlet~;
#X obj 256 98 f \$1;
#X obj 691 298 loadbang;
#X obj 256 67 inlet;
#X obj 366 67 inlet;
#X obj 466 67 inlet;
#X obj 576 67 inlet;
#X obj 127 390 pack;
#X obj 169 390 pack;
#X obj 666 67 inlet;
#X obj 366 98 f \$2;
#X obj 466 98 f \$3;
#X obj 576 98 f \$4;
#X obj 666 98 f \$5;
#X obj 128 186 swap;
#X obj 128 216 /;
#X obj 128 245 *;
#X obj 128 275 -;
#X obj 128 305 + 1;
#X obj 39 374 loadbang;
#X msg 39 398 1;
#X text 36 22 agc~ Automatic Gain Control by Darrell Enns;
#X text 127 47 trigger audio;
#X text 16 47 input audio;
#X obj 101 163 moses;
#X obj 816 67 inlet;
#X text 806 47 max gain (0-1);
#X obj 128 327 clip 0 1;
#X text 656 47 freezelevel(0-1);
#X text 566 47 decay(ms);
#X text 456 47 attack(ms);
#X text 356 47 ratio(0-1);
#X text 246 47 target(0-1);
#X obj 147 621 outlet~;
#X obj 244 621 outlet;
#X obj 816 98 f \$6;
#X connect 0 0 11 0;
#X connect 1 0 3 0;
#X connect 2 0 0 1;
#X connect 2 0 6 0;
#X connect 2 0 44 0;
#X connect 3 0 35 0;
#X connect 4 0 2 0;
#X connect 5 0 45 0;
#X connect 6 0 5 0;
#X connect 6 0 7 1;
#X connect 7 0 18 0;
#X connect 7 1 19 0;
#X connect 9 0 1 0;
#X connect 10 0 0 0;
#X connect 12 0 25 1;
#X connect 13 0 12 0;
#X connect 13 0 21 0;
#X connect 13 0 22 0;
#X connect 13 0 23 0;
#X connect 13 0 24 0;
#X connect 13 0 46 0;
#X connect 14 0 12 0;
#X connect 15 0 21 0;
#X connect 16 0 22 0;
#X connect 17 0 23 0;
#X connect 18 0 2 0;
#X connect 19 0 2 0;
#X connect 20 0 24 0;
#X connect 21 0 27 1;
#X connect 21 0 28 1;
#X connect 22 0 18 1;
#X connect 23 0 19 1;
#X connect 24 0 35 1;
#X connect 25 0 26 0;
#X connect 25 1 26 1;
#X connect 26 0 27 0;
#X connect 27 0 28 0;
#X connect 28 0 29 0;
#X connect 29 0 38 0;
#X connect 30 0 31 0;
#X connect 31 0 2 0;
#X connect 35 0 4 0;
#X connect 35 1 25 0;
#X connect 36 0 46 0;
#X connect 38 0 7 0;
#X connect 46 0 38 2;
