#N canvas 1052 399 731 483 10;
#X msg 169 -200 disconnect;
#X msg 77 -179 recover -1;
#X obj 169 49 outlet~;
#X obj 222 49 outlet~;
#X obj 240 -4 prepend connect;
#X msg 288 -117 revolutionradio.ru live.ogg 8000;
#X msg 272 -138 radio.hbr1.com trance.ogg 19800;
#X msg 256 -158 radio.hbr1.com tronic.ogg 19800;
#X msg 240 -178 radio.hbr1.com ambient.ogg 19800;
#X obj 169 -298 sel 0 1;
#X obj 393 38 list2symbol :;
#X obj 169 -324 r \$0-connect;
#X obj 85 -202 r \$0-recover;
#X obj 397 -5 loadbang;
#X msg 398 16 pick_a_station_to_start;
#X obj 2 -364 inlet;
#X obj 2 -343 route station;
#X obj 77 -323 route recover;
#X obj 393 60 outlet;
#X obj 240 -200 select 0 1 2 3 4 5 6 7;
#X obj 169 25 oggamp~ 0 2 256;
#X obj 2 -321 t f b;
#X obj 240 -221 pipe 50;
#X obj 240 -242 f \$1;
#X obj 219 -273 t b b;
#X obj 251 -324 loadbang;
#X msg 304 -95 radio.deepspaceradio.org deepspace.ogg 8000;
#X msg 321 -75 streams.radio-gfm.net electro.ogg 8000;
#X msg 336 -55 streams.radio-gfm.net rockpop.ogg 8000;
#X msg 352 -34 streams.radio-gfm.net metal.ogg 8000;
#X connect 0 0 20 0;
#X connect 1 0 20 0;
#X connect 4 0 20 0;
#X connect 5 0 4 0;
#X connect 5 0 10 0;
#X connect 6 0 4 0;
#X connect 6 0 10 0;
#X connect 7 0 4 0;
#X connect 7 0 10 0;
#X connect 8 0 4 0;
#X connect 8 0 10 0;
#X connect 9 0 0 0;
#X connect 9 1 24 0;
#X connect 10 0 18 0;
#X connect 11 0 9 0;
#X connect 12 0 1 0;
#X connect 13 0 14 0;
#X connect 14 0 10 0;
#X connect 15 0 16 0;
#X connect 16 0 21 0;
#X connect 16 1 17 0;
#X connect 17 0 1 0;
#X connect 17 1 9 0;
#X connect 19 0 8 0;
#X connect 19 1 7 0;
#X connect 19 2 6 0;
#X connect 19 3 5 0;
#X connect 19 4 26 0;
#X connect 19 5 27 0;
#X connect 19 6 28 0;
#X connect 19 7 29 0;
#X connect 20 0 2 0;
#X connect 20 1 3 0;
#X connect 21 0 23 0;
#X connect 21 1 0 0;
#X connect 22 0 19 0;
#X connect 23 0 22 0;
#X connect 24 0 23 0;
#X connect 24 1 0 0;
#X connect 26 0 4 0;
#X connect 26 0 10 0;
#X connect 27 0 4 0;
#X connect 27 0 10 0;
#X connect 28 0 4 0;
#X connect 28 0 10 0;
#X connect 29 0 4 0;
#X connect 29 0 10 0;
#X coords 0 483 1 482 220 80 0;
