#N canvas 0 22 203 164 10;
#X obj 93 16 inlet;
#X obj 64 123 outlet;
#X obj 26 71 makefilename /%s;
#X obj 93 39 list split 1;
#X obj 64 101 list append;
#X connect 0 0 3 0;
#X connect 2 0 4 0;
#X connect 3 0 2 0;
#X connect 3 1 4 1;
#X connect 4 0 1 0;
