#N canvas 351 260 562 590 10;
#X obj 22 177 dbtorms;
#X obj 22 157 + 3.012;
#X obj 57 342 dbtorms;
#X obj 22 202 t b f;
#X obj 20 399 /;
#X obj 20 441 vline~;
#X obj -35 462 *~;
#X obj 164 129 timer;
#X obj 164 107 t b b;
#X obj 164 383 change;
#X floatatom 76 41 5 0 0 0 - - -;
#X obj 57 320 \$1;
#X obj 57 297 loadbang;
#X obj -35 487 outlet~;
#X obj -35 47 inlet~;
#X floatatom 162 414 5 0 0 0 - - -;
#X floatatom 199 156 5 0 0 0 - - -;
#X floatatom 75 450 5 0 0 0 - - -;
#X floatatom 78 138 5 0 0 0 - - -;
#X obj 3 115 mstats 100;
#X obj 63 491 snaps~;
#X obj 3 87 env~ 2048 256;
#X obj 20 420 pack 0 100;
#X connect 0 0 3 0;
#X connect 1 0 0 0;
#X connect 2 0 4 0;
#X connect 3 0 4 0;
#X connect 3 1 4 1;
#X connect 4 0 22 0;
#X connect 5 0 6 1;
#X connect 5 0 20 0;
#X connect 6 0 13 0;
#X connect 7 0 9 0;
#X connect 7 0 16 0;
#X connect 8 0 7 0;
#X connect 8 1 7 1;
#X connect 9 0 15 0;
#X connect 9 0 22 1;
#X connect 11 0 2 0;
#X connect 12 0 11 0;
#X connect 14 0 6 0;
#X connect 14 0 21 0;
#X connect 19 1 1 0;
#X connect 19 1 18 0;
#X connect 21 0 8 0;
#X connect 21 0 19 0;
#X connect 22 0 5 0;
#X connect 22 0 17 0;
