#N canvas 949 161 292 308 10;
#X obj 124 215 line~;
#X obj 57 221 line~;
#X obj 181 244 *~;
#X obj 42 243 *~;
#X obj 57 134 - 1;
#X obj 57 155 abs;
#X obj 57 177 sqrt;
#X msg 57 199 \$1 20;
#X obj 124 172 sqrt;
#X msg 124 193 \$1 20;
#X obj 196 101 inlet~;
#X obj 42 106 inlet~;
#X obj 181 264 outlet~;
#X obj 42 264 outlet~;
#X obj 60 67 hsl 100 15 0 1 0 1 \$0-bla \$0-no empty -2 -8 0 10 -262144
-1 -1 0 1;
#X msg 57 29 0.5;
#X obj 57 9 loadbang;
#X text 69 66 a;
#X text 140 66 b;
#X connect 0 0 2 0;
#X connect 1 0 3 1;
#X connect 2 0 12 0;
#X connect 3 0 13 0;
#X connect 4 0 5 0;
#X connect 5 0 6 0;
#X connect 6 0 7 0;
#X connect 7 0 1 0;
#X connect 8 0 9 0;
#X connect 9 0 0 0;
#X connect 10 0 2 1;
#X connect 11 0 3 0;
#X connect 14 0 4 0;
#X connect 14 0 8 0;
#X connect 15 0 14 0;
#X connect 16 0 15 0;
#X coords 0 -1 1 1 120 40 1 50 50;
