#N canvas 222 417 348 612 10;
#X obj 113 382 t l;
#X obj 30 382 list prepend;
#X obj 53 293 drip 0;
#X obj 8 293 drip 0;
#X obj 36 534 sum;
#X obj 102 106 length;
#X obj 18 317 -;
#X obj 30 360 *;
#X obj 18 338 t f f;
#X obj 36 576 outlet;
#X obj 53 270 list;
#X obj 42 10 inlet;
#X obj 186 10 inlet;
#X obj 36 555 sqrt;
#X obj 133 222 print ERROR;
#X obj 69 128 ==;
#X obj 69 70 length;
#X obj 42 172 spigot 0;
#X obj 87 151 t f f;
#X obj 133 178 sel 0;
#X obj 42 51 t l l;
#X obj 42 195 t l b b;
#X obj 42 30 list;
#X msg 133 199 lists must be of equal length.;
#X obj 97 432 length;
#X obj 129 458 ==;
#X obj 129 478 sel 1;
#X obj 36 512 list;
#X obj 30 405 t l l;
#X connect 0 0 1 1;
#X connect 1 0 0 0;
#X connect 1 0 28 0;
#X connect 2 0 6 1;
#X connect 3 0 6 0;
#X connect 4 0 13 0;
#X connect 5 0 15 1;
#X connect 5 0 25 1;
#X connect 6 0 8 0;
#X connect 7 0 1 0;
#X connect 8 0 7 0;
#X connect 8 1 7 1;
#X connect 10 0 2 0;
#X connect 11 0 22 0;
#X connect 12 0 10 1;
#X connect 12 0 5 0;
#X connect 13 0 9 0;
#X connect 15 0 18 0;
#X connect 16 0 15 0;
#X connect 17 0 21 0;
#X connect 18 0 17 1;
#X connect 18 1 19 0;
#X connect 19 0 23 0;
#X connect 20 0 17 0;
#X connect 20 1 16 0;
#X connect 21 0 3 0;
#X connect 21 1 10 0;
#X connect 21 2 1 1;
#X connect 22 0 20 0;
#X connect 23 0 14 0;
#X connect 24 0 25 0;
#X connect 25 0 26 0;
#X connect 26 0 27 0;
#X connect 27 0 4 0;
#X connect 28 0 24 0;
#X connect 28 1 27 1;
