#N canvas 427 22 212 544 10;
#X obj 122 282 t l;
#X obj 39 282 list prepend;
#X obj 69 107 t b b b;
#X obj 62 193 drip 0;
#X obj 17 193 drip 0;
#X obj 99 444 sum;
#X obj 150 282 length;
#X obj 39 351 length;
#X obj 66 380 ==;
#X obj 39 306 t l l;
#X obj 99 423 list;
#X obj 66 400 sel 1;
#X obj 27 217 -;
#X obj 39 260 *;
#X obj 27 238 t f f;
#X obj 99 486 outlet;
#X obj 62 168 list;
#X obj 17 169 list;
#X obj 11 11 inlet;
#X obj 11 36 t b l;
#X obj 83 144 inlet;
#X obj 99 465 sqrt;
#X connect 0 0 1 1;
#X connect 1 0 0 0;
#X connect 1 0 9 0;
#X connect 2 0 17 0;
#X connect 2 1 16 0;
#X connect 2 2 1 1;
#X connect 3 0 12 1;
#X connect 4 0 12 0;
#X connect 5 0 21 0;
#X connect 6 0 8 1;
#X connect 7 0 8 0;
#X connect 8 0 11 0;
#X connect 9 0 7 0;
#X connect 9 1 10 1;
#X connect 10 0 5 0;
#X connect 11 0 10 0;
#X connect 12 0 14 0;
#X connect 13 0 1 0;
#X connect 14 0 13 0;
#X connect 14 1 13 1;
#X connect 16 0 6 0;
#X connect 16 0 3 0;
#X connect 17 0 4 0;
#X connect 18 0 19 0;
#X connect 19 0 2 0;
#X connect 19 1 17 1;
#X connect 20 0 16 1;
#X connect 21 0 15 0;
