#N canvas 603 436 488 383 10;
#X floatatom 20 195 5 0 0 0 - - -;
#X floatatom 101 142 5 0 0 0 - - -;
#X obj 20 93 metro 200;
#X obj 20 117 random 100;
#X floatatom 33 139 5 0 0 0 - - -;
#X obj 20 72 tgl 15 0 empty empty empty 17 7 0 10 -262144 -1 -1 0 1
;
#X floatatom 71 71 5 0 0 0 - - -;
#X obj 74 211 timer;
#X obj 74 188 t b b;
#X floatatom 74 233 5 0 0 0 - - -;
#X text 112 234 elapsed time;
#X obj 20 165 filtevent 1000;
#X connect 1 0 11 1;
#X connect 2 0 3 0;
#X connect 3 0 4 0;
#X connect 3 0 11 0;
#X connect 5 0 2 0;
#X connect 6 0 2 1;
#X connect 7 0 9 0;
#X connect 8 0 7 0;
#X connect 8 1 7 1;
#X connect 11 0 0 0;
#X connect 11 0 8 0;
