#N canvas 86 22 833 861 10;
#X obj 115 32 bng 15 250 50 0 \$0-playNext \$0-none empty 9 24 0 14
-262144 -1 -1;
#X obj 205 32 bng 15 250 50 0 \$0-reset \$0-none empty 9 24 1 12 -262144
-1 -1;
#X floatatom 15 91 5 0 0 0 - #0-countFiles #0-em;
#X obj 15 52 tgl 15 1 \$0-stopTrack \$0-es empty 17 7 0 10 -262144
-1 -1 1 1;
#X obj 15 72 tgl 15 0 \$0-stopEnd \$0-ss empty 17 7 0 10 -262144 -1
-1 0 1;
#X symbolatom 66 110 40 0 0 0 - #0-currentFile #0-asdf;
#X text 31 50 play tracks continuosly;
#X text 31 71 stop after all tracks have been played;
#X text 131 29 play/next;
#X text 221 30 stop/reset;
#X obj 15 32 bng 15 250 50 0 \$0-open \$0-none empty 9 24 0 14 -262144
-1 -1;
#X text 31 29 open folder;
#X text 14 109 playing:;
#X text 50 90 raw audio files in folder;
#X obj 336 345 folder_list;
#X obj 172 651 readsf~ 2;
#X msg 226 625 open \$1;
#X obj 363 392 f 1;
#X obj 393 392 + 1;
#X obj 363 413 s \$0-countFiles;
#X obj 520 188 loadbang;
#X obj 484 670 list-rev;
#X obj 484 691 unpack s;
#X obj 507 797 s \$0-currentFile;
#X obj 148 183 r \$0-playNext;
#X obj 215 586 != 1;
#X obj 547 278 s \$0-init;
#X msg 547 258 1;
#X obj 520 236 t b b;
#X obj 520 301 delay 10;
#X obj 378 369 r \$0-init;
#X obj 215 564 r \$0-init;
#X obj 336 368 t s b;
#X obj 125 685 *~;
#X obj 111 613 vline~;
#X obj 151 685 *~;
#X msg 200 438 0 10;
#X msg 80 556 0 \, 1 10;
#X obj 484 648 jasch_lib/strtok /;
#X obj 173 395 t b b;
#X obj 145 418 del 11;
#X msg 107 517 1;
#X obj 145 440 t b b;
#X obj 80 494 t b b;
#X obj 336 476 list append;
#X obj 399 433 r \$0-init;
#X msg 399 455 bang;
#X obj 429 476 t l;
#X obj 315 576 list;
#X obj 315 598 packel;
#X obj 280 521 t b f;
#X obj 280 477 zexy/urn;
#X obj 544 695 r \$0-init;
#X obj 280 499 + 1;
#X text 404 534 angelfaraldo@gmail.com \, 2014;
#X obj 268 652 r \$0-stopTrack;
#X obj 223 675 spigot 1;
#X obj 223 697 s \$0-playNext;
#X msg 357 739 end of the list.;
#X obj 357 762 list2symbol;
#X obj 357 718 delay 100;
#X obj 80 471 del 20;
#X obj 184 280 r \$0-countFiles;
#X obj 130 299 + 1;
#X obj 32 359 spigot 1;
#X obj 73 278 t b b;
#X obj 115 278 r \$0-init;
#X obj 229 205 r \$0-stopEnd;
#X obj 148 227 list prepend 0;
#X obj 148 249 route 1 0;
#X obj 16 726 sel 0;
#X obj 100 336 <=;
#X obj 100 299 f 1;
#X obj 257 405 sel;
#X obj 272 380 + 1;
#X msg 257 429 0;
#X obj 337 -2 r \$0-open;
#X obj 336 93 jasch_lib/strtok /;
#X obj 336 192 list split 1;
#X obj 405 152 length;
#X obj 405 173 - 1;
#X obj 336 135 t l l;
#X obj 336 114 a2l;
#X obj 336 238 list2symbol;
#X msg 399 218 symbol /;
#X obj 336 40 savepanel;
#X obj 336 319 makefilename /%s/*.wav;
#X obj 336 259 t s s s;
#X obj 375 279 makefilename /%s/*.aif;
#X obj 355 299 makefilename /%s/*.aiff;
#X obj 125 751 outlet~;
#X obj 182 742 outlet~;
#X obj 336 68 symbol;
#X obj 474 88 s \$0-init;
#X msg 474 68 1;
#X obj 447 46 t b b;
#X obj 447 26 r \$0-reset;
#X msg 520 320 symbol *.aif \, symbol *.aiff \, symbol *.wav;
#X msg 544 715 symbol nothing;
#X obj 497 386 print;
#X obj 337 19 t b b;
#X connect 14 0 32 0;
#X connect 14 0 99 0;
#X connect 15 0 33 1;
#X connect 15 1 35 1;
#X connect 15 2 56 0;
#X connect 16 0 15 0;
#X connect 17 0 18 0;
#X connect 17 0 19 0;
#X connect 17 0 51 1;
#X connect 18 0 17 1;
#X connect 20 0 28 0;
#X connect 20 0 84 0;
#X connect 21 0 22 0;
#X connect 22 0 23 0;
#X connect 24 0 68 0;
#X connect 25 0 15 0;
#X connect 27 0 26 0;
#X connect 28 0 29 0;
#X connect 28 1 27 0;
#X connect 29 0 97 0;
#X connect 30 0 17 1;
#X connect 31 0 25 0;
#X connect 32 0 44 0;
#X connect 32 1 17 0;
#X connect 33 0 90 0;
#X connect 34 0 33 0;
#X connect 34 0 35 0;
#X connect 35 0 91 0;
#X connect 36 0 34 0;
#X connect 37 0 34 0;
#X connect 38 0 21 0;
#X connect 39 0 40 0;
#X connect 39 1 36 0;
#X connect 40 0 42 0;
#X connect 41 0 15 0;
#X connect 42 0 61 0;
#X connect 42 1 51 0;
#X connect 43 0 37 0;
#X connect 43 1 41 0;
#X connect 44 0 47 0;
#X connect 44 0 48 1;
#X connect 45 0 46 0;
#X connect 46 0 44 1;
#X connect 47 0 44 1;
#X connect 48 0 49 0;
#X connect 49 0 38 0;
#X connect 49 0 16 0;
#X connect 50 0 48 0;
#X connect 50 1 49 1;
#X connect 51 0 53 0;
#X connect 52 0 98 0;
#X connect 53 0 50 0;
#X connect 55 0 56 1;
#X connect 56 0 57 0;
#X connect 58 0 59 0;
#X connect 59 0 23 0;
#X connect 60 0 58 0;
#X connect 61 0 43 0;
#X connect 62 0 71 1;
#X connect 62 0 74 0;
#X connect 63 0 72 1;
#X connect 64 0 39 0;
#X connect 65 0 64 0;
#X connect 65 1 72 0;
#X connect 66 0 72 1;
#X connect 67 0 68 1;
#X connect 68 0 69 0;
#X connect 69 0 65 0;
#X connect 69 1 39 0;
#X connect 70 0 60 0;
#X connect 71 0 64 1;
#X connect 71 0 70 0;
#X connect 72 0 63 0;
#X connect 72 0 71 0;
#X connect 72 0 73 0;
#X connect 73 0 75 0;
#X connect 74 0 73 1;
#X connect 75 0 15 0;
#X connect 76 0 100 0;
#X connect 77 0 82 0;
#X connect 78 0 83 0;
#X connect 79 0 80 0;
#X connect 80 0 78 1;
#X connect 81 0 78 0;
#X connect 81 1 79 0;
#X connect 82 0 81 0;
#X connect 83 0 87 0;
#X connect 84 0 83 1;
#X connect 85 0 92 0;
#X connect 86 0 14 0;
#X connect 87 0 86 0;
#X connect 87 1 89 0;
#X connect 87 2 88 0;
#X connect 88 0 14 0;
#X connect 89 0 14 0;
#X connect 92 0 77 0;
#X connect 94 0 93 0;
#X connect 95 0 92 0;
#X connect 95 1 94 0;
#X connect 96 0 95 0;
#X connect 97 0 14 0;
#X connect 98 0 23 0;
#X connect 100 0 85 0;
#X connect 100 1 94 0;
#X coords 0 -1 1 1 300 120 1 10 10;
