#N canvas 216 22 350 365 10;
#X obj 89 91 f;
#X obj 191 47 length;
#X obj 89 113 list prepend;
#X obj 164 25 t b l;
#X obj 8 301 list split 1;
#X obj 268 246 route 0 1;
#X obj 116 162 length;
#X obj 89 140 t l l;
#X obj 107 216 list prepend;
#X obj 176 194 >;
#X obj 268 277 outlet;
#X obj 62 -15 inlet;
#X obj 104 -13 inlet;
#X connect 0 0 2 0;
#X connect 1 0 9 1;
#X connect 2 0 7 0;
#X connect 3 0 0 0;
#X connect 3 1 1 0;
#X connect 4 1 7 0;
#X connect 5 0 2 1;
#X connect 5 0 10 0;
#X connect 5 1 4 0;
#X connect 6 0 9 0;
#X connect 7 0 8 0;
#X connect 7 1 6 0;
#X connect 8 0 5 0;
#X connect 9 0 8 1;
#X connect 11 0 3 0;
#X connect 12 0 0 1;
