#N canvas 1469 22 345 486 10;
#X obj 39 1 inlet;
#X obj 48 160 timer;
#X obj 48 182 list prepend;
#X obj 192 297 list split 1;
#X obj 16 207 t l l;
#X obj 261 252 sum;
#X obj 202 375 list append;
#X msg 213 349 1;
#X obj 163 322 route bang;
#X msg 176 349 0;
#X obj 153 407 route 1 0;
#X obj 48 138 t b b;
#X obj 288 116 inlet;
#X obj 261 274 >= \$1;
#X obj 162 69 sel reset;
#X obj 162 45 symbol;
#X obj 64 109 bang;
#X obj 178 433 route bang;
#X obj 39 22 route bang float list;
#X obj 235 455 outlet;
#X connect 0 0 18 0;
#X connect 1 0 2 0;
#X connect 2 0 4 0;
#X connect 3 0 8 0;
#X connect 3 1 6 1;
#X connect 4 0 3 0;
#X connect 4 1 5 0;
#X connect 5 0 13 0;
#X connect 6 0 10 0;
#X connect 7 0 6 0;
#X connect 8 0 9 0;
#X connect 8 1 7 0;
#X connect 9 0 6 0;
#X connect 10 0 4 0;
#X connect 10 1 2 1;
#X connect 10 1 17 0;
#X connect 11 0 1 0;
#X connect 11 1 1 1;
#X connect 12 0 13 1;
#X connect 13 0 3 1;
#X connect 14 0 2 1;
#X connect 14 1 16 0;
#X connect 15 0 14 0;
#X connect 16 0 11 0;
#X connect 17 1 19 0;
#X connect 18 0 11 0;
#X connect 18 1 16 0;
#X connect 18 2 16 0;
#X connect 18 3 15 0;
