#N canvas 859 90 396 407 10;
#X obj 16 137 delay;
#X obj 56 137 random 5;
#X msg 64 225 reset;
#X msg 16 93 bang;
#X msg 24 113 stop;
#X floatatom 66 202 5 0 0 0 - - -;
#X floatatom 131 288 5 0 0 0 - - -;
#X obj 56 364 print list-iot;
#X obj 56 310 list_iot 2000;
#X text 169 287 change the buffer size (ms);
#X obj 56 159 * 100;
#X obj 56 181 + 100;
#X text 107 218 clear list and start counting again;
#X text 108 231 from the next incoming values;
#X text 70 251 left inlet receives any data type (l \, f \, b and s)
;
#X text 70 266 and measures the elapsed time from the previous input
;
#X text 63 329 a list of elapsed times within the given time frame
(buffersize) is updated when new data comes in.;
#X text 17 4 [list_iot] keeps track of the elapsed times between consecutive
units of incoming data within a pre-defined buffer size \, after which
it will forget them. This is useful to keep track of \, for example
\, onset times and be able to retrieve their position from a circular
buffer such as [delwrite~].;
#X connect 0 0 1 0;
#X connect 1 0 10 0;
#X connect 2 0 8 0;
#X connect 3 0 0 0;
#X connect 4 0 0 0;
#X connect 6 0 8 1;
#X connect 8 0 7 0;
#X connect 10 0 11 0;
#X connect 11 0 5 0;
#X connect 11 0 0 0;
#X connect 11 0 8 0;
