#N canvas 686 290 326 467 10;
#X obj 170 297 zexy/minmax;
#X obj 67 37 list append;
#X obj 35 210 drip;
#X obj 68 160 t l l;
#X obj 77 205 sum;
#X obj 35 253 -;
#X obj 35 296 *;
#X obj 35 273 t f f;
#X obj 65 342 sum;
#X obj 77 229 / \$1;
#X obj 65 363 / \$1;
#X obj 35 317 repack \$1;
#X obj 65 418 outlet;
#X obj 67 13 inlet;
#X obj 67 60 t l l;
#X obj 125 79 length;
#X obj 125 110 min \$1;
#X obj 116 418 outlet;
#X obj 233 418 outlet;
#X obj 170 418 outlet;
#X obj 267 15 inlet;
#X obj 68 134 list split;
#X text 115 434 mean;
#X text 170 434 min;
#X text 230 434 max;
#X obj 65 395 sqrt;
#X text 63 434 std;
#X connect 0 0 19 0;
#X connect 0 1 18 0;
#X connect 1 0 14 0;
#X connect 2 0 5 0;
#X connect 3 0 2 0;
#X connect 3 1 4 0;
#X connect 3 1 0 0;
#X connect 4 0 9 0;
#X connect 5 0 7 0;
#X connect 6 0 11 0;
#X connect 7 0 6 0;
#X connect 7 1 6 1;
#X connect 8 0 10 0;
#X connect 9 0 5 1;
#X connect 9 0 17 0;
#X connect 10 0 25 0;
#X connect 11 0 8 0;
#X connect 13 0 1 0;
#X connect 14 0 21 0;
#X connect 14 1 15 0;
#X connect 15 0 16 0;
#X connect 16 0 21 1;
#X connect 20 0 16 1;
#X connect 20 0 9 1;
#X connect 20 0 11 1;
#X connect 20 0 10 1;
#X connect 21 0 3 0;
#X connect 21 0 1 1;
#X connect 25 0 12 0;
