#N canvas 718 68 715 723 10;
#X obj 74 566 tabwrite~ \$0-signal;
#X obj 83 536 metro 100;
#X obj 17 330 inlet~;
#X obj 21 567 outlet~;
#X obj 279 299 inlet;
#X obj 279 322 route size range;
#X obj 273 357 max 2;
#X obj 134 512 max 100;
#X obj 378 567 s \$0-signal;
#X msg 378 511 resize \$1;
#N canvas 0 22 450 278 (subpatch) 0;
#X array \$0-signal 441 float 0;
#X coords 0 1 440 -1 140 140 1 0 0;
#X restore 50 80 graph;
#X msg 449 510 bounds 0 \$2 \$1 \$3;
#X obj 447 456 t b f;
#X obj 288 404 samplerate~;
#X obj 273 382 * 0.001;
#X obj 273 426 *;
#X obj 447 426 minmax;
#X obj 96 280 loadbang;
#X obj 96 308 t b b;
#X msg 187 511 bounds 0 1 441 -1 \, resize 441;
#X obj 449 485 pack 441 1 -1;
#X connect 1 0 0 0;
#X connect 2 0 0 0;
#X connect 2 0 3 0;
#X connect 4 0 5 0;
#X connect 5 0 6 0;
#X connect 5 1 16 0;
#X connect 6 0 7 0;
#X connect 6 0 14 0;
#X connect 7 0 1 1;
#X connect 9 0 8 0;
#X connect 11 0 8 0;
#X connect 12 0 20 0;
#X connect 12 1 20 1;
#X connect 13 0 15 1;
#X connect 14 0 15 0;
#X connect 15 0 9 0;
#X connect 15 0 20 0;
#X connect 16 0 12 0;
#X connect 16 1 20 2;
#X connect 17 0 18 0;
#X connect 18 0 1 0;
#X connect 18 1 13 0;
#X connect 18 1 19 0;
#X connect 19 0 8 0;
#X connect 20 0 11 0;
#X coords 0 -1 1 1 140 170 1 50 50;
