#N canvas 0 22 552 358 10;
#X floatatom 151 102 5 0 0 0 - - -;
#X msg 279 130 disconnect;
#X msg 275 109 connect giantStream.local puredata.ogg 8100;
#X obj 138 161 oggamp~ 0 8 512;
#X obj 29 205 s~ 1r;
#X obj 39 224 s~ 1l;
#X obj 143 205 s~ 2r;
#X obj 153 224 s~ 2l;
#X obj 235 204 s~ 3r;
#X obj 245 223 s~ 3l;
#X obj 317 200 s~ 4r;
#X obj 327 219 s~ 4l;
#X obj 106 34 loadbang;
#X obj 1 228 s~ 1m;
#X obj 0 200 +~;
#X obj 113 205 +~;
#X obj 114 233 s~ 2m;
#X obj 196 199 +~;
#X obj 197 227 s~ 3m;
#X obj 293 201 +~;
#X obj 291 222 s~ 4m;
#X obj 102 102 bng 15 250 50 0 empty empty empty 17 7 0 10 -262144
-1 -1;
#X obj 116 62 t b b;
#X obj 207 77 del 100;
#X text 102 114 reconnect;
#X connect 1 0 3 0;
#X connect 2 0 3 0;
#X connect 3 0 4 0;
#X connect 3 0 14 0;
#X connect 3 1 5 0;
#X connect 3 1 14 1;
#X connect 3 2 6 0;
#X connect 3 2 15 0;
#X connect 3 3 7 0;
#X connect 3 3 15 1;
#X connect 3 4 8 0;
#X connect 3 4 17 0;
#X connect 3 5 9 0;
#X connect 3 5 17 1;
#X connect 3 6 10 0;
#X connect 3 6 19 0;
#X connect 3 7 11 0;
#X connect 3 7 19 1;
#X connect 3 8 0 0;
#X connect 12 0 22 0;
#X connect 14 0 13 0;
#X connect 15 0 16 0;
#X connect 17 0 18 0;
#X connect 19 0 20 0;
#X connect 21 0 22 0;
#X connect 22 0 23 0;
#X connect 22 1 1 0;
#X connect 23 0 2 0;
#X coords 0 -1 1 1 85 30 2 100 100;
