#N canvas 345 324 873 434 10;
#X obj 105 122 tgl 15 0 empty empty empty 17 7 0 10 -262144 -1 -1 0
1;
#X obj 125 122 tgl 15 0 empty empty empty 17 7 0 10 -262144 -1 -1 0
1;
#X obj 145 122 tgl 15 0 empty empty empty 17 7 0 10 -262144 -1 -1 0
1;
#X obj 165 122 tgl 15 0 empty empty empty 17 7 0 10 -262144 -1 -1 0
1;
#N canvas 517 329 584 300 xfader 0;
#X obj 164 163 pack 0 0 0 0;
#X obj 232 -14 del 1;
#X obj 300 -31 bng 15 250 50 0 empty empty empty 17 7 0 10 -262144
-1 -1;
#X obj 166 213 outlet;
#X floatatom 153 -7 5 0 0 0 - - -;
#X obj 194 63 expr 1-abs($f1-2);
#X obj 304 65 expr 1-abs($f1-3);
#X obj 408 67 expr 1-abs($f1-4);
#X obj 57 70 expr 1-abs($f1-1);
#X obj 92 105 t f f;
#X obj 99 147 *;
#X obj 120 122 > 0;
#X obj 176 93 t f f;
#X obj 183 135 *;
#X obj 205 114 > 0;
#X obj 257 87 t f f;
#X obj 264 129 *;
#X obj 286 108 > 0;
#X obj 360 101 t f f;
#X obj 367 143 *;
#X obj 389 122 > 0;
#X obj 150 -33 inlet;
#X connect 0 0 3 0;
#X connect 1 0 8 0;
#X connect 2 0 1 0;
#X connect 4 0 5 0;
#X connect 4 0 6 0;
#X connect 4 0 7 0;
#X connect 4 0 8 0;
#X connect 5 0 2 0;
#X connect 5 0 12 0;
#X connect 6 0 2 0;
#X connect 6 0 15 0;
#X connect 7 0 2 0;
#X connect 7 0 18 0;
#X connect 8 0 9 0;
#X connect 9 0 10 0;
#X connect 9 1 11 0;
#X connect 10 0 0 0;
#X connect 11 0 10 1;
#X connect 12 0 13 0;
#X connect 12 1 14 0;
#X connect 13 0 0 1;
#X connect 14 0 13 1;
#X connect 15 0 16 0;
#X connect 15 1 17 0;
#X connect 16 0 0 2;
#X connect 17 0 16 1;
#X connect 18 0 19 0;
#X connect 18 1 20 0;
#X connect 19 0 0 3;
#X connect 20 0 19 1;
#X connect 21 0 4 0;
#X restore 101 66 pd xfader;
#X obj 104 104 hsl 78 15 0 5 0 0 empty empty empty -2 -8 0 10 -262144
-1 -1 0 1;
#X obj 105 144 vsl 15 48 0 1 0 0 empty empty empty 0 -9 0 10 -262144
-1 -1 0 1;
#X obj 125 144 vsl 15 48 0 1 0 0 empty empty empty 0 -9 0 10 -262144
-1 -1 0 1;
#X obj 145 144 vsl 15 48 0 1 0 0 empty empty empty 0 -9 0 10 -262144
-1 -1 0 1;
#X obj 165 144 vsl 15 48 0 1 0 0 empty empty empty 0 -9 0 10 -262144
-1 -1 0 1;
#X obj 320 98 unpack 0 0 0 0;
#X obj 317 55 pack 0 0 0 0;
#X obj 336 25 t b f;
#X obj 374 24 t b f;
#X obj 412 26 t b f;
#X obj 319 121 change 1.1;
#X obj 345 141 change 1.1;
#X obj 375 161 change 1.1;
#X obj 394 179 change 1.1;
#X obj 153 41 inlet;
#X obj 205 335 r~ 1r;
#X obj 320 347 r~ 2r;
#X obj 267 343 r~ 2l;
#X obj 484 344 r~ 3r;
#X obj 422 341 r~ 3l;
#X obj 668 333 r~ 4r;
#X obj 620 346 r~ 4l;
#X obj 175 408 *~ 1;
#X obj 212 405 *~ 1;
#X obj 239 483 outlet~;
#X obj 321 481 outlet~;
#X obj 199 385 r \$0-g1;
#X obj 267 410 *~ 1;
#X obj 304 407 *~ 1;
#X obj 419 406 *~ 1;
#X obj 456 403 *~ 1;
#X obj 604 397 *~ 1;
#X obj 641 394 *~ 1;
#X obj 291 387 r \$0-g2;
#X obj 443 383 r \$0-g3;
#X obj 628 374 r \$0-g4;
#X obj 540 116 s \$0-g1;
#X obj 587 113 s \$0-g2;
#X obj 639 112 s \$0-g3;
#X obj 685 114 s \$0-g4;
#X obj 572 84 unpack 0 0 0 0;
#X floatatom 129 416 5 0 0 0 - - -;
#X obj 164 343 r~ 1l;
#X connect 0 0 6 0;
#X connect 1 0 7 0;
#X connect 2 0 8 0;
#X connect 3 0 9 0;
#X connect 4 0 10 0;
#X connect 5 0 4 0;
#X connect 6 0 11 0;
#X connect 7 0 12 0;
#X connect 8 0 13 0;
#X connect 9 0 14 0;
#X connect 10 0 15 0;
#X connect 10 1 16 0;
#X connect 10 2 17 0;
#X connect 10 3 18 0;
#X connect 11 0 10 0;
#X connect 11 0 45 0;
#X connect 12 0 11 0;
#X connect 12 1 11 1;
#X connect 13 0 11 0;
#X connect 13 1 11 2;
#X connect 14 0 11 0;
#X connect 14 1 11 3;
#X connect 15 0 6 0;
#X connect 16 0 7 0;
#X connect 17 0 8 0;
#X connect 18 0 9 0;
#X connect 19 0 10 0;
#X connect 20 0 28 0;
#X connect 21 0 33 0;
#X connect 22 0 32 0;
#X connect 23 0 35 0;
#X connect 24 0 34 0;
#X connect 25 0 37 0;
#X connect 26 0 36 0;
#X connect 27 0 29 0;
#X connect 28 0 30 0;
#X connect 31 0 27 1;
#X connect 31 0 28 1;
#X connect 31 0 46 0;
#X connect 32 0 29 0;
#X connect 33 0 30 0;
#X connect 34 0 29 0;
#X connect 35 0 30 0;
#X connect 36 0 29 0;
#X connect 37 0 30 0;
#X connect 38 0 32 1;
#X connect 38 0 33 1;
#X connect 39 0 34 1;
#X connect 39 0 35 1;
#X connect 40 0 36 1;
#X connect 40 0 37 1;
#X connect 45 0 41 0;
#X connect 45 1 42 0;
#X connect 45 2 43 0;
#X connect 45 3 44 0;
#X connect 47 0 27 0;
#X coords 0 -1 1 1 85 100 2 100 100;
