#N canvas 0 22 672 347 10;
#X floatatom 151 102 5 0 0 0 - - -;
#X msg 279 130 disconnect;
#X obj 106 34 loadbang;
#X obj 1 246 s~ 1m;
#X obj 95 222 +~;
#X obj 102 102 bng 15 250 50 0 empty empty empty 17 7 0 10 -262144
-1 -1;
#X obj 116 62 t b b;
#X obj 271 49 del 100;
#X text 102 114 reconnect;
#X obj 271 68 symbol \$1;
#X obj 272 87 makefilename %s.ogg;
#X msg 275 109 connect giantStream.local \$1 8100;
#X msg 280 205 set \$1;
#X obj 279 186 makefilename %sr;
#X obj 281 227 s~ 1r;
#X obj 159 226 s~ 1l;
#X msg 162 206 set \$1;
#X obj 162 190 makefilename %sl;
#X msg 0 223 set \$1;
#X obj 0 203 makefilename %sm;
#X obj 134 286 outlet~;
#X obj 213 283 outlet~;
#X msg 527 177 print;
#X obj 386 309 PRINT;
#X obj 138 161 oggamp~ 0 2 512;
#X connect 1 0 24 0;
#X connect 2 0 6 0;
#X connect 4 0 3 0;
#X connect 5 0 6 0;
#X connect 6 0 7 0;
#X connect 6 1 1 0;
#X connect 7 0 9 0;
#X connect 9 0 10 0;
#X connect 9 0 13 0;
#X connect 9 0 17 0;
#X connect 9 0 19 0;
#X connect 10 0 11 0;
#X connect 11 0 24 0;
#X connect 12 0 14 0;
#X connect 13 0 12 0;
#X connect 16 0 15 0;
#X connect 17 0 16 0;
#X connect 18 0 3 0;
#X connect 19 0 18 0;
#X connect 22 0 24 0;
#X connect 24 0 4 0;
#X connect 24 0 15 0;
#X connect 24 0 20 0;
#X connect 24 1 4 1;
#X connect 24 1 14 0;
#X connect 24 1 21 0;
#X connect 24 2 23 0;
#X coords 0 -1 1 1 85 30 2 100 100;
