#N canvas 0 22 807 497 10;
#X floatatom 151 102 5 0 0 0 - - -;
#X msg 249 115 disconnect;
#X obj 106 34 loadbang;
#X obj -67 281 s~ 1m;
#X obj -65 258 +~;
#X obj 102 102 bng 15 250 50 0 empty empty empty 17 7 0 10 -262144
-1 -1;
#X obj 116 62 t b b;
#X obj 250 75 del 100;
#X text 102 114 reconnect;
#X obj 40 273 s~ 1r;
#X obj -3 271 s~ 1l;
#X obj -32 315 outlet~;
#X obj -15 295 outlet~;
#X msg 250 95 connect giantStream.local gs.ogg 8100;
#X obj 91 269 +~;
#X obj 124 326 outlet~;
#X obj 141 306 outlet~;
#X obj 89 292 s~ 2m;
#X obj 153 282 s~ 2l;
#X obj 196 284 s~ 2r;
#X obj 272 265 +~;
#X obj 305 322 outlet~;
#X obj 322 302 outlet~;
#X obj 269 288 s~ 3m;
#X obj 334 278 s~ 3l;
#X obj 377 280 s~ 3r;
#X obj 461 272 +~;
#X obj 494 329 outlet~;
#X obj 511 309 outlet~;
#X obj 139 161 oggamp~ 0 8 1024;
#X obj 458 295 s~ 4m;
#X obj 523 285 s~ 4l;
#X obj 566 287 s~ 4r;
#X connect 1 0 29 0;
#X connect 2 0 6 0;
#X connect 4 0 3 0;
#X connect 5 0 6 0;
#X connect 6 0 7 0;
#X connect 6 1 1 0;
#X connect 7 0 13 0;
#X connect 13 0 29 0;
#X connect 14 0 17 0;
#X connect 20 0 23 0;
#X connect 26 0 30 0;
#X connect 29 0 4 0;
#X connect 29 0 10 0;
#X connect 29 0 11 0;
#X connect 29 1 4 1;
#X connect 29 1 9 0;
#X connect 29 1 12 0;
#X connect 29 2 14 0;
#X connect 29 2 18 0;
#X connect 29 2 15 0;
#X connect 29 3 14 1;
#X connect 29 3 19 0;
#X connect 29 3 16 0;
#X connect 29 4 20 0;
#X connect 29 4 21 0;
#X connect 29 4 24 0;
#X connect 29 5 20 1;
#X connect 29 5 22 0;
#X connect 29 5 25 0;
#X connect 29 6 26 0;
#X connect 29 6 27 0;
#X connect 29 6 31 0;
#X connect 29 7 26 1;
#X connect 29 7 28 0;
#X connect 29 7 32 0;
#X coords 0 -1 1 1 85 30 2 100 100;
