#N canvas 0 22 371 251 10;
#X obj 49 186 tabplay2~;
#X text 9 12 [tabplay2~] is based on pd native's object [tabplay~].
It is started/stopped with 0 and 1 messages and loops by default.;
#X msg 60 150 loop \$1;
#X msg 49 83 1;
#X msg 49 103 0;
#X text 77 103 stop playing;
#X text 77 83 start playing;
#X text 111 150 loop through the table (default on);
#X obj 60 131 tgl 15 0 empty empty empty 17 7 0 10 -262144 -1 -1 0
1;
#X connect 2 0 0 0;
#X connect 4 0 0 0;
#X connect 8 0 2 0;
