#N canvas 1421 584 261 175 10;
#X obj 75 119 spigot 1;
#X msg 31 75 stop;
#X obj 12 97 tabplay~ \$1;
#X obj 12 139 outlet~;
#X obj 12 7 inlet;
#X obj 120 98 route loop;
#X obj 12 53 sel 1 0;
#X obj 12 31 route float;
#X connect 0 0 2 0;
#X connect 1 0 2 0;
#X connect 2 0 3 0;
#X connect 2 1 0 0;
#X connect 4 0 7 0;
#X connect 5 0 0 1;
#X connect 6 0 2 0;
#X connect 6 1 1 0;
#X connect 7 0 6 0;
#X connect 7 1 5 0;
