#N canvas 411 622 230 214 10;
#X obj 38 105 spigot 1;
#X msg 83 81 0;
#X obj 38 45 t b a;
#X obj 38 23 inlet;
#X obj 38 166 outlet;
#X obj 119 22 inlet;
#X msg 119 179 1;
#X obj 119 157 del \$1;
#X obj 38 131 t a b;
#X connect 0 0 8 0;
#X connect 1 0 0 1;
#X connect 2 0 1 0;
#X connect 2 1 0 0;
#X connect 3 0 2 0;
#X connect 5 0 7 0;
#X connect 6 0 0 1;
#X connect 7 0 6 0;
#X connect 8 0 4 0;
#X connect 8 1 7 0;
