#N canvas 660 250 232 206 10;
#X obj 7 7 inlet;
#X obj 118 170 outlet~;
#X obj 118 117 vline~;
#X obj 118 147 *~;
#X obj 118 85 pack 1 \$1;
#X obj 58 85 pack 0 \$1;
#X obj 7 85 pipe \$1;
#X obj 7 169 outlet;
#X obj 7 29 t f b;
#X obj 183 3 inlet;
#X obj 118 63 delay \$1;
#X connect 0 0 8 0;
#X connect 2 0 3 1;
#X connect 2 0 3 0;
#X connect 3 0 1 0;
#X connect 4 0 2 0;
#X connect 5 0 2 0;
#X connect 6 0 7 0;
#X connect 8 0 6 0;
#X connect 8 1 5 0;
#X connect 8 1 10 0;
#X connect 9 0 6 1;
#X connect 9 0 5 1;
#X connect 9 0 4 1;
#X connect 9 0 10 1;
#X connect 10 0 4 0;
