#N canvas 0 22 450 300 10;
#X obj 25 -1706 list append;
#X obj 99 -1703 t l;
#X obj 88 -1730 bng 15 250 50 0 empty empty empty 17 7 0 10 -262144
-1 -1;
#X obj 95 -1773 del 10;
#X msg 82 -1804 stop \, bang;
#X obj 55 -1668 l;
#X obj 109 -1745 t b b;
#X obj 27 -1865 inlet;
#X obj 48 -1608 outlet;
#X connect 0 0 1 0;
#X connect 0 0 5 1;
#X connect 1 0 0 1;
#X connect 2 0 0 1;
#X connect 3 0 6 0;
#X connect 4 0 3 0;
#X connect 5 0 8 0;
#X connect 6 0 2 0;
#X connect 6 1 5 0;
#X connect 7 0 4 0;
#X connect 7 0 0 0;
