#N canvas 102 22 873 938 10;
#X declare -lib xsample;
#X msg -62 -97 stop;
#X obj -70 -73 s rec;
#X obj -53 574 s global-slice;
#X obj -53 552 prepend record;
#X obj 400 169 hradio 15 1 0 8 empty empty empty 0 -8 0 10 -4034 -1
-1 1;
#X obj 400 231 s global-slice;
#X obj 400 210 prepend play;
#X obj 81 500 tgl 15 0 empty empty empty 17 7 0 10 -258113 -1 -1 0
1;
#X obj -33 509 tgl 15 0 empty empty empty 17 7 0 10 -258113 -1 -1 0
1;
#X obj -14 509 tgl 15 0 empty empty empty 17 7 0 10 -258113 -1 -1 0
1;
#X obj 4 509 tgl 15 0 empty empty empty 17 7 0 10 -258113 -1 -1 0 1
;
#X obj 23 509 tgl 15 0 empty empty empty 17 7 0 10 -258113 -1 -1 0
1;
#X obj 42 499 tgl 15 0 empty empty empty 17 7 0 10 -258113 -1 -1 0
1;
#X obj 62 500 tgl 15 0 empty empty empty 17 7 0 10 -258113 -1 -1 0
1;
#X obj -53 509 tgl 15 0 empty empty empty 17 7 0 10 -258113 -1 -1 0
1;
#X obj -53 531 funnel 8 1 1 1 1 1 1 1;
#X obj 405 -68 catch~ sliceout;
#X obj 141 -173 circbuf;
#X obj 484 -20 tgl 15 0 empty empty empty 17 7 0 10 -262144 -1 -1 0
1;
#X obj -146 36 radioin;
#X obj -146 -9 hradio 15 1 0 8 empty empty empty 0 -8 0 10 -262144
-1 -1 6;
#X obj -146 13 prepend station;
#N canvas 1177 200 490 392 ifnointernet 0;
#X obj -542 44 soundfiler;
#N canvas 0 22 450 278 (subpatch) 0;
#X array array1 767488 float 2;
#X coords 0 1 767488 -1 200 140 1;
#X restore -378 -13 graph;
#X msg -542 23 read -resize \$1 array1;
#X obj -541 -27 openpanel;
#X obj -542 -47 bng 15 250 50 0 empty empty empty 17 7 0 10 -262144
-1 -1;
#X obj -543 103 s array1;
#X msg -543 82 const 0;
#X obj -475 -25 tosymbol;
#X msg -475 -75 /Users/mhermant/Dropbox/Oskar OSkarovic Orkestar/Enregistrements/Zoom
Yvboul Menerboul 2013/0. Best of Menerboul 2013.wav;
#X obj -468 212 osc~ 600;
#X floatatom -468 192 5 0 0 0 - - -;
#X obj -420 179 bng 15 250 50 0 empty empty empty 17 7 0 10 -262144
-1 -1;
#X obj -507 157 tabplay~ array1;
#X obj -507 192 *~ 2;
#X obj -485 236 outlet~;
#X connect 2 0 0 0;
#X connect 3 0 2 0;
#X connect 4 0 3 0;
#X connect 6 0 5 0;
#X connect 7 0 2 0;
#X connect 8 0 7 0;
#X connect 9 0 14 0;
#X connect 10 0 9 0;
#X connect 11 0 12 0;
#X connect 12 0 13 0;
#X connect 12 1 11 0;
#X connect 13 0 14 0;
#X restore -91 36 pd ifnointernet;
#X obj -154 168 tgl 15 0 empty empty empty 17 7 0 10 -262144 -1 -1
0 1;
#X obj -85 376 list-lastx 2;
#X obj -85 398 unpack 0 0;
#X obj -154 186 metro 2000;
#X obj 450 92 tgl 15 0 empty empty empty 17 7 0 10 -262144 -1 -1 0
1;
#X obj -154 206 random 8;
#X obj 450 110 metro 2000;
#X obj -62 331 bng 15 250 50 0 empty empty empty 17 7 0 10 -262144
-1 -1;
#N canvas 1240 379 365 275 record_manager 0;
#X obj 16 43 inlet;
#X obj 145 104 del 1000;
#X obj 16 90 spigot;
#X obj 70 60 tgl 15 0 empty empty empty 17 7 0 10 -262144 -1 -1 1 1
;
#X obj 69 7 loadbang;
#X obj 69 36 1;
#X obj 100 34 0;
#X obj 63 123 t b b b;
#X obj 63 152 counter 8;
#X obj 63 200 outlet;
#X text 15 240 cierra un segundo después de haber encontrado un onset
;
#X obj 72 179 print COUNTER;
#X connect 0 0 2 0;
#X connect 1 0 5 0;
#X connect 2 0 7 0;
#X connect 3 0 2 1;
#X connect 4 0 5 0;
#X connect 5 0 3 0;
#X connect 6 0 3 0;
#X connect 7 0 8 0;
#X connect 7 1 1 0;
#X connect 7 2 6 0;
#X connect 8 0 9 0;
#X connect 8 0 11 0;
#X restore -41 350 pd record_manager;
#X obj -35 328 s onset;
#X obj 400 110 r onset;
#X obj -146 86 *~ 1;
#X floatatom -125 65 5 0 0 0 - - -;
#X obj 463 -48 r~ audioIn;
#X obj -78 168 r~ audioIn;
#X obj -146 110 s~ audioIn;
#X obj -70 -163 loadbang;
#X obj -70 -141 del 1000;
#X obj -147 -104 tgl 15 0 empty empty empty 17 7 0 10 -262144 -1 -1
1 1;
#X obj 405 17 output~;
#X msg -146 -86 \; pd dsp \$1 \;;
#X obj -147 -124 del 200;
#N canvas 475 606 148 163 declare-id 0;
#X obj 8 -155 s declare-id;
#X obj 8 -175 bng 15 250 50 0 empty empty empty 17 7 0 10 -262144 -1
-1;
#X obj 8 -269 r id-list;
#X obj 8 -225 prepend set;
#X obj 8 -247 list-merge;
#X obj 82 -225 bng 15 250 50 0 empty empty empty 17 7 0 10 -262144
-1 -1;
#X msg 8 -202 1 2 3 4 5 6 7 8;
#X connect 1 0 0 0;
#X connect 2 0 4 0;
#X connect 3 0 6 0;
#X connect 4 0 3 0;
#X restore -51 -193 pd declare-id;
#X text -64 140 trigger record on onsets;
#X text 400 91 player;
#X obj 463 -2 *~ 0;
#X text -148 -28 audio input;
#X text 138 -199 circular buffer to store audio;
#X text 139 -97 slices filled from circularbuffer;
#X text 404 -86 audio output;
#X text -154 148 recorder;
#X obj -147 -194 import xsample;
#X obj -16 393 PRINT;
#X obj 400 190 + 1;
#X obj -70 -119 bng 15 250 50 0 empty empty start_circulartbuffer 17
7 0 10 -262144 -1 -1;
#X obj 141 -63 slice 1;
#X obj 251 -63 slice 5;
#X obj 141 17 slice 2;
#X obj 141 97 slice 3;
#X obj 141 177 slice 4;
#X obj 251 17 slice 6;
#X obj 251 97 slice 7;
#X obj 251 177 slice 8;
#X obj 400 143 random 7;
#X obj -46 479 spray 8 0 0 0 0 0 0 0;
#X text -150 479 similar to route;
#X obj -73 597 PRINT;
#X obj 28 265 print on;
#X obj 405 -47 *~ 0.5;
#X obj 426 -22 tgl 15 0 empty empty empty 17 7 0 10 -262144 -1 -1 0
1;
#X obj 405 -4 *~ 1;
#X obj -63 441 pack 1 1;
#X obj -4 458 pack 1 0;
#X obj -41 216 route list;
#X obj -41 237 route onset_strength;
#X obj -41 308 sel 1;
#X floatatom -26 265 5 0 0 0 - - -;
#X obj -41 286 > 1;
#X obj -78 194 essentiaRT~ 5;
#X obj -4 439 pipe 300;
#X obj -85 62 agc~ 1 1 250 1000 0.2 1;
#N canvas 1119 22 542 281 buffer 1;
#X obj 14 41 delwrite~ \$0-del 10000;
#X obj 14 19 r~ audioIn;
#X connect 1 0 0 0;
#X restore 36 -193 pd buffer;
#X obj 116 346 timer;
#X obj 305 432 t l;
#X obj 176 496 print;
#X obj 295 465 moses 10000;
#X obj 358 442 r \$0-buffSize;
#X msg 330 386 bang;
#X obj 407 572 sum;
#X floatatom 367 567 5 0 0 0 - - -;
#X msg 424 517 23 234 25 1;
#X obj 516 464;
#X obj 160 346 timer;
#X obj 149 311 t b b b;
#X obj 136 386 pack 0 0;
#X obj 237 360 PRINT;
#X obj 512 313 timer;
#X floatatom 521 346 5 0 0 0 - - -;
#X obj 533 284 bng 15 250 50 0 empty empty empty 17 7 0 10 -262144
-1 -1;
#X obj 466 289 bng 15 250 50 0 empty empty empty 17 7 0 10 -262144
-1 -1;
#X obj 172 281 bng 15 250 50 0 empty empty empty 17 7 0 10 -262144
-1 -1;
#X obj 212 426 list prepend;
#X obj 488 401 list;
#X connect 0 0 1 0;
#X connect 3 0 2 0;
#X connect 4 0 56 0;
#X connect 6 0 5 0;
#X connect 7 0 15 7;
#X connect 8 0 15 1;
#X connect 9 0 15 2;
#X connect 10 0 15 3;
#X connect 11 0 15 4;
#X connect 12 0 15 5;
#X connect 13 0 15 6;
#X connect 14 0 15 0;
#X connect 15 0 3 0;
#X connect 15 0 69 0;
#X connect 16 0 71 0;
#X connect 18 0 48 1;
#X connect 19 0 34 0;
#X connect 20 0 21 0;
#X connect 21 0 19 0;
#X connect 23 0 26 0;
#X connect 24 0 25 0;
#X connect 24 0 55 0;
#X connect 25 1 74 0;
#X connect 25 1 82 0;
#X connect 26 0 28 0;
#X connect 27 0 29 0;
#X connect 28 0 24 0;
#X connect 29 0 66 0;
#X connect 31 0 24 0;
#X connect 33 0 66 0;
#X connect 34 0 38 0;
#X connect 35 0 34 1;
#X connect 36 0 48 0;
#X connect 37 0 81 0;
#X connect 39 0 40 0;
#X connect 39 0 44 0;
#X connect 40 0 57 0;
#X connect 41 0 43 0;
#X connect 44 0 41 0;
#X connect 48 0 42 1;
#X connect 56 0 6 0;
#X connect 57 0 1 0;
#X connect 66 0 4 0;
#X connect 67 0 14 0;
#X connect 67 1 8 0;
#X connect 67 2 9 0;
#X connect 67 3 10 0;
#X connect 67 4 11 0;
#X connect 67 5 12 0;
#X connect 67 6 13 0;
#X connect 67 7 7 0;
#X connect 71 0 73 0;
#X connect 72 0 73 1;
#X connect 73 0 42 0;
#X connect 74 0 67 0;
#X connect 75 0 67 0;
#X connect 76 0 77 0;
#X connect 77 0 80 0;
#X connect 78 0 30 0;
#X connect 78 0 32 0;
#X connect 78 0 96 0;
#X connect 79 0 80 1;
#X connect 80 0 78 0;
#X connect 81 1 76 0;
#X connect 82 0 75 0;
#X connect 85 0 97 0;
#X connect 86 0 104 1;
#X connect 88 0 86 0;
#X connect 89 0 88 1;
#X connect 90 0 104 1;
#X connect 91 0 92 0;
#X connect 93 0 91 0;
#X connect 95 0 97 1;
#X connect 96 0 85 0;
#X connect 96 1 85 1;
#X connect 96 2 95 1;
#X connect 97 0 98 0;
#X connect 97 0 104 0;
#X connect 99 0 100 0;
#X connect 101 0 99 1;
#X connect 102 0 99 0;
#X connect 103 0 95 0;
#X connect 103 0 90 0;
#X connect 104 0 87 0;
#X connect 104 0 88 0;
#X connect 104 0 86 0;
