#N canvas 475 22 1321 818 10;
#X declare -path ../bin -path ../utils;
#X obj 49 -218 cnv 15 300 45 empty empty empty 20 12 0 14 -204786 -66577
0;
#X obj -232 176 cnv 15 235 35 empty empty empty 20 12 0 14 -204786
-66577 0;
#X text -442 -224 =====================;
#X obj 63 -113 timer;
#X obj 117 220 +;
#X obj 153 312 *~;
#X obj 114 108 list split;
#X obj 142 199 sum;
#X obj 104 -112 list;
#X obj 98 -140 t b l;
#X obj 43 -171 delay;
#X obj 43 -148 t b b;
#X obj 151 177 s newEvent;
#X msg 62 -195 stop;
#X obj 151 132 list split 1;
#X floatatom 157 154 7 0 0 0 - - -;
#X text 206 154 length of current chunk;
#X text 231 131 (elapsed time from previous onset detection);
#X msg -376 235 reset;
#X obj 144 57 listfind;
#X obj 162 -120 t l l;
#X floatatom 190 98 5 0 0 0 - - -;
#X obj -384 281 t l l;
#X text 227 98 current slice;
#X obj 144 81 f;
#X obj 117 266 trapenv 2;
#X obj -335 318 list_value;
#X obj -278 272 euclidist;
#X floatatom -270 296 5 0 0 0 - - -;
#N canvas 1328 313 232 228 store-mfcc 0;
#X obj 42 49 inlet;
#X obj 61 150 outlet;
#X obj 61 122 list;
#X obj 44 93 route bang;
#X obj 128 37 loadbang;
#X obj 128 60 delay 1000;
#X connect 0 0 3 0;
#X connect 2 0 1 0;
#X connect 3 0 2 0;
#X connect 3 1 2 1;
#X connect 4 0 5 0;
#X connect 5 0 3 0;
#X restore -227 247 pd store-mfcc;
#X obj -227 181 bng 15 250 50 0 empty empty empty 17 7 0 10 -262144
-1 -1;
#X text -329 337 [list_value] receives single values on the right inlet
and a list with onset times on its left inlet. The result is a new
list with the same indexes as the inter-onset times.;
#X obj -335 384 s euclidean_dist;
#X text -233 295 euclidean distance;
#X obj 162 -173 r euclidean_dist;
#X text 333 -23 Here we find the lowest value in the list of euclidean
distances (which represent similar sounds) and play that slice back
until a better match comes in. The result tends to produce loops that
change over time as the audio comes in and out the buffer.;
#X floatatom 189 77 5 0 0 0 - - -;
#X text 229 76 minimum distance;
#X text -208 194 mfcc to compare to.;
#X obj -384 258 list_iot 5000;
#X obj -291 245 spigot 0;
#X msg -246 221 1;
#X text -207 178 (2) press to take an instantaneous;
#X text 86 -215 (3) PRESS BANG TO START SLICING THE INPUT!;
#X text -440 -210 This example attempts simple classification of the
detected onsets. It takes the mfcc's of the onsets (2048 points) and
calculates their euclidean distance to a user selected mfcc list. These
distances are then stored in a list synched with the onset times \,
so that we can use them to play back slices that are similar to the
selected mfcc.;
#X obj -403 157 bng 15 250 50 0 empty empty empty 17 7 0 10 -262144
-1 -1;
#X msg 52 -216 bang;
#X obj 144 -95 minmax;
#X obj -421 484 cnv 15 160 50 empty empty empty 20 12 0 14 -261234
-66577 0;
#X obj -413 490 output~;
#X obj -440 439 xfade~;
#X text -345 493 (1) DSP on;
#X text -345 510 (2) Volume up;
#X obj -384 384 s iots;
#X obj 98 -161 r iots;
#X obj -444 -78 cnv 15 110 18 empty empty empty 20 12 0 14 -204786
-66577 0;
#X obj -440 -35 tabplay2~ sample;
#X obj -440 -77 tgl 15 0 empty empty empty 17 7 0 10 -262144 -1 -1
1 1;
#X msg -420 -56 loop \$1;
#X obj -420 -77 tgl 15 1 empty empty empty 17 7 0 10 -262144 -1 -1
1 1;
#X text -401 -78 (2) play!;
#X obj -441 -120 cnv 15 360 18 empty empty empty 20 12 0 14 -204800
-66577 0;
#N canvas 1302 254 383 143 init 0;
#X obj -31 39 loadbang;
#X obj -31 101 soundfiler;
#X obj -31 123 table sample 4410;
#X obj -32 17 declare -path ../bin -path ../utils;
#X msg -31 60 read -resize ./OrenAmbarchi-AudienceOfOne-Salt.wav sample
\; sample normalize;
#X connect 0 0 4 0;
#X connect 4 0 1 0;
#X restore -432 416 pd init;
#X obj 117 289 delread~ deline;
#X obj -424 -10 delwrite~ deline 5000;
#X text 242 175 <- for example 3keep this;
#X text -440 -232 3_simple-classification;
#X obj 43 -240 r newEvent;
#X text -419 -120 Audio: Oren Ambarchi - Audience of One (2012) - Salt
;
#N canvas 201 535 388 285 pre-filtering 0;
#X obj 24 -582 inlet;
#X obj 24 -352 outlet;
#X obj 24 -560 route list;
#X obj 197 -575 inlet;
#X obj 197 -554 route list;
#X obj 24 -539 route i.centroid;
#X obj 197 -532 route mfcc.mean;
#X obj 197 -508 timegate 200;
#X obj 24 -513 timegate 200;
#X obj 197 -484 outlet;
#X floatatom 130 -479 5 0 0 0 - - -;
#X obj 114 -353 s change;
#X obj 114 -436 > 900;
#X floatatom 60 -412 5 0 0 0 - - -;
#X obj 114 -393 sel 1;
#X obj 114 -414 change;
#X obj 114 -372 tgl 15 0 empty empty empty 17 7 0 10 -262144 -1 -1
1 1;
#X connect 0 0 2 0;
#X connect 2 0 5 0;
#X connect 3 0 4 0;
#X connect 4 0 6 0;
#X connect 5 0 8 0;
#X connect 6 0 7 0;
#X connect 7 0 9 0;
#X connect 8 0 1 0;
#X connect 8 0 10 0;
#X connect 8 0 12 0;
#X connect 12 0 13 0;
#X connect 12 0 15 0;
#X connect 14 0 16 0;
#X connect 15 0 14 0;
#X connect 16 0 11 0;
#X restore -384 107 pd pre-filtering;
#X msg -416 42 delayMode 200;
#X obj -416 19 loadbang;
#X obj -430 68 essentiaRT~ 11.5;
#X obj -291 221 t l l;
#X obj -359 153 timer;
#X floatatom -330 175 5 0 0 0 - - -;
#X obj -332 133 t b;
#X obj -359 133 t b;
#X obj -384 179 pipe 200;
#X obj 117 242 - 11.6;
#X obj 275 -161 r change;
#X obj 162 -143 lister;
#X obj 234 4 route;
#X floatatom 229 26 5 0 0 0 - - -;
#X floatatom 203 -79 5 0 0 0 - - -;
#X floatatom 109 -42 5 0 0 0 - - -;
#X obj 177 -44 prepend 1;
#X obj 144 -18 prepend 0;
#X obj 274 -140 t b b f;
#X floatatom 345 -144 5 0 0 0 - - -;
#X connect 3 0 4 0;
#X connect 4 0 79 0;
#X connect 5 0 50 1;
#X connect 6 1 7 0;
#X connect 6 1 14 0;
#X connect 7 0 4 1;
#X connect 8 0 6 0;
#X connect 9 0 3 0;
#X connect 9 1 8 1;
#X connect 10 0 11 0;
#X connect 11 0 3 1;
#X connect 11 1 8 0;
#X connect 13 0 10 0;
#X connect 14 0 12 0;
#X connect 14 0 15 0;
#X connect 18 0 39 0;
#X connect 19 0 24 0;
#X connect 20 0 47 0;
#X connect 20 1 19 1;
#X connect 22 0 53 0;
#X connect 22 1 26 0;
#X connect 24 0 6 1;
#X connect 24 0 21 0;
#X connect 25 0 63 0;
#X connect 25 1 5 1;
#X connect 26 0 32 0;
#X connect 27 0 28 0;
#X connect 27 0 26 1;
#X connect 29 0 27 1;
#X connect 30 0 29 0;
#X connect 30 0 41 0;
#X connect 34 0 81 0;
#X connect 39 0 22 0;
#X connect 40 0 27 0;
#X connect 41 0 40 1;
#X connect 46 0 10 0;
#X connect 47 0 85 0;
#X connect 47 0 87 0;
#X connect 47 0 19 0;
#X connect 47 1 84 0;
#X connect 47 1 86 0;
#X connect 50 0 49 0;
#X connect 50 1 49 1;
#X connect 54 0 9 0;
#X connect 56 0 50 0;
#X connect 56 0 64 0;
#X connect 56 0 72 0;
#X connect 57 0 56 0;
#X connect 58 0 56 0;
#X connect 59 0 58 0;
#X connect 63 0 5 0;
#X connect 67 0 10 0;
#X connect 69 0 45 0;
#X connect 69 0 77 0;
#X connect 69 0 78 0;
#X connect 69 1 73 0;
#X connect 69 1 76 0;
#X connect 70 0 72 0;
#X connect 71 0 70 0;
#X connect 72 1 69 0;
#X connect 72 2 69 1;
#X connect 73 0 40 0;
#X connect 73 1 29 0;
#X connect 74 0 75 0;
#X connect 74 0 78 1;
#X connect 76 0 74 1;
#X connect 77 0 74 0;
#X connect 78 0 39 0;
#X connect 79 0 25 0;
#X connect 80 0 88 0;
#X connect 80 0 89 0;
#X connect 81 0 20 0;
#X connect 82 0 83 0;
#X connect 86 0 82 0;
#X connect 87 0 82 0;
#X connect 88 2 82 1;
