#N canvas 577 22 956 747 10;
#X declare -path ../bin -path ../utils -path ../ibt_pd;
#X obj -224 -307 catch~ slices;
#X text -203 -457 ...assuming externals are in parent folder...;
#X msg -322 54 reset;
#N canvas 461 446 692 360 inputs 0;
#X msg -234 -262 station \$1;
#X floatatom -234 -283 5 0 7 0 - - -;
#X text -196 -284 pick a radio station (0-7);
#X obj -234 -238 radioin 0;
#X symbolatom -183 -215 40 0 0 0 - - -;
#X msg -234 -82 station \$1;
#X floatatom -234 -103 5 0 7 0 - - -;
#X text -196 -104 pick a radio station (0-7);
#X symbolatom -183 -35 40 0 0 0 - - -;
#X msg 116 -262 station \$1;
#X floatatom 116 -283 5 0 7 0 - - -;
#X text 154 -284 pick a radio station (0-7);
#X symbolatom 167 -215 40 0 0 0 - - -;
#X msg 116 -82 station \$1;
#X floatatom 116 -103 5 0 7 0 - - -;
#X text 154 -104 pick a radio station (0-7);
#X symbolatom 167 -35 40 0 0 0 - - -;
#X obj 116 -156 s~ input2;
#X obj 116 24 s~ input4;
#X obj -234 24 s~ input3;
#X obj -234 -156 s~ input1;
#X obj -224 -180 delwrite~ deline1 10000;
#X obj -224 0 delwrite~ deline3 10000;
#X obj 126 0 delwrite~ deline4 10000;
#X obj 126 -180 delwrite~ deline2 10000;
#X obj 116 -238 radioin 2;
#X obj 116 -58 radioin 6;
#X obj -234 -58 radioin 5;
#X connect 0 0 3 0;
#X connect 1 0 0 0;
#X connect 3 0 20 0;
#X connect 3 0 21 0;
#X connect 3 2 4 0;
#X connect 5 0 27 0;
#X connect 6 0 5 0;
#X connect 9 0 25 0;
#X connect 10 0 9 0;
#X connect 13 0 26 0;
#X connect 14 0 13 0;
#X connect 25 0 17 0;
#X connect 25 0 24 0;
#X connect 25 2 12 0;
#X connect 26 0 18 0;
#X connect 26 0 23 0;
#X connect 26 2 16 0;
#X connect 27 0 19 0;
#X connect 27 0 22 0;
#X connect 27 2 8 0;
#X restore -337 -468 pd inputs;
#N canvas 430 274 281 364 direct_outs 0;
#X obj 9 29 r~ input1;
#X obj 25 241 line~;
#X obj 10 264 *~;
#X obj 24 73 vsl 15 100 0 1 0 0 empty empty empty 0 -9 0 10 -262144
-1 -1 990 1;
#X obj 25 193 *;
#X msg 25 218 \$1 20;
#X obj 92 241 line~;
#X obj 77 264 *~;
#X obj 54 73 vsl 15 100 0 1 0 0 empty empty empty 0 -9 0 10 -262144
-1 -1 990 1;
#X obj 92 193 *;
#X msg 92 218 \$1 20;
#X obj 152 241 line~;
#X obj 137 264 *~;
#X obj 86 73 vsl 15 100 0 1 0 0 empty empty empty 0 -9 0 10 -262144
-1 -1 990 1;
#X obj 152 193 *;
#X msg 152 218 \$1 20;
#X obj 212 241 line~;
#X obj 197 264 *~;
#X obj 116 73 vsl 15 100 0 1 0 0 empty empty empty 0 -9 0 10 -262144
-1 -1 990 1;
#X obj 212 193 *;
#X msg 212 218 \$1 20;
#X obj 196 29 r~ input4;
#X obj 136 29 r~ input3;
#X obj 76 29 r~ input2;
#X obj 101 310 +~;
#X obj 101 331 outlet~;
#X text 27 71 1;
#X text 59 71 2;
#X text 89 71 3;
#X text 118 71 4;
#X msg 217 101 0.1;
#X obj 217 78 loadbang;
#X connect 0 0 2 0;
#X connect 1 0 2 1;
#X connect 2 0 24 0;
#X connect 3 0 4 1;
#X connect 3 0 4 0;
#X connect 4 0 5 0;
#X connect 5 0 1 0;
#X connect 6 0 7 1;
#X connect 7 0 24 0;
#X connect 8 0 9 1;
#X connect 8 0 9 0;
#X connect 9 0 10 0;
#X connect 10 0 6 0;
#X connect 11 0 12 1;
#X connect 12 0 24 0;
#X connect 13 0 14 1;
#X connect 13 0 14 0;
#X connect 14 0 15 0;
#X connect 15 0 11 0;
#X connect 16 0 17 1;
#X connect 17 0 24 0;
#X connect 18 0 19 1;
#X connect 18 0 19 0;
#X connect 19 0 20 0;
#X connect 20 0 16 0;
#X connect 21 0 17 0;
#X connect 22 0 12 0;
#X connect 23 0 7 0;
#X connect 24 0 25 0;
#X connect 30 0 18 0;
#X connect 30 0 13 0;
#X connect 30 0 8 0;
#X connect 30 0 3 0;
#X connect 31 0 30 0;
#X coords 0 -1 1 1 120 130 1 20 50;
#X restore -337 -445 pd direct_outs;
#X obj -280 -111 route list;
#X floatatom -271 -69 5 0 0 0 - - -;
#X text -236 -69 strength;
#X obj -148 -112 route list;
#X floatatom -138 -70 5 0 0 0 - - -;
#X text -103 -70 strength;
#X obj -178 141 list_value;
#X obj -148 -25 t b b;
#X obj -280 -29 t b b;
#X obj -178 226 s input_id;
#X obj -320 -155 r~ input1;
#X obj -188 -156 r~ input2;
#X obj -280 111 t l l;
#X msg -253 -7 0;
#X msg -121 -3 1;
#X obj -17 -112 route list;
#X floatatom -7 -70 5 0 0 0 - - -;
#X text 28 -70 strength;
#X obj -17 -27 t b b;
#X obj -57 -156 r~ input3;
#X obj 114 -111 route list;
#X floatatom 124 -69 5 0 0 0 - - -;
#X text 159 -69 strength;
#X obj 114 -20 t b b;
#X obj 74 -155 r~ input4;
#X msg 10 -5 2;
#X msg 141 2 3;
#X obj -280 87 list_iot 10000;
#X obj -320 -133 essentiaRT~ 10;
#X obj -188 -134 essentiaRT~ 10;
#X obj -57 -134 essentiaRT~ 10;
#X obj 74 -133 essentiaRT~ 10;
#X obj -162 184 spigot;
#X obj -129 163 tgl 15 0 empty empty empty 17 7 0 10 -262144 -1 -1
0 1;
#X obj -162 206 print SOURCES;
#X obj -310 -235 cnv 15 160 50 empty empty empty 20 12 0 14 -261234
-66577 0;
#X obj -305 -228 output~;
#X obj -337 -284 xfade~;
#X text -237 -225 (1) DSP on;
#X obj -280 -50 timegate 1000;
#X obj -148 -47 timegate 1000;
#X obj -17 -47 timegate 1000;
#X obj 114 -46 timegate 1000;
#X text -232 -208 & Volume Up;
#X text -204 -413 4_multiple_inputs_random;
#X text -206 -405 =========================;
#X obj -280 170 s iots;
#X obj -108 139 cnv 15 370 45 empty empty empty 20 12 0 14 -261682
-66577 0;
#X text -106 139 we add an identifier for each input source and we
store all the onset reports on the same [list_iot] object. In this
way we can later switch between the different sources.;
#X obj 348 -156 cnv 15 200 165 empty empty empty 20 12 0 14 -261682
-66577 0;
#X obj 267 -189 timer;
#X obj 298 46 +;
#X obj 295 -42 list split;
#X obj 323 25 sum;
#X obj 315 -188 list;
#X obj 319 -216 t b l;
#X obj 191 -357 delay;
#X obj 259 -236 t b b;
#X obj 332 3 s newEvent;
#X obj 191 -380 r newEvent;
#X obj 332 -19 list split 1;
#X obj 298 68 trapenv 2;
#X obj 315 -166 t l b l;
#X obj 385 -149 length;
#X obj 352 -128 random;
#X obj 392 -85 r input_id;
#X obj 423 -37 packel;
#X obj 466 -90 + 1;
#X obj 371 -63 list;
#X obj 373 243 throw~ slices;
#X floatatom 433 -14 5 0 0 0 - - -;
#X obj 373 85 demux~ 1 2 3 4;
#X obj 427 188 *~;
#X obj 442 162 delread~ deline3;
#X obj 454 210 *~;
#X obj 469 188 delread~ deline4;
#X obj 373 138 *~;
#X obj 400 160 *~;
#X obj 352 -107 t f b f;
#X obj 268 -378 ibt_pd;
#X text 311 -379 <- bpm estimation;
#X floatatom 301 -357 5 0 0 0 - - -;
#X obj 268 -400 r~ input1;
#X msg 268 -421 set input\$1;
#X obj 268 -336 prepend 1;
#X obj 191 -335 prepend 0;
#X obj 259 -278 route;
#X obj 388 115 delread~ deline1;
#X obj 415 138 delread~ deline2;
#X obj 236 -261 bng 15 250 50 0 empty empty empty 17 7 0 10 -262144
-1 -1;
#X text 469 -14 source;
#X obj 319 -237 r iots;
#X obj 296 -279 sel 0;
#X obj 296 -258 s newEvent;
#X obj 282 -313 cnv 15 320 30 empty empty empty 20 12 0 14 -204786
-66577 0;
#X obj 286 -304 tgl 15 0 empty empty empty 17 7 0 10 -262144 -1 -1
0 1;
#X text 304 -312 trigger slices according to length of events (0);
#X text 304 -298 or to tempo of one of the sources (1);
#X obj 265 -447 cnv 15 340 22 empty empty empty 20 12 0 14 -204786
-66577 0;
#X floatatom 268 -442 5 1 4 0 - - -;
#X text 307 -444 synch tempo of the mashup to one of the 4 sources
;
#X text 400 -128 random voice allocation;
#X text 390 63 demultiplex to the four delreads;
#X text -204 -391 This example takes four different streams of audio
and stores their respective onsets into a single list. At the same
time \, we also store "source identifiers" so they can be classified
together \, identified \, and retrieved indepentently.;
#X obj -203 -436 declare -path ../bin -path ../utils -path ../ibt_pd
;
#X obj -280 -90 route i.strength;
#X obj -148 -91 route i.strength;
#X obj -17 -91 route i.strength;
#X obj 114 -90 route i.strength;
#X connect 0 0 42 1;
#X connect 2 0 32 0;
#X connect 4 0 42 0;
#X connect 5 0 110 0;
#X connect 8 0 111 0;
#X connect 11 0 14 0;
#X connect 11 0 37 0;
#X connect 12 0 32 0;
#X connect 12 1 19 0;
#X connect 13 0 32 0;
#X connect 13 1 18 0;
#X connect 15 0 33 0;
#X connect 16 0 34 0;
#X connect 17 0 51 0;
#X connect 17 1 11 0;
#X connect 18 0 11 1;
#X connect 19 0 11 1;
#X connect 20 0 112 0;
#X connect 23 0 32 0;
#X connect 23 1 30 0;
#X connect 24 0 35 0;
#X connect 25 0 113 0;
#X connect 28 0 32 0;
#X connect 28 1 31 0;
#X connect 29 0 36 0;
#X connect 30 0 11 1;
#X connect 31 0 11 1;
#X connect 32 0 17 0;
#X connect 33 1 5 0;
#X connect 34 1 8 0;
#X connect 35 1 20 0;
#X connect 36 1 25 0;
#X connect 37 0 39 0;
#X connect 38 0 37 1;
#X connect 42 0 41 0;
#X connect 42 0 41 1;
#X connect 42 1 41 1;
#X connect 42 1 41 0;
#X connect 44 0 13 0;
#X connect 45 0 12 0;
#X connect 46 0 23 0;
#X connect 47 0 28 0;
#X connect 55 0 56 0;
#X connect 56 0 66 0;
#X connect 57 1 58 0;
#X connect 57 1 65 0;
#X connect 58 0 56 1;
#X connect 59 0 67 0;
#X connect 60 0 55 0;
#X connect 60 1 59 1;
#X connect 61 0 90 0;
#X connect 62 0 55 1;
#X connect 62 1 59 0;
#X connect 64 0 61 0;
#X connect 65 0 63 0;
#X connect 66 0 78 0;
#X connect 66 0 80 0;
#X connect 66 0 92 0;
#X connect 66 0 93 0;
#X connect 66 1 76 0;
#X connect 67 0 57 0;
#X connect 67 1 69 0;
#X connect 67 2 68 0;
#X connect 68 0 69 1;
#X connect 69 0 83 0;
#X connect 70 0 73 1;
#X connect 71 0 75 0;
#X connect 71 0 76 0;
#X connect 72 0 71 1;
#X connect 73 0 71 0;
#X connect 76 0 81 0;
#X connect 76 1 82 0;
#X connect 76 2 77 0;
#X connect 76 3 79 0;
#X connect 77 0 74 0;
#X connect 78 0 77 1;
#X connect 79 0 74 0;
#X connect 80 0 79 1;
#X connect 81 0 74 0;
#X connect 82 0 74 0;
#X connect 83 0 57 1;
#X connect 83 1 73 0;
#X connect 83 2 72 0;
#X connect 84 0 89 0;
#X connect 84 1 86 0;
#X connect 87 0 84 0;
#X connect 88 0 87 0;
#X connect 89 0 91 0;
#X connect 90 0 91 0;
#X connect 91 0 62 0;
#X connect 91 0 94 0;
#X connect 92 0 81 1;
#X connect 93 0 82 1;
#X connect 96 0 60 0;
#X connect 97 0 98 0;
#X connect 100 0 91 1;
#X connect 100 0 97 0;
#X connect 104 0 88 0;
#X connect 110 0 6 0;
#X connect 110 0 44 0;
#X connect 111 0 9 0;
#X connect 111 0 45 0;
#X connect 112 0 21 0;
#X connect 112 0 46 0;
#X connect 113 0 26 0;
#X connect 113 0 47 0;
