#N canvas 444 36 1079 855 10;
#X obj 384 212 print;
#X obj 53 153 output~;
#X floatatom 45 312 0 0 0 0 - - -;
#X obj 45 332 * 128;
#X obj 43 359 vsl 15 128 0 127 0 0 empty empty empty 0 -8 0 8 -262144
-1 -1 0 1;
#X text 56 297 float output (between 0 and 1 for audio signals);
#X obj 351 356 env~ 16384 8192;
#X obj 184 282 Scope~ 130 130 256 3 64 0 2 0 0 0 0 102 255 51 135 135
135 0;
#X msg 369 407 bufsize \$1;
#X floatatom 368 385 5 0 0 0 - - -;
#X msg 379 434 range 0 2;
#X obj 311 84 phasor~ 40;
#X obj 184 408 Scope~ 130 130 256 3 64 0 2 0 0 0 0 102 255 51 135 135
135 0;
#X obj 340 177 superFlux~;
#X obj 167 64 tabplay~ ar;
#N canvas 0 22 450 278 (subpatch) 0;
#X array ar 1.12103e+07 float 2;
#X coords 0 1 1.12103e+07 -1 200 140 1 0 0;
#X restore 682 157 graph;
#X obj 579 88 soundfiler;
#X obj 568 29 openpanel;
#X msg 575 55 read -resize \$1 ar;
#X obj 168 34 bng 15 250 50 0 empty empty empty 17 7 0 10 -262144 -1
-1;
#X msg 202 25 stop;
#X obj 199 156 *~ 1;
#X obj 526 9 bng 15 250 50 0 empty empty empty 17 7 0 10 -262144 -1
-1;
#X floatatom 237 128 5 0 0 0 - - -;
#X obj 502 152 t b;
#X connect 2 0 3 0;
#X connect 3 0 4 0;
#X connect 6 0 4 0;
#X connect 8 0 7 0;
#X connect 8 0 12 0;
#X connect 9 0 8 0;
#X connect 10 0 7 0;
#X connect 10 0 12 0;
#X connect 13 0 12 0;
#X connect 13 1 0 0;
#X connect 14 0 21 0;
#X connect 14 1 19 0;
#X connect 16 0 24 0;
#X connect 17 0 18 0;
#X connect 18 0 16 0;
#X connect 19 0 14 0;
#X connect 20 0 14 0;
#X connect 21 0 7 0;
#X connect 21 0 13 0;
#X connect 21 0 1 1;
#X connect 22 0 17 0;
#X connect 23 0 21 1;
#X connect 24 0 19 0;
