#N canvas 179 190 374 484 10;
#X declare -path ../essentiaRT~ -path ../utils;
#X declare -lib mrpeach;
#X obj -181 100 udpsend;
#X obj -218 -107 essentiaRT~ 5;
#X text -218 -271 ...assuming externals are in parent folder...;
#X obj -217 -250 declare -path ../essentiaRT~ -path ../utils;
#X obj -181 34 packOSC;
#X obj -217 -225 import mrpeach;
#X text -125 -227 provides improved OSC management;
#X obj -181 -37 prepend send;
#X msg -77 44 connect localhost 5555;
#X floatatom -181 124 1 0 0 0 - - -;
#X obj -136 -11 tgl 15 1 empty empty empty 17 7 0 10 -262144 -1 -1
0 1;
#X obj -121 -79 addslash;
#X obj -181 -79 addslash;
#N canvas 322 187 151 169 test-signal 0;
#X obj -49 48 osc~;
#X obj -49 -17 random 20;
#X obj -49 26 mtof;
#X obj -49 -68 loadbang;
#X obj -49 4 + 50;
#X obj -49 70 outlet~;
#X obj -49 -38 metro 500;
#X msg 18 -42 \; pd dsp 1;
#X connect 0 0 5 0;
#X connect 1 0 4 0;
#X connect 2 0 0 0;
#X connect 3 0 6 0;
#X connect 3 0 7 0;
#X connect 4 0 2 0;
#X connect 6 0 1 0;
#X restore -218 -131 pd test-signal;
#X msg -76 68 disconnect;
#X text -69 20 connect to port 5555;
#X text -61 -80 OSC formatting;
#X obj -91 142 unpackOSC;
#X obj -91 117 udpreceive 5555;
#X obj -91 165 PRINT;
#X text -218 -195 This patch illustrates how to send [essentiaRT~]
analysis via OSC. The analysis data could be used by any external application
or device supporting Open Sound Control. <http://opensoundcontrol.org/introduction-osc>.
;
#X obj -181 10 spigot 0;
#X text -111 -12 open the gate to send data;
#X connect 0 0 9 0;
#X connect 1 1 12 0;
#X connect 1 2 11 0;
#X connect 4 0 0 0;
#X connect 7 0 21 0;
#X connect 8 0 0 0;
#X connect 10 0 21 1;
#X connect 11 0 7 0;
#X connect 12 0 7 0;
#X connect 13 0 1 0;
#X connect 14 0 0 0;
#X connect 17 0 19 0;
#X connect 18 0 17 0;
#X connect 21 0 4 0;
