#N canvas 282 196 979 646 10;
#X declare -path ../essentiaRT~ -path ../utils;
#X obj -442 -8 cnv 15 220 22 empty empty empty 20 12 0 14 -204786 -66577
0;
#X obj -4 -15 cnv 15 300 45 empty empty empty 20 12 0 14 -204786 -66577
0;
#X obj -246 174 cnv 15 235 35 empty empty empty 20 12 0 14 -204786
-66577 0;
#X obj -393 130 route list;
#X text -11 -98 ...assuming externals are in parent folder...;
#X msg -440 20 station \$1;
#X floatatom -440 -5 5 0 7 0 - - -;
#X obj -440 43 radioin;
#X text -439 -115 =====================;
#X obj 13 92 timer;
#X obj 67 305 +;
#X obj 96 395 throw~ slices;
#X obj 67 350 delread~ \$0-deline;
#X obj 96 373 *~;
#X obj 64 193 list split;
#X obj 92 284 sum;
#X obj 54 93 list;
#X obj 48 65 t b l;
#X obj -7 34 delay;
#X obj -7 57 t b b;
#X obj 101 262 s newEvent;
#X msg 12 10 stop;
#X obj -7 -36 r newEvent;
#X obj 101 217 list split 1;
#X floatatom 107 239 7 0 0 0 - - -;
#X text 156 239 length of current chunk;
#X text 181 216 (elapsed time from previous onset detection);
#X obj -9 -75 declare -path ../essentiaRT~ -path ../utils;
#X msg -385 226 reset;
#X obj 94 142 listfind;
#X obj 90 89 t l l;
#X floatatom 140 183 5 0 0 0 - - -;
#X obj -393 272 t l l;
#X text 177 183 current slice;
#X obj 94 166 f;
#X obj 67 327 trapenv 2;
#X obj -349 309 list_value;
#X obj -393 151 route inst.mfcc;
#X obj -292 263 euclidist;
#X floatatom -284 287 5 0 0 0 - - -;
#N canvas 1328 313 232 228 store-mfcc 0;
#X obj 42 49 inlet;
#X obj 61 150 outlet;
#X obj 61 122 list;
#X obj 44 93 route bang;
#X obj 128 37 loadbang;
#X obj 128 60 delay 1000;
#X connect 0 0 3 0;
#X connect 2 0 1 0;
#X connect 3 0 2 0;
#X connect 3 1 2 1;
#X connect 4 0 5 0;
#X connect 5 0 3 0;
#X restore -241 238 pd store-mfcc;
#X obj -241 179 bng 15 250 50 0 empty empty empty 17 7 0 10 -262144
-1 -1;
#X text -343 328 [list_value] receives single values on the right inlet
and a list with onset times on its left inlet. The result is a new
list with the same indexes as the inter-onset times.;
#X obj -349 375 s euclidean_dist;
#X text -292 150 <- we take the mfcc's on the onsets;
#X text -247 286 euclidean distance;
#X obj 90 67 r euclidean_dist;
#X text 152 88 Here we find the lowest value in the list of euclidean
distances (which represent similar sounds) and play that slice back
until a better match comes in. The result tends to produce loops that
change over time as the audio comes in and out the buffer.;
#X floatatom 139 162 5 0 0 0 - - -;
#X text 179 161 minimum distance;
#X text -222 192 mfcc to compare to.;
#X obj -430 108 essentiaRT~ 5;
#X obj -393 249 list_iot 5000;
#X obj -305 236 spigot 0;
#X msg -260 202 1;
#X text -405 -5 (1) pick a radio station (0-7);
#X text -221 176 (2) press to take an instantaneous;
#X text 36 -10 (3) PRESS BANG TO START SLICING THE INPUT!;
#X text -437 -101 This example attempts simple classification of the
detected onsets. It takes the mfcc's of the onsets (2048 points) and
calculates their euclidean distance to a user selected mfcc list. These
distances are then stored in a list synched with the onset times \,
so that we can use them to play back slices that are similar to the
selected mfcc.;
#X obj -413 189 bng 15 250 50 0 empty empty empty 17 7 0 10 -262144
-1 -1;
#X obj -393 172 timegate 100;
#X obj -401 63 print STATION;
#X obj -422 85 delwrite~ \$0-deline 5000;
#X obj -393 194 t b l l;
#X msg 2 -11 bang;
#X obj 81 114 minmax;
#X obj -327 398 catch~ slices;
#X obj -421 464 cnv 15 160 50 empty empty empty 20 12 0 14 -261234
-66577 0;
#X obj -413 470 output~;
#X obj -440 419 xfade~;
#X text -345 473 (1) DSP on;
#X text -345 490 (2) Volume up;
#X obj -393 375 s iots;
#X text -437 -123 4_simple-classification;
#X obj 48 44 r iots;
#X connect 3 0 37 0;
#X connect 5 0 7 0;
#X connect 6 0 5 0;
#X connect 7 0 62 0;
#X connect 7 0 51 0;
#X connect 7 0 69 0;
#X connect 7 2 61 0;
#X connect 9 0 10 0;
#X connect 10 0 35 0;
#X connect 12 0 13 0;
#X connect 13 0 11 0;
#X connect 14 1 15 0;
#X connect 14 1 23 0;
#X connect 15 0 10 1;
#X connect 16 0 14 0;
#X connect 17 0 9 0;
#X connect 17 1 16 1;
#X connect 18 0 19 0;
#X connect 19 0 9 1;
#X connect 19 1 16 0;
#X connect 21 0 18 0;
#X connect 22 0 18 0;
#X connect 23 0 20 0;
#X connect 23 0 24 0;
#X connect 28 0 52 0;
#X connect 29 0 34 0;
#X connect 30 0 65 0;
#X connect 30 1 29 1;
#X connect 32 0 72 0;
#X connect 32 1 36 0;
#X connect 34 0 14 1;
#X connect 34 0 31 0;
#X connect 35 0 12 0;
#X connect 35 1 13 1;
#X connect 36 0 43 0;
#X connect 37 0 60 0;
#X connect 38 0 39 0;
#X connect 38 0 36 1;
#X connect 40 0 38 1;
#X connect 41 0 40 0;
#X connect 41 0 54 0;
#X connect 46 0 30 0;
#X connect 51 1 3 0;
#X connect 52 0 32 0;
#X connect 53 0 38 0;
#X connect 54 0 53 1;
#X connect 60 0 59 0;
#X connect 60 0 63 0;
#X connect 63 0 52 0;
#X connect 63 1 53 0;
#X connect 63 2 40 0;
#X connect 64 0 18 0;
#X connect 65 0 29 0;
#X connect 65 0 48 0;
#X connect 66 0 69 1;
#X connect 69 0 68 0;
#X connect 69 0 68 1;
#X connect 69 1 68 1;
#X connect 69 1 68 0;
#X connect 74 0 17 0;
