#N canvas 549 49 976 697 10;
#X declare -path ../essentiaRT~ -path ../utils;
#X obj -326 154 cnv 15 190 45 empty empty empty 20 12 0 14 -204786
-66577 0;
#X obj 100 165 cnv 15 300 20 empty empty empty 20 12 0 14 -204786 -66577
0;
#X obj -105 318 cnv 15 100 50 empty empty empty 20 12 0 14 -204786
-66577 0;
#X obj -93 455 cnv 15 235 35 empty empty empty 20 12 0 14 -204786 -66577
0;
#X obj -113 146 cnv 15 120 45 empty empty empty 20 12 0 14 -204786
-66577 0;
#X obj -98 324 output~;
#X obj -283 412 route list;
#X text 94 30 ...assuming externals are in parent folder...;
#X obj 94 57 loadbang;
#X msg -320 203 station \$1;
#X floatatom -320 178 5 0 7 0 - - -;
#X obj -281 285 print STATION;
#X obj -320 226 radioin;
#X obj -103 169 hsl 100 15 0 1 0 1 empty init_volume empty -2 -8 0
10 -262144 -1 -1 4950 1;
#X obj -66 275 line~;
#X obj -106 275 line~;
#X obj -40 299 *~;
#X obj -121 296 *~;
#X obj -106 195 - 1;
#X obj -106 215 abs;
#X obj -106 235 sqrt;
#X msg -106 255 \$1 20;
#X obj -66 195 sqrt;
#X text -325 15 =====================;
#X obj -303 521 bng 15 250 50 0 empty empty empty 17 7 0 10 -262144
-1 -1;
#X msg -66 255 \$1 20;
#X obj -284 668 s onset_times;
#X obj 154 224 r onset_times;
#X obj 114 272 timer;
#X obj 182 501 +;
#X obj 211 591 throw~ slices;
#X obj 182 546 delread~ \$0-deline;
#X obj 211 569 *~;
#X obj 179 373 list split;
#X obj 207 480 sum;
#X obj 160 273 list;
#X obj 154 245 t b l;
#X obj 94 214 delay;
#X obj 94 237 t b b;
#X obj 216 458 s newEvent;
#X msg 113 190 stop;
#X msg 103 169 bang;
#X obj 94 144 r newEvent;
#X obj 216 397 list split 1;
#X floatatom 222 419 7 0 0 0 - - -;
#X text 271 419 length of current chunk;
#X text 221 438 (elapsed time from previous onset detection);
#X obj 95 14 declare -path ../essentiaRT~ -path ../utils;
#X msg -275 528 reset;
#X obj 196 294 minmax;
#X obj 209 322 listfind;
#X obj 205 269 t l l;
#X floatatom 255 363 5 0 0 0 - - -;
#X obj -284 574 t l l;
#X text 292 363 current slice;
#X obj 209 346 f;
#X obj 182 523 trapenv 2;
#X obj -196 602 list_value;
#X text -323 7 4.simple-classification;
#X obj -283 433 route inst.mfcc;
#X obj -139 515 euclidist;
#X floatatom -131 539 5 0 0 0 - - -;
#N canvas 1328 313 232 228 store-mfcc 0;
#X obj 42 49 inlet;
#X obj 61 150 outlet;
#X obj 61 122 list;
#X obj 44 93 route bang;
#X obj 128 37 loadbang;
#X obj 128 60 delay 1000;
#X connect 0 0 3 0;
#X connect 2 0 1 0;
#X connect 3 0 2 0;
#X connect 3 1 2 1;
#X connect 4 0 5 0;
#X connect 5 0 3 0;
#X restore -88 494 pd store-mfcc;
#X obj -88 460 bng 15 250 50 0 empty empty empty 17 7 0 10 -262144
-1 -1;
#X obj -283 468 t l l;
#X obj -25 278 catch~ slices;
#X text -190 621 [list_value] receives single values on the right inlet
and a list with onset times on its left inlet. The result is a new
list with the same indexes as the inter-onset times.;
#X obj -196 668 s euclidean_dist;
#X text -323 126 ============================ I/O ===========================
;
#X text -308 367 ====================== essentiaRT~ =========================
;
#X text -181 431 <- we take the mfcc's on the onsets;
#X text -94 538 euclidean distance;
#X text 90 126 ===================== CLASSIFICATION =======================
;
#X obj 205 247 r euclidean_dist;
#X text 268 266 Here we find the lowest value in the list of euclidean
distances (which represent similar sounds) and play that slice back
until a better match comes in. The result tends to produce loops that
change over time as the audio comes in and out the buffer.;
#X floatatom 254 342 5 0 0 0 - - -;
#X text 294 341 minimum distance;
#X text -69 473 mfcc to compare to.;
#X text -324 155 (2) pick a radio station (0-7);
#X text -68 457 (3) press to take an instantaneous;
#X text 137 167 (4) PRESS BANG TO START SLICING THE INPUT!;
#X text -30 339 (1);
#X text -96 148 (5) compare!;
#X text -323 29 This example attempts simple classification of the
detected onsets. It takes the mfcc's of the detected onsets and calculates
their euclidean distance to a user selected sample. Then stores the
values in a list synched with the onset times \, which are used to
play back slices that are similar to the selected mfcc.;
#X msg 94 80 \; pd dsp 1 \; init_volume 0.5;
#X obj -283 504 filtevent 100;
#X obj -320 390 essentiaRT~ 5;
#X obj -312 305 delwrite~ \$0-deline 5000;
#X obj -283 551 list_iot 5000;
#X connect 6 0 59 0;
#X connect 8 0 84 0;
#X connect 9 0 12 0;
#X connect 10 0 9 0;
#X connect 12 0 17 0;
#X connect 12 0 86 0;
#X connect 12 0 87 0;
#X connect 12 2 11 0;
#X connect 13 0 18 0;
#X connect 13 0 22 0;
#X connect 14 0 16 0;
#X connect 15 0 17 1;
#X connect 16 0 5 1;
#X connect 17 0 5 0;
#X connect 18 0 19 0;
#X connect 19 0 20 0;
#X connect 20 0 21 0;
#X connect 21 0 15 0;
#X connect 22 0 25 0;
#X connect 25 0 14 0;
#X connect 27 0 36 0;
#X connect 28 0 29 0;
#X connect 29 0 56 0;
#X connect 31 0 32 0;
#X connect 32 0 30 0;
#X connect 33 1 34 0;
#X connect 33 1 43 0;
#X connect 34 0 29 1;
#X connect 35 0 33 0;
#X connect 36 0 28 0;
#X connect 36 1 35 1;
#X connect 37 0 38 0;
#X connect 38 0 28 1;
#X connect 38 1 35 0;
#X connect 40 0 37 0;
#X connect 41 0 37 0;
#X connect 42 0 37 0;
#X connect 43 0 39 0;
#X connect 43 0 44 0;
#X connect 48 0 88 0;
#X connect 49 0 50 0;
#X connect 49 0 75 0;
#X connect 50 0 55 0;
#X connect 51 0 49 0;
#X connect 51 1 50 1;
#X connect 53 0 26 0;
#X connect 53 1 57 0;
#X connect 55 0 33 1;
#X connect 55 0 52 0;
#X connect 56 0 31 0;
#X connect 56 1 32 1;
#X connect 57 0 67 0;
#X connect 59 0 62 0;
#X connect 59 0 64 0;
#X connect 60 0 61 0;
#X connect 60 0 57 1;
#X connect 62 0 60 1;
#X connect 63 0 62 0;
#X connect 64 0 85 0;
#X connect 64 1 60 0;
#X connect 65 0 16 1;
#X connect 73 0 51 0;
#X connect 85 0 24 0;
#X connect 85 0 88 0;
#X connect 86 1 6 0;
#X connect 88 0 53 0;
