#N canvas 213 22 1626 845 10;
#X declare -path ../essentiaRT~ -path ../utils -path ../ibt_pd;
#X obj -58 -94 bng 15 250 50 0 empty empty empty 17 7 0 10 -262144
-1 -1;
#X obj -283 3 output~;
#X obj 21 -198 route list;
#X obj -39 -118 sel 1;
#X floatatom -24 -177 5 0 0 0 - init_threshold -;
#X obj -39 -140 > 1;
#X obj -200 -55 catch~ slices;
#X text -337 -454 ...assuming externals are in parent folder...;
#X text -20 -317 ONSET DETECTION;
#X floatatom 135 -153 5 0 0 0 - - -;
#X obj 40 -470 loadbang;
#X obj 21 -220 spigot 1;
#X obj 76 -245 tgl 15 1 empty empty empty 17 7 0 10 -262144 -1 -1 1
1;
#X text 97 -247 output onsets;
#X floatatom 36 -117 5 0 0 0 - init_filterevents -;
#X obj -278 -169 hsl 100 15 0 1 0 1 empty init_volume empty -2 -8 0
10 -262144 -1 -1 5100 1;
#X obj -241 -56 line~;
#X obj -281 -56 line~;
#X obj -215 -32 *~;
#X obj -296 -34 *~;
#X obj -281 -143 - 1;
#X obj -281 -122 abs;
#X obj -281 -100 sqrt;
#X msg -281 -78 \$1 20;
#X obj -241 -143 sqrt;
#X text -340 -422 =====================;
#X obj -58 -74 bng 15 250 50 0 empty empty empty 17 7 0 10 -262144
-1 -1;
#X msg -241 -78 \$1 20;
#X obj -39 76 s onset_times;
#X obj 769 -219 r onset_times;
#X obj 719 -171 timer;
#X obj 760 86 +;
#X obj 790 252 throw~ slices;
#X obj 760 131 delread~ \$0-deline;
#X obj 789 154 *~;
#X obj 767 42 list split;
#X obj 795 65 sum;
#X obj 775 -170 list;
#X obj 769 -198 t b l;
#X text -20 -309 ================================;
#X msg -33 -71 reset;
#X floatatom 43 -69 5 0 0 0 - init_buffer_size -;
#X obj 90 70 spigot 0;
#X obj 135 53 tgl 15 0 empty empty empty 17 7 0 10 -262144 -1 -1 0
1;
#X text -338 -408 This example attempts some simple classification
on the detected onsets. It stores the onset strenghts in a list synched
with the onset times \, so we can tweak the playback with the classifier
values. In this example \, only the strongest onset of the list is
played-back.;
#X obj 272 -202 route list;
#X floatatom 299 -117 5 0 0 0 - - -;
#X obj 225 93 spigot 0;
#X obj 270 76 tgl 15 0 empty empty empty 17 7 0 10 -262144 -1 -1 0
1;
#X obj 225 114 print ONSET-PITCHED;
#X obj 216 139 s onset_pitched;
#X text -338 -430 essentiaRT~ example-5;
#X text 700 -407 =====================;
#X text 700 -415 ONSET RETRIEVAL;
#X obj 703 -205 t b b;
#X obj 703 -265 ibt_pd;
#X text 746 -266 <- bpm estimation;
#X floatatom 927 -133 5 0 0 0 - - -;
#X obj 824 -15 packel 1;
#X obj 869 -37 + 1;
#X obj 842 -83 t l b;
#X obj 878 131 packel 1;
#X obj 878 108 list;
#X obj 824 8 t f b f;
#X obj 923 58 + 1;
#X obj 869 -60 random 3;
#X text 962 -133 pick a slice from the n most "pitched" slices;
#X text 336 -117 'pitchiness';
#X obj 703 -243 bng 15 250 50 0 empty empty empty 17 7 0 10 -262144
-1 -1;
#X floatatom 736 -244 5 0 0 0 - - -;
#X obj -335 -470 declare -path ../essentiaRT~ -path ../utils -path
../ibt_pd;
#X obj 21 -177 route onset_strength inst.centroid;
#X obj 81 116 s onset_centroid;
#X obj 90 91 print ONSET-CENTROID;
#X obj 842 -108 list split 3;
#X obj 803 -129 sort -1;
#X text 171 -153 centroid;
#X obj 803 -150 r onset_pitched;
#X obj 899 87 r onset_centroid;
#X obj -39 -26 t l l b l;
#X obj 216 33 list;
#X obj 216 6 del 102;
#X floatatom 21 -153 5 0 0 0 - - -;
#X text 56 -153 strength;
#X text 883 -13 here we select the n most 'pitched' slices and choose
randomly among them. Then the spectral centroid is used to filter each
of the slices.;
#X obj 878 154 * 44100;
#X floatatom 885 179 0 0 0 0 - - -;
#X obj 789 230 hip~;
#X text 282 -9 delay 100 ms to compensate;
#X text 282 6 for the high-level descriptor;
#X text 282 20 calculation time.;
#X obj -39 -49 list_iot 10000;
#X obj 760 108 trapenv 2;
#X obj 81 31 list_value;
#X obj 216 54 list_value;
#X obj -39 -96 filtevent 200;
#N canvas 461 446 692 360 inputs 1;
#X msg -234 -262 station \$1;
#X floatatom -234 -283 5 0 7 0 - - -;
#X text -196 -284 pick a radio station (0-7);
#X obj -224 -180 delwrite~ \$0-deline1 10000;
#X obj -234 -156 s~ input1;
#X obj -234 -238 radioin 0;
#X symbolatom -183 -215 40 0 0 0 - - -;
#X msg -234 -82 station \$1;
#X floatatom -234 -103 5 0 7 0 - - -;
#X text -196 -104 pick a radio station (0-7);
#X symbolatom -183 -35 40 0 0 0 - - -;
#X msg 116 -262 station \$1;
#X floatatom 116 -283 5 0 7 0 - - -;
#X text 154 -284 pick a radio station (0-7);
#X symbolatom 167 -215 40 0 0 0 - - -;
#X msg 116 -82 station \$1;
#X floatatom 116 -103 5 0 7 0 - - -;
#X text 154 -104 pick a radio station (0-7);
#X symbolatom 167 -35 40 0 0 0 - - -;
#X obj 116 -156 s~ input2;
#X obj 126 -180 delwrite~ \$0-deline2 10000;
#X obj 116 -238 radioin 2;
#X obj 116 -58 radioin 6;
#X obj 126 0 delwrite~ \$0-deline4 10000;
#X obj 116 24 s~ input4;
#X obj -224 0 delwrite~ \$0-deline3 10000;
#X obj -234 24 s~ input3;
#X obj -234 -58 radioin 5;
#X obj 37 37;
#X connect 0 0 5 0;
#X connect 1 0 0 0;
#X connect 5 0 3 0;
#X connect 5 0 4 0;
#X connect 5 2 6 0;
#X connect 7 0 27 0;
#X connect 8 0 7 0;
#X connect 11 0 21 0;
#X connect 12 0 11 0;
#X connect 15 0 22 0;
#X connect 16 0 15 0;
#X connect 21 0 19 0;
#X connect 21 0 20 0;
#X connect 21 2 14 0;
#X connect 22 0 23 0;
#X connect 22 0 24 0;
#X connect 22 2 18 0;
#X connect 27 0 25 0;
#X connect 27 0 26 0;
#X connect 27 2 10 0;
#X restore -337 -329 pd inputs;
#X msg 40 -447 bang \; pd dsp 1 \; init_threshold set 1 \; init_filterevents
set 200 \; init_volume 0.5 \; init_buffer_size set 10000;
#N canvas 430 274 281 364 direct_outs 0;
#X obj 6 29 r~ input1;
#X obj 22 241 line~;
#X obj 7 264 *~;
#X obj 22 73 vsl 15 100 0 1 0 0 empty init_volume empty 0 -9 0 10 -262144
-1 -1 8600 1;
#X obj 22 193 *;
#X msg 22 218 \$1 20;
#X obj 82 241 line~;
#X obj 67 264 *~;
#X obj 82 73 vsl 15 100 0 1 0 0 empty init_volume empty 0 -9 0 10 -262144
-1 -1 0 1;
#X obj 82 193 *;
#X msg 82 218 \$1 20;
#X obj 142 241 line~;
#X obj 127 264 *~;
#X obj 142 73 vsl 15 100 0 1 0 0 empty init_volume empty 0 -9 0 10
-262144 -1 -1 0 1;
#X obj 142 193 *;
#X msg 142 218 \$1 20;
#X obj 202 241 line~;
#X obj 187 264 *~;
#X obj 202 73 vsl 15 100 0 1 0 0 empty init_volume empty 0 -9 0 10
-262144 -1 -1 0 1;
#X obj 202 193 *;
#X msg 202 218 \$1 20;
#X obj 186 29 r~ input4;
#X obj 126 29 r~ input3;
#X obj 66 29 r~ input2;
#X obj 91 310 +~;
#X obj 91 331 outlet~;
#X text 25 71 1;
#X text 85 71 2;
#X text 145 71 3;
#X text 205 71 4;
#X connect 0 0 2 0;
#X connect 1 0 2 1;
#X connect 2 0 24 0;
#X connect 3 0 4 1;
#X connect 3 0 4 0;
#X connect 4 0 5 0;
#X connect 5 0 1 0;
#X connect 6 0 7 1;
#X connect 7 0 24 0;
#X connect 8 0 9 1;
#X connect 8 0 9 0;
#X connect 9 0 10 0;
#X connect 10 0 6 0;
#X connect 11 0 12 1;
#X connect 12 0 24 0;
#X connect 13 0 14 1;
#X connect 13 0 14 0;
#X connect 14 0 15 0;
#X connect 15 0 11 0;
#X connect 16 0 17 1;
#X connect 17 0 24 0;
#X connect 18 0 19 1;
#X connect 18 0 19 0;
#X connect 19 0 20 0;
#X connect 20 0 16 0;
#X connect 21 0 17 0;
#X connect 22 0 12 0;
#X connect 23 0 7 0;
#X connect 24 0 25 0;
#X coords 0 -1 1 1 220 130 1 20 50;
#X restore -337 -308 pd direct_outs;
#X text -172 -170 mashup;
#X text -322 -170 direct;
#X obj 318 -75 print;
#X floatatom 383 -150 5 0 0 0 - - -;
#X msg 173 -293 delayMode 0;
#X obj -16 -247 essentiaRT~ 10;
#X obj -16 -288 r~ input4;
#X obj 272 -181 route pitched.mean pitch.mean loudness.mean;
#X floatatom 457 -144 5 0 0 0 - - -;
#X obj 703 -290 r~ input1;
#X msg 703 -313 set input\$1;
#X floatatom 703 -334 5 1 4 0 - - -;
#X text 742 -336 synch tempo of the mashup to one of the 4 sources
;
#X connect 2 0 71 0;
#X connect 3 0 0 0;
#X connect 3 0 95 0;
#X connect 4 0 5 1;
#X connect 5 0 3 0;
#X connect 6 0 18 1;
#X connect 10 0 97 0;
#X connect 11 0 2 0;
#X connect 12 0 11 1;
#X connect 14 0 95 1;
#X connect 15 0 20 0;
#X connect 15 0 24 0;
#X connect 16 0 18 0;
#X connect 17 0 19 1;
#X connect 18 0 1 1;
#X connect 18 0 1 0;
#X connect 19 0 1 0;
#X connect 19 0 1 1;
#X connect 20 0 21 0;
#X connect 21 0 22 0;
#X connect 22 0 23 0;
#X connect 23 0 17 0;
#X connect 24 0 27 0;
#X connect 27 0 16 0;
#X connect 29 0 38 0;
#X connect 30 0 31 0;
#X connect 31 0 92 0;
#X connect 33 0 34 0;
#X connect 34 0 87 0;
#X connect 35 1 36 0;
#X connect 36 0 31 1;
#X connect 37 0 35 0;
#X connect 38 0 30 0;
#X connect 38 1 37 1;
#X connect 40 0 91 0;
#X connect 41 0 91 1;
#X connect 42 0 73 0;
#X connect 43 0 42 1;
#X connect 45 0 106 0;
#X connect 47 0 49 0;
#X connect 48 0 47 1;
#X connect 54 0 30 1;
#X connect 54 1 37 0;
#X connect 55 0 68 0;
#X connect 55 1 69 0;
#X connect 57 0 65 1;
#X connect 57 0 74 1;
#X connect 58 0 63 0;
#X connect 59 0 58 1;
#X connect 60 0 58 0;
#X connect 60 1 65 0;
#X connect 61 0 85 0;
#X connect 62 0 61 0;
#X connect 63 0 35 1;
#X connect 63 1 62 0;
#X connect 63 2 64 0;
#X connect 64 0 61 1;
#X connect 65 0 59 0;
#X connect 68 0 54 0;
#X connect 71 0 5 0;
#X connect 71 0 82 0;
#X connect 71 1 9 0;
#X connect 71 1 93 1;
#X connect 74 0 60 0;
#X connect 75 1 74 0;
#X connect 77 0 75 0;
#X connect 78 0 62 1;
#X connect 79 0 28 0;
#X connect 79 1 93 0;
#X connect 79 2 81 0;
#X connect 79 3 80 1;
#X connect 80 0 94 0;
#X connect 81 0 80 0;
#X connect 85 0 86 0;
#X connect 85 0 87 1;
#X connect 87 0 32 0;
#X connect 91 0 79 0;
#X connect 92 0 33 0;
#X connect 92 1 34 1;
#X connect 93 0 42 0;
#X connect 93 0 72 0;
#X connect 94 0 47 0;
#X connect 94 0 50 0;
#X connect 95 0 26 0;
#X connect 95 0 91 0;
#X connect 98 0 19 0;
#X connect 103 0 104 0;
#X connect 104 1 11 0;
#X connect 104 2 45 0;
#X connect 105 0 104 0;
#X connect 106 0 46 0;
#X connect 106 0 94 1;
#X connect 106 1 102 0;
#X connect 106 2 107 0;
#X connect 108 0 55 0;
#X connect 109 0 108 0;
#X connect 110 0 109 0;
