#N canvas 132 22 1288 759 10;
#X declare -path ../essentiaRT~ -path ../utils -path ../ibt_pd;
#X obj -283 3 output~;
#X obj -200 -55 catch~ slices;
#X text -337 -454 ...assuming externals are in parent folder...;
#X text -60 -327 ONSET DETECTION;
#X obj 40 -470 loadbang;
#X obj -278 -169 hsl 100 15 0 1 0 1 empty init_volume empty -2 -8 0
10 -262144 -1 -1 9900 1;
#X obj -241 -56 line~;
#X obj -281 -56 line~;
#X obj -215 -32 *~;
#X obj -296 -34 *~;
#X obj -281 -143 - 1;
#X obj -281 -122 abs;
#X obj -281 -100 sqrt;
#X msg -281 -78 \$1 20;
#X obj -241 -143 sqrt;
#X text -340 -422 =====================;
#X msg -241 -78 \$1 20;
#X text -60 -319 ================================;
#X msg -61 -59 reset;
#X text -338 -408 This example attempts some simple classification
on the detected onsets. It stores the onset strenghts in a list synched
with the onset times \, so we can tweak the playback with the classifier
values. In this example \, only the strongest onset of the list is
played-back.;
#X text -338 -430 essentiaRT~ example-5;
#X obj -335 -470 declare -path ../essentiaRT~ -path ../utils -path
../ibt_pd;
#N canvas 461 446 692 360 inputs 0;
#X msg -234 -262 station \$1;
#X floatatom -234 -283 5 0 7 0 - - -;
#X text -196 -284 pick a radio station (0-7);
#X obj -234 -238 radioin 0;
#X symbolatom -183 -215 40 0 0 0 - - -;
#X msg -234 -82 station \$1;
#X floatatom -234 -103 5 0 7 0 - - -;
#X text -196 -104 pick a radio station (0-7);
#X symbolatom -183 -35 40 0 0 0 - - -;
#X msg 116 -262 station \$1;
#X floatatom 116 -283 5 0 7 0 - - -;
#X text 154 -284 pick a radio station (0-7);
#X symbolatom 167 -215 40 0 0 0 - - -;
#X msg 116 -82 station \$1;
#X floatatom 116 -103 5 0 7 0 - - -;
#X text 154 -104 pick a radio station (0-7);
#X symbolatom 167 -35 40 0 0 0 - - -;
#X obj 116 -156 s~ input2;
#X obj 116 24 s~ input4;
#X obj -234 24 s~ input3;
#X obj 37 37;
#X obj -234 -156 s~ input1;
#X obj -224 -180 delwrite~ deline1 10000;
#X obj -224 0 delwrite~ deline3 10000;
#X obj 126 0 delwrite~ deline4 10000;
#X obj 126 -180 delwrite~ deline2 10000;
#X obj 116 -238 radioin 2;
#X obj 116 -58 radioin 6;
#X obj -234 -58 radioin 5;
#X connect 0 0 3 0;
#X connect 1 0 0 0;
#X connect 3 0 21 0;
#X connect 3 0 22 0;
#X connect 3 2 4 0;
#X connect 5 0 28 0;
#X connect 6 0 5 0;
#X connect 9 0 26 0;
#X connect 10 0 9 0;
#X connect 13 0 27 0;
#X connect 14 0 13 0;
#X connect 26 0 17 0;
#X connect 26 0 25 0;
#X connect 26 2 12 0;
#X connect 27 0 18 0;
#X connect 27 0 24 0;
#X connect 27 2 16 0;
#X connect 28 0 19 0;
#X connect 28 0 23 0;
#X connect 28 2 8 0;
#X restore -337 -329 pd inputs;
#X msg 40 -447 bang \; pd dsp 1 \; init_threshold set 1 \; init_filterevents
set 200 \; init_volume 0.5 \; init_buffer_size set 10000;
#N canvas 430 274 281 364 direct_outs 0;
#X obj 9 29 r~ input1;
#X obj 25 241 line~;
#X obj 10 264 *~;
#X obj 24 73 vsl 15 100 0 1 0 0 empty init_volume empty 0 -9 0 10 -262144
-1 -1 0 1;
#X obj 25 193 *;
#X msg 25 218 \$1 20;
#X obj 92 241 line~;
#X obj 77 264 *~;
#X obj 54 73 vsl 15 100 0 1 0 0 empty init_volume empty 0 -9 0 10 -262144
-1 -1 0 1;
#X obj 92 193 *;
#X msg 92 218 \$1 20;
#X obj 152 241 line~;
#X obj 137 264 *~;
#X obj 86 73 vsl 15 100 0 1 0 0 empty init_volume empty 0 -9 0 10 -262144
-1 -1 0 1;
#X obj 152 193 *;
#X msg 152 218 \$1 20;
#X obj 212 241 line~;
#X obj 197 264 *~;
#X obj 116 73 vsl 15 100 0 1 0 0 empty init_volume empty 0 -9 0 10
-262144 -1 -1 0 1;
#X obj 212 193 *;
#X msg 212 218 \$1 20;
#X obj 196 29 r~ input4;
#X obj 136 29 r~ input3;
#X obj 76 29 r~ input2;
#X obj 101 310 +~;
#X obj 101 331 outlet~;
#X text 27 71 1;
#X text 59 71 2;
#X text 89 71 3;
#X text 118 71 4;
#X connect 0 0 2 0;
#X connect 1 0 2 1;
#X connect 2 0 24 0;
#X connect 3 0 4 1;
#X connect 3 0 4 0;
#X connect 4 0 5 0;
#X connect 5 0 1 0;
#X connect 6 0 7 1;
#X connect 7 0 24 0;
#X connect 8 0 9 1;
#X connect 8 0 9 0;
#X connect 9 0 10 0;
#X connect 10 0 6 0;
#X connect 11 0 12 1;
#X connect 12 0 24 0;
#X connect 13 0 14 1;
#X connect 13 0 14 0;
#X connect 14 0 15 0;
#X connect 15 0 11 0;
#X connect 16 0 17 1;
#X connect 17 0 24 0;
#X connect 18 0 19 1;
#X connect 18 0 19 0;
#X connect 19 0 20 0;
#X connect 20 0 16 0;
#X connect 21 0 17 0;
#X connect 22 0 12 0;
#X connect 23 0 7 0;
#X connect 24 0 25 0;
#X coords 0 -1 1 1 120 130 1 20 50;
#X restore -337 -308 pd direct_outs;
#X text -172 -170 mashup;
#X text -322 -170 direct;
#X obj -19 -255 route list;
#X floatatom -10 -210 5 0 0 0 - - -;
#X text 25 -210 strength;
#X obj -19 -234 route onset_strength;
#X obj 113 -256 route list;
#X floatatom 113 -211 5 0 0 0 - - -;
#X text 148 -211 strength;
#X obj 113 -235 route onset_strength;
#X obj 83 45 list_value;
#X obj 113 -164 t b b;
#X obj -19 -158 t b b;
#X obj 83 130 s input_id;
#X obj -59 -299 r~ input1;
#X obj 73 -300 r~ input2;
#X obj -19 64 s onsets;
#X obj 559 -201 timer;
#X obj 608 59 +;
#X obj 605 -50 list split;
#X obj 633 38 sum;
#X obj 625 -208 list;
#X obj 629 -236 t b l;
#X obj 503 -378 delay;
#X obj 569 -256 t b b;
#X obj 642 16 s newEvent;
#X msg 512 -423 bang;
#X obj 503 -443 r newEvent;
#X obj 642 -27 list split 1;
#X floatatom 648 -5 7 0 0 0 - - -;
#X obj 608 81 trapenv 2;
#X obj 629 -257 r onsets;
#X obj -19 -2 t l l;
#X obj 625 -186 t l b l;
#X obj 695 -165 length;
#X obj 662 -142 random;
#X obj 702 -93 r input_id;
#X obj 733 -37 packel;
#X obj 776 -97 + 1;
#X obj 681 -71 list;
#X msg 8 -136 0;
#X msg 140 -142 1;
#X obj 733 256 throw~ slices;
#X floatatom 743 -14 5 0 0 0 - - -;
#X obj 733 98 demux~ 1 2 3 4;
#X obj 787 201 *~;
#X obj 802 175 delread~ deline3;
#X obj 814 223 *~;
#X obj 829 201 delread~ deline4;
#X obj 733 151 *~;
#X obj 760 173 *~;
#X obj 244 -256 route list;
#X floatatom 244 -211 5 0 0 0 - - -;
#X text 279 -211 strength;
#X obj 244 -235 route onset_strength;
#X obj 244 -164 t b b;
#X obj 204 -300 r~ input3;
#X obj 375 -255 route list;
#X floatatom 375 -210 5 0 0 0 - - -;
#X text 410 -210 strength;
#X obj 375 -234 route onset_strength;
#X obj 375 -163 t b b;
#X obj 335 -299 r~ input4;
#X msg 271 -142 2;
#X msg 402 -141 3;
#X obj -19 -26 list_iot 10000;
#X obj -59 -277 essentiaRT~ 10;
#X obj 73 -278 essentiaRT~ 10;
#X obj 204 -278 essentiaRT~ 10;
#X obj 335 -277 essentiaRT~ 10;
#X obj -19 -189 filtevent 1000;
#X obj 113 -186 filtevent 1000;
#X obj 244 -186 filtevent 1000;
#X obj 375 -185 filtevent 1000;
#X obj 662 -121 t f b f;
#X msg 522 -402 stop;
#X obj 594 -379 ibt_pd;
#X text 637 -380 <- bpm estimation;
#X obj 594 -357 bng 15 250 50 0 empty empty empty 17 7 0 10 -262144
-1 -1;
#X floatatom 627 -358 5 0 0 0 - - -;
#X obj 594 -404 r~ input1;
#X msg 594 -427 set input\$1;
#X floatatom 594 -448 5 1 4 0 - - -;
#X text 633 -450 synch tempo of the mashup to one of the 4 sources
;
#X obj 594 -337 prepend 1;
#X obj 503 -336 prepend 0;
#X obj 503 -357 bng 15 250 50 0 empty empty empty 17 7 0 10 -262144
-1 -1;
#X obj 569 -279 route;
#X obj 596 -299 tgl 15 0 empty empty empty 17 7 0 10 -262144 -1 -1
0 1;
#X text 614 -307 trigger slices according to length of events (0);
#X text 614 -293 or to tempo of one of the sources (1);
#X obj 99 88 spigot;
#X obj 132 67 tgl 15 0 empty empty empty 17 7 0 10 -262144 -1 -1 0
1;
#X obj 99 110 print SOURCES;
#X obj 748 128 delread~ deline1;
#X obj 775 151 delread~ deline2;
#X obj 542 -262 bng 15 250 50 0 empty empty empty 17 7 0 10 -262144
-1 -1;
#X text 782 -13 source;
#X connect 1 0 8 1;
#X connect 4 0 23 0;
#X connect 5 0 10 0;
#X connect 5 0 14 0;
#X connect 6 0 8 0;
#X connect 7 0 9 1;
#X connect 8 0 0 1;
#X connect 8 0 0 0;
#X connect 9 0 0 0;
#X connect 9 0 0 1;
#X connect 10 0 11 0;
#X connect 11 0 12 0;
#X connect 12 0 13 0;
#X connect 13 0 7 0;
#X connect 14 0 16 0;
#X connect 16 0 6 0;
#X connect 18 0 90 0;
#X connect 24 0 9 0;
#X connect 27 0 30 0;
#X connect 30 0 28 0;
#X connect 30 0 95 0;
#X connect 31 0 34 0;
#X connect 32 0 96 0;
#X connect 34 0 32 0;
#X connect 35 0 38 0;
#X connect 35 0 116 0;
#X connect 36 0 90 0;
#X connect 36 1 66 0;
#X connect 37 0 90 0;
#X connect 37 1 65 0;
#X connect 39 0 91 0;
#X connect 40 0 92 0;
#X connect 42 0 43 0;
#X connect 43 0 55 0;
#X connect 44 1 45 0;
#X connect 44 1 53 0;
#X connect 45 0 43 1;
#X connect 46 0 58 0;
#X connect 47 0 42 0;
#X connect 47 1 46 1;
#X connect 48 0 111 0;
#X connect 49 0 42 1;
#X connect 49 1 46 0;
#X connect 51 0 48 0;
#X connect 52 0 48 0;
#X connect 53 0 50 0;
#X connect 53 0 54 0;
#X connect 55 0 71 0;
#X connect 55 0 73 0;
#X connect 55 0 119 0;
#X connect 55 0 120 0;
#X connect 55 1 69 0;
#X connect 56 0 47 0;
#X connect 57 0 41 0;
#X connect 57 1 35 0;
#X connect 58 0 44 0;
#X connect 58 1 60 0;
#X connect 58 2 59 0;
#X connect 59 0 60 1;
#X connect 60 0 99 0;
#X connect 61 0 64 1;
#X connect 62 0 68 0;
#X connect 62 0 69 0;
#X connect 63 0 62 1;
#X connect 64 0 62 0;
#X connect 65 0 35 1;
#X connect 66 0 35 1;
#X connect 69 0 74 0;
#X connect 69 1 75 0;
#X connect 69 2 70 0;
#X connect 69 3 72 0;
#X connect 70 0 67 0;
#X connect 71 0 70 1;
#X connect 72 0 67 0;
#X connect 73 0 72 1;
#X connect 74 0 67 0;
#X connect 75 0 67 0;
#X connect 76 0 79 0;
#X connect 77 0 97 0;
#X connect 79 0 77 0;
#X connect 80 0 90 0;
#X connect 80 1 88 0;
#X connect 81 0 93 0;
#X connect 82 0 85 0;
#X connect 83 0 98 0;
#X connect 85 0 83 0;
#X connect 86 0 90 0;
#X connect 86 1 89 0;
#X connect 87 0 94 0;
#X connect 88 0 35 1;
#X connect 89 0 35 1;
#X connect 90 0 57 0;
#X connect 91 1 27 0;
#X connect 92 1 31 0;
#X connect 93 1 76 0;
#X connect 94 1 82 0;
#X connect 95 0 37 0;
#X connect 96 0 36 0;
#X connect 97 0 80 0;
#X connect 98 0 86 0;
#X connect 99 0 44 1;
#X connect 99 1 64 0;
#X connect 99 2 63 0;
#X connect 100 0 48 0;
#X connect 101 0 103 0;
#X connect 101 1 104 0;
#X connect 103 0 109 0;
#X connect 105 0 101 0;
#X connect 106 0 105 0;
#X connect 107 0 106 0;
#X connect 109 0 112 0;
#X connect 110 0 112 0;
#X connect 111 0 110 0;
#X connect 112 0 49 0;
#X connect 112 0 121 0;
#X connect 113 0 112 1;
#X connect 116 0 118 0;
#X connect 117 0 116 1;
#X connect 119 0 74 1;
#X connect 120 0 75 1;
