#N canvas 304 22 764 824 10;
#X declare -path ../essentiaRT~ -path ../utils -path ../ibt_pd;
#X obj 143 -106 bng 15 250 50 0 empty empty empty 17 7 0 10 -262144
-1 -1;
#X obj -176 259 output~;
#X obj 235 -192 route list;
#X obj -75 77 catch~ slices;
#X text -247 -454 ...assuming externals are in parent folder...;
#X text -250 -330 AUDIO INPUT;
#X text 162 -288 ONSET DETECTION;
#X obj 130 -470 loadbang;
#X text -244 37 =====================;
#X text -244 29 AUDIO OUTPUT;
#X obj -181 77 hsl 100 15 0 1 0 1 empty init_volume empty -2 -8 0 10
-262144 -1 -1 4950 1;
#X obj -144 190 line~;
#X obj -184 190 line~;
#X obj -90 222 *~;
#X obj -240 222 *~;
#X obj -184 103 - 1;
#X obj -184 124 abs;
#X obj -184 146 sqrt;
#X msg -184 168 \$1 20;
#X obj -144 103 sqrt;
#X text -184 60 crossfade;
#X text -250 -422 =====================;
#X obj 124 -65 bng 15 250 50 0 empty empty empty 17 7 0 10 -262144
-1 -1;
#X msg -144 168 \$1 20;
#X obj 150 42 spigot 0;
#X obj 195 25 tgl 15 0 empty empty empty 17 7 0 10 -262144 -1 -1 0
1;
#X text 162 -280 ================================;
#X msg 148 -62 reset;
#X floatatom 266 -63 5 0 0 0 - init_buffer_size -;
#X obj 270 39 spigot 0;
#X obj 315 22 tgl 15 0 empty empty empty 17 7 0 10 -262144 -1 -1 0
1;
#X text -250 -319 ================================;
#X text -248 -408 This example attempts some simple classification
on the detected onsets. It stores the onset strenghts in a list synched
with the onset times \, so we can tweak the playback with the classifier
values. In this example \, only the strongest onset of the list is
played-back.;
#X msg 130 -447 bang \; pd dsp 1 \; init_threshold set 1 \; init_filterevents
set 200 \; init_volume 0.5 \; init_buffer_size set 10000;
#X text -248 -430 essentiaRT~ example-5;
#X obj -245 -470 declare -path ../essentiaRT~ -path ../utils -path
../ibt_pd;
#X floatatom 451 -140 5 0 0 0 - - -;
#X obj -34 52 s low-level1;
#X obj 4 32 s high-level1;
#X obj -73 -14 delwrite~ \$0-deline1 10000;
#X obj 235 -215 r low-level1;
#N canvas 7 22 898 978 retrieval 0;
#X obj 223 -153 r onset_times;
#X obj 173 -105 timer;
#X obj 214 152 +;
#X obj 244 318 throw~ slices;
#X obj 243 220 *~;
#X obj 221 108 list split;
#X obj 249 131 sum;
#X obj 229 -104 list;
#X obj 223 -132 t b l;
#X text 154 -241 =====================;
#X text 154 -249 ONSET RETRIEVAL;
#X obj 157 -139 t b b;
#X obj 157 -199 ibt_pd;
#X text 200 -200 <- bpm estimation;
#X floatatom 381 -67 5 0 0 0 - - -;
#X obj 278 51 packel 1;
#X obj 323 29 + 1;
#X obj 296 -17 t l b;
#X obj 337 197 packel 1;
#X obj 337 174 list;
#X obj 278 74 t f b f;
#X obj 382 124 + 1;
#X obj 323 6 random 3;
#X text 416 -67 pick a slice from the n most "pitched" slices;
#X obj 157 -175 bng 15 250 50 0 empty empty empty 17 7 0 10 -262144
-1 -1;
#X floatatom 190 -176 5 0 0 0 - - -;
#X obj 296 -42 list split 3;
#X obj 257 -63 sort -1;
#X obj 257 -84 r onset_pitched;
#X obj 358 153 r onset_centroid;
#X text 337 53 here we select the n most 'pitched' slices and choose
randomly among them. Then the spectral centroid is used to filter each
of the slices.;
#X obj 337 220 * 44100;
#X floatatom 344 245 0 0 0 0 - - -;
#X obj 243 296 hip~;
#X obj 214 197 delread~ \$0-deline1;
#X obj 214 174 quickenv 2;
#X connect 0 0 8 0;
#X connect 1 0 2 0;
#X connect 2 0 35 0;
#X connect 4 0 33 0;
#X connect 5 1 6 0;
#X connect 6 0 2 1;
#X connect 7 0 5 0;
#X connect 8 0 1 0;
#X connect 8 1 7 1;
#X connect 11 0 1 1;
#X connect 11 1 7 0;
#X connect 12 0 24 0;
#X connect 12 1 25 0;
#X connect 14 0 22 1;
#X connect 14 0 26 1;
#X connect 15 0 20 0;
#X connect 16 0 15 1;
#X connect 17 0 15 0;
#X connect 17 1 22 0;
#X connect 18 0 31 0;
#X connect 19 0 18 0;
#X connect 20 0 5 1;
#X connect 20 1 19 0;
#X connect 20 2 21 0;
#X connect 21 0 18 1;
#X connect 22 0 16 0;
#X connect 24 0 11 0;
#X connect 26 0 17 0;
#X connect 27 1 26 0;
#X connect 28 0 27 0;
#X connect 29 0 19 1;
#X connect 31 0 32 0;
#X connect 31 0 33 1;
#X connect 33 0 3 0;
#X connect 34 0 4 0;
#X connect 35 0 34 0;
#X connect 35 1 4 1;
#X restore 302 -454 pd retrieval;
#X obj -183 -84 osc~;
#X obj -202 -258 delay;
#X obj -243 -236 * 250;
#X obj -227 -209 random 4;
#X obj -227 -188 + 1;
#X msg -202 -301 bang;
#X msg -202 -280 stop;
#X obj -202 -235 t b b;
#X obj -172 -165 mtof;
#X obj -172 -185 + 36;
#X obj -172 -208 random 80;
#X obj -64 -36 s~ input;
#X obj -240 77 r~ input;
#X obj 142 -17 t l l;
#X obj 235 -147 t b f;
#X obj 261 85 s centroid;
#X obj 142 85 s onsets;
#X obj 150 63 print ONSETS;
#X obj 270 60 print CENTROID;
#X floatatom 404 -171 5 0 0 0 - - -;
#X obj 404 -238 print;
#X obj -88 -93 *~;
#X floatatom -111 -176 5 0 0 0 - - -;
#X floatatom 185 -152 5 0 0 0 - - -;
#X obj 235 -171 route onset_strength inst.centroid;
#X floatatom 298 -128 5 0 0 0 - - -;
#X obj 3 -239 noise~;
#X obj 2 -196 bp~ 100 100;
#X obj -97 -59 *~ 100;
#X floatatom 81 -246 5 0 0 0 - - -;
#X floatatom 96 -204 5 0 0 0 - - -;
#X obj -83 7 essentiaRT~ 20;
#X obj 143 -40 list_iot 10000;
#X obj 143 -87 speedlim 50;
#X obj -144 -137 trapenv 10;
#X obj 261 0 list_value;
#X connect 0 0 75 0;
#X connect 2 0 62 0;
#X connect 2 0 66 0;
#X connect 3 0 13 1;
#X connect 7 0 33 0;
#X connect 10 0 15 0;
#X connect 10 0 19 0;
#X connect 11 0 13 0;
#X connect 12 0 14 1;
#X connect 13 0 1 1;
#X connect 14 0 1 0;
#X connect 15 0 16 0;
#X connect 16 0 17 0;
#X connect 17 0 18 0;
#X connect 18 0 12 0;
#X connect 19 0 23 0;
#X connect 23 0 11 0;
#X connect 24 0 59 0;
#X connect 25 0 24 1;
#X connect 27 0 74 0;
#X connect 28 0 74 1;
#X connect 29 0 60 0;
#X connect 30 0 29 1;
#X connect 40 0 2 0;
#X connect 43 0 49 0;
#X connect 44 0 43 0;
#X connect 45 0 46 0;
#X connect 46 0 44 0;
#X connect 47 0 43 0;
#X connect 48 0 43 0;
#X connect 49 0 45 0;
#X connect 49 1 52 0;
#X connect 50 0 61 0;
#X connect 50 0 76 0;
#X connect 51 0 50 0;
#X connect 52 0 51 0;
#X connect 54 0 14 0;
#X connect 55 0 24 0;
#X connect 55 0 58 0;
#X connect 55 1 77 0;
#X connect 56 0 0 0;
#X connect 56 1 77 1;
#X connect 63 0 70 0;
#X connect 64 0 76 0;
#X connect 66 0 56 0;
#X connect 66 0 67 0;
#X connect 66 1 36 0;
#X connect 68 0 69 0;
#X connect 69 0 63 0;
#X connect 70 0 53 0;
#X connect 70 0 39 0;
#X connect 70 0 73 0;
#X connect 71 0 69 1;
#X connect 72 0 69 2;
#X connect 73 1 37 0;
#X connect 73 2 38 0;
#X connect 74 0 55 0;
#X connect 75 0 22 0;
#X connect 75 0 74 0;
#X connect 76 0 69 1;
#X connect 76 1 63 1;
#X connect 77 0 29 0;
#X connect 77 0 57 0;
