#N canvas 492 22 1321 616 10;
#X declare -path ../essentiaRT~ -path ../utils -path ../ibt_pd;
#X obj 32 -114 bng 15 250 50 0 empty empty empty 17 7 0 10 -262144
-1 -1;
#X obj -182 66 output~;
#X obj 111 -218 route list;
#X obj 51 -138 sel 1;
#X floatatom 66 -197 5 0 0 0 - init_threshold -;
#X obj 51 -160 > 1;
#X obj -81 -116 catch~ slices;
#X obj 74 -267 essentiaRT~ 5;
#X text -247 -454 ...assuming externals are in parent folder...;
#X text -250 -330 AUDIO INPUT;
#X text 70 -317 ONSET DETECTION;
#X floatatom 225 -173 5 0 0 0 - - -;
#X obj 130 -470 loadbang;
#X obj 111 -240 spigot 1;
#X obj 166 -265 tgl 15 1 empty empty empty 17 7 0 10 -262144 -1 -1
1 1;
#X text 187 -267 output onsets;
#X floatatom 126 -137 5 0 0 0 - init_filterevents -;
#X text -250 -156 =====================;
#X text -250 -164 AUDIO OUTPUT;
#X msg -246 -279 station \$1;
#X floatatom -246 -300 5 0 7 0 - - -;
#X obj -207 -233 print STATION;
#X obj -187 -116 hsl 100 15 0 1 0 1 empty init_volume empty -2 -8 0
10 -262144 -1 -1 4950 1;
#X obj -150 -3 line~;
#X obj -190 -3 line~;
#X obj -96 29 *~;
#X obj -246 29 *~;
#X obj -190 -90 - 1;
#X obj -190 -69 abs;
#X obj -190 -47 sqrt;
#X msg -190 -25 \$1 20;
#X obj -150 -90 sqrt;
#X text -190 -133 crossfade;
#X obj -246 -116 r~ input;
#X text -250 -422 =====================;
#X obj 59 34 print ONSET-TIMES;
#X obj 32 -94 bng 15 250 50 0 empty empty empty 17 7 0 10 -262144 -1
-1;
#X msg -150 -25 \$1 20;
#X obj 51 56 s onset_times;
#X obj 578 -368 r onset_times;
#X obj 528 -320 timer;
#X obj 569 -63 +;
#X obj 599 103 throw~ slices;
#X obj 569 -18 delread~ \$0-deline;
#X obj 598 5 *~;
#X obj 576 -107 list split;
#X obj 604 -84 sum;
#X obj 584 -319 list;
#X obj 578 -347 t b l;
#X obj 59 13 spigot 0;
#X obj 104 -4 tgl 15 0 empty empty empty 17 7 0 10 -262144 -1 -1 0
1;
#X text -208 -301 pick a radio station (0-7);
#X text 70 -309 ================================;
#X obj 74 -288 r~ input;
#X msg 57 -91 reset;
#X floatatom 133 -89 5 0 0 0 - init_buffer_size -;
#X obj 179 50 spigot 0;
#X obj 224 33 tgl 15 0 empty empty empty 17 7 0 10 -262144 -1 -1 0
1;
#X text -250 -319 ================================;
#X text -248 -408 This example attempts some simple classification
on the detected onsets. It stores the onset strenghts in a list synched
with the onset times \, so we can tweak the playback with the classifier
values. In this example \, only the strongest onset of the list is
played-back.;
#X obj 325 -217 route list;
#X obj 325 -196 route pitched.mean;
#X floatatom 343 -171 5 0 0 0 - - -;
#X obj 314 73 spigot 0;
#X obj 359 56 tgl 15 0 empty empty empty 17 7 0 10 -262144 -1 -1 0
1;
#X obj 314 94 print ONSET-PITCHED;
#X obj 305 119 s onset_pitched;
#X obj -236 -211 delwrite~ \$0-deline 10000;
#X msg 130 -447 bang \; pd dsp 1 \; init_threshold set 1 \; init_filterevents
set 200 \; init_volume 0.5 \; init_buffer_size set 10000;
#X text -248 -430 essentiaRT~ example-5;
#X text 509 -456 =====================;
#X text 509 -464 ONSET RETRIEVAL;
#X obj 512 -354 t b b;
#X obj 512 -414 ibt_pd;
#X obj 512 -436 r~ input;
#X text 555 -415 <- bpm estimation;
#X floatatom 736 -282 5 0 0 0 - - -;
#X obj 633 -164 packel 1;
#X obj 678 -186 + 1;
#X obj 651 -232 t l b;
#X obj 687 -18 packel 1;
#X obj 687 -41 list;
#X obj 633 -141 t f b f;
#X obj 732 -91 + 1;
#X obj 678 -209 random 3;
#X text 771 -282 pick a slice from the n most "pitched" slices;
#X text 380 -171 'pitchiness';
#X obj 512 -390 bng 15 250 50 0 empty empty empty 17 7 0 10 -262144
-1 -1;
#X floatatom 545 -391 5 0 0 0 - - -;
#X obj -245 -470 declare -path ../essentiaRT~ -path ../utils -path
../ibt_pd;
#X obj 111 -197 route onset_strength inst.centroid;
#X obj 170 96 s onset_centroid;
#X obj 179 71 print ONSET-CENTROID;
#X obj 651 -257 list split 3;
#X obj 612 -278 sort -1;
#X text 261 -173 centroid;
#X obj 612 -299 r onset_pitched;
#X obj 708 -62 r onset_centroid;
#X obj 51 -46 t l l b l;
#X obj 305 13 list;
#X obj 305 -14 del 102;
#X floatatom 111 -173 5 0 0 0 - - -;
#X text 146 -173 strength;
#X text 692 -162 here we select the n most 'pitched' slices and choose
randomly among them. Then the spectral centroid is used to filter each
of the slices.;
#X obj -246 -187 s~ input;
#X obj 687 5 * 44100;
#X floatatom 694 30 0 0 0 0 - - -;
#X obj 598 81 hip~;
#X text 384 -27 delay 100 ms to compensate;
#X text 384 -12 for the high-level descriptor;
#X text 384 2 calculation time.;
#X obj 52 -69 list_iot 10000;
#X obj 569 -41 trapenv 2;
#X obj 170 11 list_value;
#X obj 305 34 list_value;
#X obj 51 -116 filtevent 200;
#N canvas 461 446 450 300 inputs 1;
#X msg -234 -262 station \$1;
#X floatatom -234 -283 5 0 7 0 - - -;
#X text -196 -284 pick a radio station (0-7);
#X obj -224 -180 delwrite~ \$0-deline1 10000;
#X obj -234 -156 s~ input1;
#X obj -234 -238 radioin 0;
#X symbolatom -183 -215 20 0 0 0 - - -;
#X connect 0 0 5 0;
#X connect 1 0 0 0;
#X connect 5 0 3 0;
#X connect 5 0 4 0;
#X connect 5 2 6 0;
#X restore -30 -254 pd inputs;
#X obj -246 -255 radioin;
#X connect 2 0 90 0;
#X connect 3 0 0 0;
#X connect 3 0 115 0;
#X connect 4 0 5 1;
#X connect 5 0 3 0;
#X connect 6 0 25 1;
#X connect 7 1 13 0;
#X connect 7 2 60 0;
#X connect 12 0 68 0;
#X connect 13 0 2 0;
#X connect 14 0 13 1;
#X connect 16 0 115 1;
#X connect 19 0 117 0;
#X connect 20 0 19 0;
#X connect 22 0 27 0;
#X connect 22 0 31 0;
#X connect 23 0 25 0;
#X connect 24 0 26 1;
#X connect 25 0 1 1;
#X connect 26 0 1 0;
#X connect 27 0 28 0;
#X connect 28 0 29 0;
#X connect 29 0 30 0;
#X connect 30 0 24 0;
#X connect 31 0 37 0;
#X connect 33 0 26 0;
#X connect 37 0 23 0;
#X connect 39 0 48 0;
#X connect 40 0 41 0;
#X connect 41 0 112 0;
#X connect 43 0 44 0;
#X connect 44 0 107 0;
#X connect 45 1 46 0;
#X connect 46 0 41 1;
#X connect 47 0 45 0;
#X connect 48 0 40 0;
#X connect 48 1 47 1;
#X connect 49 0 35 0;
#X connect 50 0 49 1;
#X connect 53 0 7 0;
#X connect 54 0 111 0;
#X connect 55 0 111 1;
#X connect 56 0 92 0;
#X connect 57 0 56 1;
#X connect 60 0 61 0;
#X connect 61 0 62 0;
#X connect 61 0 114 1;
#X connect 63 0 65 0;
#X connect 64 0 63 1;
#X connect 72 0 40 1;
#X connect 72 1 47 0;
#X connect 73 0 87 0;
#X connect 73 1 88 0;
#X connect 74 0 73 0;
#X connect 76 0 84 1;
#X connect 76 0 93 1;
#X connect 77 0 82 0;
#X connect 78 0 77 1;
#X connect 79 0 77 0;
#X connect 79 1 84 0;
#X connect 80 0 105 0;
#X connect 81 0 80 0;
#X connect 82 0 45 1;
#X connect 82 1 81 0;
#X connect 82 2 83 0;
#X connect 83 0 80 1;
#X connect 84 0 78 0;
#X connect 87 0 72 0;
#X connect 90 0 5 0;
#X connect 90 0 101 0;
#X connect 90 1 11 0;
#X connect 90 1 113 1;
#X connect 93 0 79 0;
#X connect 94 1 93 0;
#X connect 96 0 94 0;
#X connect 97 0 81 1;
#X connect 98 0 49 0;
#X connect 98 0 38 0;
#X connect 98 1 113 0;
#X connect 98 2 100 0;
#X connect 98 3 99 1;
#X connect 99 0 114 0;
#X connect 100 0 99 0;
#X connect 105 0 106 0;
#X connect 105 0 107 1;
#X connect 107 0 42 0;
#X connect 111 0 98 0;
#X connect 112 0 43 0;
#X connect 112 1 44 1;
#X connect 113 0 56 0;
#X connect 113 0 91 0;
#X connect 114 0 63 0;
#X connect 114 0 66 0;
#X connect 115 0 36 0;
#X connect 115 0 111 0;
#X connect 117 0 67 0;
#X connect 117 0 104 0;
#X connect 117 2 21 0;
