#N canvas 41 22 1288 628 10;
#X declare -path ../essentiaRT~ -path ../utils;
#X obj 32 -114 bng 15 250 50 0 empty empty empty 17 7 0 10 -262144
-1 -1;
#X obj -182 66 output~;
#X obj 111 -218 route list;
#X obj 111 -197 route onset_strength;
#X obj 51 -138 sel 1;
#X floatatom 66 -197 5 0 0 0 - init_threshold -;
#X obj 51 -160 > 1;
#X obj -81 -116 catch~ slices;
#X obj 74 -267 essentiaRT~ 5;
#X text -247 -454 ...assuming externals are in parent folder...;
#X text -250 -330 AUDIO INPUT;
#X text 70 -317 ONSET DETECTION;
#X floatatom 145 -172 5 0 0 0 - - -;
#X text 178 -172 onset strength;
#X obj 130 -470 loadbang;
#X obj 111 -240 spigot 1;
#X obj 166 -265 tgl 15 1 empty empty empty 17 7 0 10 -262144 -1 -1
1 1;
#X text 187 -267 output onsets;
#X floatatom 126 -137 5 0 0 0 - init_filterevents -;
#X text -250 -156 =====================;
#X text -250 -164 AUDIO OUTPUT;
#X msg -246 -279 station \$1;
#X floatatom -246 -300 5 0 7 0 - - -;
#X obj -207 -233 print STATION;
#X obj -246 -255 radioin;
#X obj -187 -116 hsl 100 15 0 1 0 1 empty init_volume empty -2 -8 0
10 -262144 -1 -1 9900 1;
#X obj -150 -3 line~;
#X obj -190 -3 line~;
#X obj -96 29 *~;
#X obj -246 29 *~;
#X obj -190 -90 - 1;
#X obj -190 -69 abs;
#X obj -190 -47 sqrt;
#X msg -190 -25 \$1 20;
#X obj -150 -90 sqrt;
#X text -190 -133 crossfade;
#X obj -246 -116 r~ input;
#X text -250 -422 =====================;
#X obj 59 17 print ONSET-TIMES;
#X obj 32 -94 bng 15 250 50 0 empty empty empty 17 7 0 10 -262144 -1
-1;
#X msg -150 -25 \$1 20;
#X obj 51 39 s onset_times;
#X obj 508 -378 r onset_times;
#X obj 458 -330 timer;
#X obj 499 -73 +;
#X obj 528 103 throw~ slices;
#X obj 499 -28 delread~ \$0-deline;
#X obj 528 -5 *~;
#X obj 506 -117 list split;
#X obj 534 -94 sum;
#X obj 514 -329 list;
#X obj 508 -357 t b l;
#X obj 59 -4 spigot 0;
#X obj 104 -21 tgl 15 0 empty empty empty 17 7 0 10 -262144 -1 -1 0
1;
#X text -208 -301 pick a radio station (0-7);
#X obj 499 -51 quickenv 2;
#X obj -246 -470 declare -path ../essentiaRT~ -path ../utils;
#X text 70 -309 ================================;
#X obj -246 -189 s~ input;
#X obj 74 -288 r~ input;
#X obj 176 -23 list_parameter;
#X msg 57 -91 reset;
#X floatatom 175 -92 5 0 0 0 - init_buffer_size -;
#X obj 185 16 spigot 0;
#X obj 230 -1 tgl 15 0 empty empty empty 17 7 0 10 -262144 -1 -1 0
1;
#X obj 185 37 print ONSET-STRENGTH;
#X text -250 -319 ================================;
#X text -248 -408 This example attempts some simple classification
on the detected onsets. It stores the onset strenghts in a list synched
with the onset times \, so we can tweak the playback with the classifier
values. In this example \, only the strongest onset of the list is
played-back.;
#X obj 295 -219 route list;
#X obj 295 -198 route pitched.mean;
#X floatatom 328 -173 5 0 0 0 - - -;
#X obj 319 -32 list_parameter;
#X obj 328 52 spigot 0;
#X obj 373 35 tgl 15 0 empty empty empty 17 7 0 10 -262144 -1 -1 0
1;
#X obj 51 -46 t l l l;
#X obj 328 73 print ONSET-PITCHED;
#X obj 319 98 s onset_pitched;
#X obj 542 -309 r onset_pitched;
#X obj -236 -211 delwrite~ \$0-deline 10000;
#X obj 52 -69 list_onsetTimes 10000;
#X msg 130 -447 bang \; pd dsp 1 \; init_threshold set 1 \; init_filterevents
set 200 \; init_volume 0.5 \; init_buffer_size set 10000;
#X text -248 -430 essentiaRT~ example-5;
#X text 439 -466 =====================;
#X text 439 -474 ONSET RETRIEVAL;
#X obj 442 -364 t b b;
#X obj 442 -424 ibt_pd;
#X obj 442 -446 r~ input;
#X text 485 -425 <- bpm estimation;
#X floatatom 667 -302 5 0 0 0 - - -;
#X obj 563 -174 packel 1;
#X obj 608 -196 + 1;
#X obj 581 -242 t l b;
#X obj 617 24 autoscale;
#X obj 617 -28 packel 1;
#X obj 176 62 s onset_strengths;
#X obj 638 -72 r onset_strengths;
#X obj 617 -51 list;
#X obj 563 -151 t f b f;
#X obj 662 -97 + 1;
#X obj 581 -267 list split 3;
#X obj 608 -219 random 3;
#X floatatom 622 50 5 0 0 0 - - -;
#X msg 624 0 reset;
#X text 704 -303 pick a slice from the n most "pitched" slices;
#X text 365 -173 'pitchiness';
#X obj 542 -288 sort -1;
#X obj 51 -116 filtevent 200;
#X obj 442 -400 bng 15 250 50 0 empty empty empty 17 7 0 10 -262144
-1 -1;
#X floatatom 475 -401 5 0 0 0 - - -;
#X obj 528 82 *~ 1;
#X text 622 -172 here we select the n most 'pitched' slices and choose
randomly among them. Then the onset strengths are used to scale the
amplitude of each of the slices.;
#X connect 2 0 3 0;
#X connect 3 0 6 0;
#X connect 3 0 12 0;
#X connect 3 0 60 1;
#X connect 4 0 0 0;
#X connect 4 0 106 0;
#X connect 5 0 6 1;
#X connect 6 0 4 0;
#X connect 7 0 28 1;
#X connect 8 1 15 0;
#X connect 8 2 68 0;
#X connect 14 0 80 0;
#X connect 15 0 2 0;
#X connect 16 0 15 1;
#X connect 18 0 106 1;
#X connect 21 0 24 0;
#X connect 22 0 21 0;
#X connect 24 0 58 0;
#X connect 24 0 78 0;
#X connect 24 2 23 0;
#X connect 25 0 30 0;
#X connect 25 0 34 0;
#X connect 26 0 28 0;
#X connect 27 0 29 1;
#X connect 28 0 1 1;
#X connect 29 0 1 0;
#X connect 30 0 31 0;
#X connect 31 0 32 0;
#X connect 32 0 33 0;
#X connect 33 0 27 0;
#X connect 34 0 40 0;
#X connect 36 0 29 0;
#X connect 40 0 26 0;
#X connect 42 0 51 0;
#X connect 43 0 44 0;
#X connect 44 0 55 0;
#X connect 46 0 47 0;
#X connect 47 0 109 0;
#X connect 48 1 49 0;
#X connect 49 0 44 1;
#X connect 50 0 48 0;
#X connect 51 0 43 0;
#X connect 51 1 50 1;
#X connect 52 0 38 0;
#X connect 53 0 52 1;
#X connect 55 0 46 0;
#X connect 55 1 47 1;
#X connect 59 0 8 0;
#X connect 60 0 63 0;
#X connect 60 0 94 0;
#X connect 61 0 79 0;
#X connect 62 0 79 1;
#X connect 63 0 65 0;
#X connect 64 0 63 1;
#X connect 68 0 69 0;
#X connect 69 0 70 0;
#X connect 69 0 71 1;
#X connect 71 0 72 0;
#X connect 71 0 76 0;
#X connect 72 0 75 0;
#X connect 73 0 72 1;
#X connect 74 0 52 0;
#X connect 74 0 41 0;
#X connect 74 1 60 0;
#X connect 74 2 71 0;
#X connect 77 0 105 0;
#X connect 79 0 74 0;
#X connect 84 0 43 1;
#X connect 84 1 50 0;
#X connect 85 0 107 0;
#X connect 85 1 108 0;
#X connect 86 0 85 0;
#X connect 88 0 99 1;
#X connect 88 0 100 1;
#X connect 89 0 97 0;
#X connect 90 0 89 1;
#X connect 91 0 89 0;
#X connect 91 1 100 0;
#X connect 92 0 101 0;
#X connect 92 0 109 1;
#X connect 93 0 92 0;
#X connect 95 0 96 1;
#X connect 96 0 93 0;
#X connect 97 0 48 1;
#X connect 97 1 96 0;
#X connect 97 2 98 0;
#X connect 98 0 93 1;
#X connect 99 0 91 0;
#X connect 100 0 90 0;
#X connect 102 0 92 0;
#X connect 105 1 99 0;
#X connect 106 0 39 0;
#X connect 106 0 79 0;
#X connect 107 0 84 0;
#X connect 109 0 45 0;
