#N canvas 664 22 892 688 10;
#X declare -path ../essentiaRT~ -path ../utils;
#X obj 257 84 bng 15 250 50 0 empty empty empty 17 7 0 10 -262144 -1
-1;
#X obj -75 309 output~;
#X obj 278 -45 route list;
#X obj 278 -24 route onset_strength;
#X obj 278 62 sel 1;
#X floatatom 293 19 5 0 0 0 - init_threshold -;
#X obj 278 40 > 1;
#N canvas 0 22 378 376 list-of-onsets-in-buffer 0;
#X obj 39 13 inlet;
#X obj 39 57 timer;
#X obj 39 79 list prepend;
#X obj 193 194 list split 1;
#X obj 7 104 t l l;
#X obj 218 139 sum;
#X obj 203 272 list append;
#X msg 214 246 1;
#X obj 164 219 route bang;
#X msg 177 246 0;
#X obj 154 304 route 1 0;
#X obj 39 35 t b b;
#X obj 179 327 outlet;
#X obj 108 35 inlet;
#X obj 108 57 bang;
#X obj 263 139 r buffer_size;
#X obj 218 161 >= 10000;
#X connect 0 0 11 0;
#X connect 1 0 2 0;
#X connect 2 0 4 0;
#X connect 3 0 8 0;
#X connect 3 1 6 1;
#X connect 4 0 3 0;
#X connect 4 1 5 0;
#X connect 5 0 16 0;
#X connect 6 0 10 0;
#X connect 7 0 6 0;
#X connect 8 0 9 0;
#X connect 8 1 7 0;
#X connect 9 0 6 0;
#X connect 10 0 4 0;
#X connect 10 1 2 1;
#X connect 10 1 12 0;
#X connect 11 0 1 0;
#X connect 11 1 1 1;
#X connect 13 0 14 0;
#X connect 14 0 2 1;
#X connect 15 0 16 1;
#X connect 16 0 3 1;
#X restore 278 109 pd list-of-onsets-in-buffer;
#X msg 437 87 reset;
#X obj 297 214 random;
#X obj 330 173 length;
#X obj 278 154 t l b l;
#X obj 336 403 throw~ slices;
#X obj 26 127 catch~ slices;
#X obj 241 -89 essentiaRT~ 5;
#X text -140 -234 ...assuming externals are in parent folder...;
#X obj -139 -250 declare -path ../essentiaRT~ -path ../utils;
#X text -143 -87 AUDIO INPUT;
#X text -143 -79 =====================;
#X text 237 -137 ONSET DETECTION;
#X text 237 -129 =====================;
#X floatatom 287 -2 5 0 0 0 - - -;
#X text 324 -3 onset strength;
#X text 331 19 <<-- will produce an onset when the onset strength is
greater than this value.;
#X obj 306 357 delread~ \$0-deline;
#X obj 237 -250 loadbang;
#X obj 278 -67 spigot 1;
#X obj 333 -87 tgl 15 1 empty empty empty 17 7 0 10 -262144 -1 -1 1
1;
#X text 354 -89 output onsets;
#X floatatom 359 64 5 0 0 0 - init_filterevents -;
#X text 397 63 <<-- outputs only 1 onset every n miliseconds.;
#X floatatom 338 194 5 0 0 0 - - -;
#X text -143 87 =====================;
#X text -143 79 AUDIO OUTPUT;
#X msg -139 -36 station \$1;
#X floatatom -139 -57 5 0 7 0 - - -;
#X obj -100 10 print STATION;
#X obj -139 -12 radioin;
#X text -101 -58 pick a radio station;
#X obj -80 127 hsl 100 15 0 1 0 1 empty init_volume empty -2 -8 0 10
-262144 -1 -1 9900 1;
#X obj -43 240 line~;
#X obj -83 240 line~;
#X obj 11 272 *~;
#X obj -139 272 *~;
#X obj -83 153 - 1;
#X obj -83 174 abs;
#X obj -83 196 sqrt;
#X msg -83 218 \$1 20;
#X obj -43 153 sqrt;
#X text -83 110 crossfade;
#X obj -139 127 r~ input;
#X obj -139 54 s~ input;
#X obj 241 -110 r~ input;
#X text -141 -207 essentiaRT~ example-1;
#X text -143 -199 =====================;
#X obj 28 32 s buffer_size;
#X floatatom 28 12 5 0 0 0 - init_buffer_size -;
#X obj 286 132 print ONSET-TIMES;
#X obj 278 84 filtevent 1000;
#X text -141 -187 This example shows how to store and retrieve onset
positions of audio stored in a buffer. We use essentiaRT~ onset_strength
feature to discard weak onsets \, and then use each onset to jump to
a previously detected onset in the buffer.;
#X obj 336 381 *~;
#X obj 257 104 bng 15 250 50 0 empty empty empty 17 7 0 10 -262144
-1 -1;
#X msg -43 218 \$1 20;
#X text 376 310 quasi-rectangular envelope. It only fades the edges
to avoid clipping when jumping between different positions in the buffer
;
#X obj -131 32 delwrite~ \$0-deline 10000;
#X msg 237 -227 bang \; pd dsp 1 \; init_threshold set 1 \; init_filterevents
set 1000 \; init_volume 0.5 \; init_buffer_size set 10000;
#X obj 278 240 list split;
#X obj 306 262 sum;
#X text 342 213 at every onset \, pick a random onset in buffer (0
= oldest);
#X floatatom 315 285 7 0 0 0 - - -;
#X text 451 108 stores elapsed time between detections!;
#X text 372 193 number of onsets in buffer;
#X text 362 278 add together all the time differences to compute time
delay to selected onset;
#X obj 306 324 quickenv 2;
#X connect 2 0 3 0;
#X connect 3 0 6 0;
#X connect 3 0 21 0;
#X connect 4 0 0 0;
#X connect 4 0 58 0;
#X connect 5 0 6 1;
#X connect 6 0 4 0;
#X connect 7 0 11 0;
#X connect 7 0 57 0;
#X connect 8 0 7 1;
#X connect 9 0 66 1;
#X connect 10 0 31 0;
#X connect 10 0 9 1;
#X connect 11 0 66 0;
#X connect 11 1 9 0;
#X connect 11 2 10 0;
#X connect 13 0 42 1;
#X connect 14 1 26 0;
#X connect 24 0 60 0;
#X connect 25 0 65 0;
#X connect 26 0 2 0;
#X connect 27 0 26 1;
#X connect 29 0 58 1;
#X connect 34 0 37 0;
#X connect 35 0 34 0;
#X connect 37 0 51 0;
#X connect 37 0 64 0;
#X connect 37 2 36 0;
#X connect 39 0 44 0;
#X connect 39 0 48 0;
#X connect 40 0 42 0;
#X connect 41 0 43 1;
#X connect 42 0 1 1;
#X connect 43 0 1 0;
#X connect 44 0 45 0;
#X connect 45 0 46 0;
#X connect 46 0 47 0;
#X connect 47 0 41 0;
#X connect 48 0 62 0;
#X connect 50 0 43 0;
#X connect 52 0 14 0;
#X connect 56 0 55 0;
#X connect 58 0 7 0;
#X connect 58 0 61 0;
#X connect 60 0 12 0;
#X connect 62 0 40 0;
#X connect 66 1 67 0;
#X connect 67 0 69 0;
#X connect 67 0 73 0;
#X connect 73 0 24 0;
#X connect 73 1 60 1;
