#N canvas 206 22 1316 585 10;
#X declare -path ../essentiaRT~ -path ../utils;
#X obj 300 -120 bng 15 250 50 0 empty empty empty 17 7 0 10 -262144
-1 -1;
#X obj -52 42 output~;
#X obj 321 -247 route list;
#X obj 321 -226 route onset_strength;
#X obj 321 -142 sel 1;
#X floatatom 336 -185 5 0 0 0 - init_threshold -;
#X obj 321 -164 > 1;
#N canvas 0 22 378 376 list-of-onsets-in-buffer 0;
#X obj 39 13 inlet;
#X obj 39 57 timer;
#X obj 39 79 list prepend;
#X obj 193 194 list split 1;
#X obj 7 104 t l l;
#X obj 218 139 sum;
#X obj 203 272 list append;
#X msg 214 246 1;
#X obj 164 219 route bang;
#X msg 177 246 0;
#X obj 154 304 route 1 0;
#X obj 39 35 t b b;
#X obj 179 327 outlet;
#X obj 108 35 inlet;
#X obj 108 57 bang;
#X obj 263 139 r buffer_size;
#X obj 218 161 >= 10000;
#X connect 0 0 11 0;
#X connect 1 0 2 0;
#X connect 2 0 4 0;
#X connect 3 0 8 0;
#X connect 3 1 6 1;
#X connect 4 0 3 0;
#X connect 4 1 5 0;
#X connect 5 0 16 0;
#X connect 6 0 10 0;
#X connect 7 0 6 0;
#X connect 8 0 9 0;
#X connect 8 1 7 0;
#X connect 9 0 6 0;
#X connect 10 0 4 0;
#X connect 10 1 2 1;
#X connect 10 1 12 0;
#X connect 11 0 1 0;
#X connect 11 1 1 1;
#X connect 13 0 14 0;
#X connect 14 0 2 1;
#X connect 15 0 16 1;
#X connect 16 0 3 1;
#X restore 321 -98 pd list-of-onsets-in-buffer;
#X msg 480 -120 reset;
#X obj 49 -140 catch~ slices;
#X obj 284 -291 essentiaRT~ 5;
#X text -117 -448 ...assuming externals are in parent folder...;
#X text -120 -354 AUDIO INPUT;
#X text 280 -341 ONSET DETECTION;
#X floatatom 330 -204 5 0 0 0 - - -;
#X text 367 -205 onset strength;
#X obj 280 -464 loadbang;
#X obj 321 -269 spigot 1;
#X obj 376 -289 tgl 15 1 empty empty empty 17 7 0 10 -262144 -1 -1
1 1;
#X text 397 -291 output onsets;
#X floatatom 396 -140 5 0 0 0 - init_filterevents -;
#X text -120 -180 =====================;
#X text -120 -188 AUDIO OUTPUT;
#X msg -116 -303 station \$1;
#X floatatom -116 -324 5 0 7 0 - - -;
#X obj -77 -257 print STATION;
#X obj -116 -279 radioin;
#X obj -57 -140 hsl 100 15 0 1 0 1 empty init_volume empty -2 -8 0
10 -262144 -1 -1 4950 1;
#X obj -20 -27 line~;
#X obj -60 -27 line~;
#X obj 34 5 *~;
#X obj -116 5 *~;
#X obj -60 -114 - 1;
#X obj -60 -93 abs;
#X obj -60 -71 sqrt;
#X msg -60 -49 \$1 20;
#X obj -20 -114 sqrt;
#X text -60 -157 crossfade;
#X obj -116 -140 r~ input;
#X text -120 -406 =====================;
#X obj -25 -282 s buffer_size;
#X floatatom -25 -302 5 0 0 0 - init_buffer_size -;
#X obj 329 -40 print ONSET-TIMES;
#X obj 300 -103 bng 15 250 50 0 empty empty empty 17 7 0 10 -262144
-1 -1;
#X msg -20 -49 \$1 20;
#X obj 321 -18 s onset_times;
#X text 805 -440 ONSET RETRIEVAL;
#X obj 879 -329 r onset_times;
#X obj 819 -283 timer;
#X obj 868 -60 +;
#X obj 922 -209 random;
#X obj 955 -231 length;
#X obj 897 30 throw~ slices;
#X obj 897 8 *~;
#X obj 865 -188 list split;
#X obj 893 -81 sum;
#X obj 885 -280 list;
#X obj 879 -308 t b l;
#X obj 885 -258 t l b l;
#X obj 321 -120 filtevent 500;
#X obj 329 -61 spigot 0;
#X obj 374 -78 tgl 15 0 empty empty empty 17 7 0 10 -262144 -1 -1 0
1;
#X text -78 -325 pick a radio station (0-7);
#X obj 809 -349 delay;
#X obj 809 -326 t b b;
#X obj 902 -103 s newEvent;
#X msg 828 -373 stop;
#X msg 818 -394 bang;
#X obj 809 -414 r newEvent;
#X obj 902 -165 list split 1;
#X obj 868 -38 quickenv 2;
#X text -118 -394 This example plays full sound excerpts between the
different onsets before jumping to a new one.;
#X floatatom 908 -143 7 0 0 0 - - -;
#X text 959 -143 length of current chunk;
#X text 907 -123 (elapsed time from previous onset detection);
#X obj -116 -464 declare -path ../essentiaRT~ -path ../utils;
#X text 805 -432 =====================;
#X msg 280 -441 bang \; pd dsp 1 \; init_threshold set 1 \; init_filterevents
set 500 \; init_volume 0.5 \; init_buffer_size set 30000 \; init_manual_tempo
100;
#X obj -116 -213 s~ input1;
#X text -120 -346 ============================================================
;
#X text -118 -414 essentiaRT~ example-4;
#X obj 284 -312 r~ input1;
#X obj 540 -120 bng 15 250 50 0 empty empty empty 17 7 0 10 -262144
-1 -1;
#X obj 561 -247 route list;
#X obj 561 -226 route onset_strength;
#X obj 561 -142 sel 1;
#X floatatom 576 -185 5 0 0 0 - init_threshold -;
#X obj 561 -164 > 1;
#N canvas 0 22 378 376 list-of-onsets-in-buffer 0;
#X obj 39 13 inlet;
#X obj 39 57 timer;
#X obj 39 79 list prepend;
#X obj 193 194 list split 1;
#X obj 7 104 t l l;
#X obj 218 139 sum;
#X obj 203 272 list append;
#X msg 214 246 1;
#X obj 164 219 route bang;
#X msg 177 246 0;
#X obj 154 304 route 1 0;
#X obj 39 35 t b b;
#X obj 179 327 outlet;
#X obj 108 35 inlet;
#X obj 108 57 bang;
#X obj 263 139 r buffer_size;
#X obj 218 161 >= 10000;
#X connect 0 0 11 0;
#X connect 1 0 2 0;
#X connect 2 0 4 0;
#X connect 3 0 8 0;
#X connect 3 1 6 1;
#X connect 4 0 3 0;
#X connect 4 1 5 0;
#X connect 5 0 16 0;
#X connect 6 0 10 0;
#X connect 7 0 6 0;
#X connect 8 0 9 0;
#X connect 8 1 7 0;
#X connect 9 0 6 0;
#X connect 10 0 4 0;
#X connect 10 1 2 1;
#X connect 10 1 12 0;
#X connect 11 0 1 0;
#X connect 11 1 1 1;
#X connect 13 0 14 0;
#X connect 14 0 2 1;
#X connect 15 0 16 1;
#X connect 16 0 3 1;
#X restore 561 -98 pd list-of-onsets-in-buffer;
#X msg 720 -120 reset;
#X obj 524 -291 essentiaRT~ 5;
#X floatatom 570 -204 5 0 0 0 - - -;
#X text 607 -205 onset strength;
#X obj 561 -269 spigot 1;
#X obj 616 -289 tgl 15 1 empty empty empty 17 7 0 10 -262144 -1 -1
1 1;
#X text 637 -291 output onsets;
#X floatatom 636 -140 5 0 0 0 - init_filterevents -;
#X obj 569 -40 print ONSET-TIMES;
#X obj 540 -103 bng 15 250 50 0 empty empty empty 17 7 0 10 -262144
-1 -1;
#X obj 561 -18 s onset_times;
#X obj 561 -120 filtevent 500;
#X obj 569 -61 spigot 0;
#X obj 614 -78 tgl 15 0 empty empty empty 17 7 0 10 -262144 -1 -1 0
1;
#X obj 524 -312 r~ input2;
#X text 280 -333 ============================================================
;
#X floatatom 450 -261 5 0 0 0 - - -;
#X obj -108 -235 delwrite~ \$0-deline 30000;
#X obj 868 -15 delread~ \$0-deline;
#X connect 2 0 3 0;
#X connect 3 0 6 0;
#X connect 3 0 14 0;
#X connect 4 0 0 0;
#X connect 4 0 59 0;
#X connect 5 0 6 1;
#X connect 6 0 4 0;
#X connect 7 0 45 0;
#X connect 7 0 60 0;
#X connect 8 0 7 1;
#X connect 9 0 30 1;
#X connect 10 1 17 0;
#X connect 10 2 105 0;
#X connect 16 0 77 0;
#X connect 17 0 2 0;
#X connect 18 0 17 1;
#X connect 20 0 59 1;
#X connect 23 0 26 0;
#X connect 24 0 23 0;
#X connect 26 0 78 0;
#X connect 26 0 106 0;
#X connect 26 2 25 0;
#X connect 27 0 32 0;
#X connect 27 0 36 0;
#X connect 28 0 30 0;
#X connect 29 0 31 1;
#X connect 30 0 1 1;
#X connect 31 0 1 0;
#X connect 32 0 33 0;
#X connect 33 0 34 0;
#X connect 34 0 35 0;
#X connect 35 0 29 0;
#X connect 36 0 44 0;
#X connect 38 0 31 0;
#X connect 41 0 40 0;
#X connect 44 0 28 0;
#X connect 47 0 57 0;
#X connect 48 0 49 0;
#X connect 49 0 70 0;
#X connect 50 0 54 1;
#X connect 51 0 50 1;
#X connect 53 0 52 0;
#X connect 54 1 55 0;
#X connect 54 1 69 0;
#X connect 55 0 49 1;
#X connect 56 0 58 0;
#X connect 57 0 48 0;
#X connect 57 1 56 1;
#X connect 58 0 54 0;
#X connect 58 1 50 0;
#X connect 58 2 51 0;
#X connect 59 0 7 0;
#X connect 59 0 43 0;
#X connect 60 0 42 0;
#X connect 61 0 60 1;
#X connect 63 0 64 0;
#X connect 64 0 48 1;
#X connect 64 1 56 0;
#X connect 66 0 63 0;
#X connect 67 0 63 0;
#X connect 68 0 63 0;
#X connect 69 0 65 0;
#X connect 69 0 72 0;
#X connect 70 0 107 0;
#X connect 70 1 53 1;
#X connect 81 0 10 0;
#X connect 83 0 84 0;
#X connect 84 0 87 0;
#X connect 84 0 91 0;
#X connect 85 0 82 0;
#X connect 85 0 100 0;
#X connect 86 0 87 1;
#X connect 87 0 85 0;
#X connect 88 0 99 0;
#X connect 88 0 101 0;
#X connect 89 0 88 1;
#X connect 90 1 93 0;
#X connect 93 0 83 0;
#X connect 94 0 93 1;
#X connect 96 0 100 1;
#X connect 100 0 88 0;
#X connect 100 0 98 0;
#X connect 101 0 97 0;
#X connect 102 0 101 1;
#X connect 103 0 90 0;
#X connect 107 0 53 0;
