#N canvas 554 40 1079 855 10;
#X obj 53 153 output~;
#X obj 311 84 phasor~ 40;
#X obj 167 64 tabplay~ ar;
#N canvas 0 22 450 278 (subpatch) 0;
#X array ar 1.05143e+07 float 2;
#X coords 0 1 1.05143e+07 -1 200 140 1 0 0;
#X restore 682 157 graph;
#X obj 579 88 soundfiler;
#X obj 568 29 openpanel;
#X msg 575 55 read -resize \$1 ar;
#X obj 168 34 bng 15 250 50 0 empty empty empty 17 7 0 10 -262144 -1
-1;
#X msg 202 25 stop;
#X obj 526 9 bng 15 250 50 0 empty empty empty 17 7 0 10 -262144 -1
-1;
#X obj 502 152 t b;
#X obj 361 139 bng 15 250 50 0 empty empty empty 17 7 0 10 -262144
-1 -1;
#X obj 193 329 bng 15 250 50 0 empty empty empty 17 7 0 10 -262144
-1 -1;
#N canvas 879 489 450 300 synth 0;
#X obj 59 16 inlet;
#X obj 263 176 vline~;
#X obj 148 203 *~;
#X obj 143 147 osc~ 440;
#X obj 175 257 outlet~;
#X obj 212 71 / 10;
#X msg 260 124 \$1 10 \, 0 2 20;
#X connect 0 0 5 0;
#X connect 1 0 2 1;
#X connect 2 0 4 0;
#X connect 3 0 2 0;
#X connect 5 0 6 0;
#X connect 6 0 1 0;
#X restore 103 99 pd synth;
#X floatatom 290 21 5 0 0 0 - - -;
#X obj 200 156 agc~ 1 1 250 100 0.2 1;
#X floatatom 215 311 5 0 0 0 - - -;
#X obj 143 304 split 0 1;
#X floatatom 428 173 5 0 0 0 - - -;
#X msg 423 207 settings onset_threshold \$1;
#X msg 603 419 inst.tri 2 4 7;
#N canvas 714 410 450 300 onset 0;
#X obj 32 14 inlet;
#X obj 30 40 route list;
#X obj 3 254 s obs;
#X obj 71 202 list-len;
#X floatatom 85 249 5 0 0 0 - - -;
#N canvas 0 22 450 278 (subpatch) 0;
#X array obs 13 float 3;
#A 0 -123.175 189.842 -159.795 -109.777 13.7906 95.7501 41.5741 -44.6653
-64.0681 -1.74482 50.6188 34.4418 -21.3224;
#X coords 0 1 13 -1 200 140 1 0 0;
#X restore 169 71 graph;
#X obj 106 217 change;
#X msg 15 229 resize \$1;
#X obj -34 203 prepend 0;
#X obj 39 73 route onset_strength;
#X obj 46 109 outlet;
#X obj 3 179 route inst.mfcc;
#X connect 0 0 1 0;
#X connect 1 0 9 0;
#X connect 1 0 11 0;
#X connect 3 0 4 0;
#X connect 3 0 6 0;
#X connect 6 0 7 0;
#X connect 7 0 2 0;
#X connect 8 0 2 0;
#X connect 9 0 10 0;
#X connect 11 0 3 0;
#X connect 11 0 8 0;
#X restore 145 282 pd onset;
#X obj 34 275 print ons;
#N canvas 1082 321 450 300 onsetInfo 1;
#X obj 30 14 inlet;
#X obj 34 54 route list;
#X floatatom 5 198 5 0 0 0 - - -;
#X floatatom 81 191 5 0 0 0 - - -;
#X obj 1 160 route pitched.mean pitched.var;
#X connect 0 0 1 0;
#X connect 1 0 4 0;
#X connect 4 0 2 0;
#X connect 4 1 3 0;
#X restore 272 281 pd onsetInfo;
#X obj 32 257 spigot;
#X obj 61 232 tgl 15 0 empty empty empty 17 7 0 10 -262144 -1 -1 0
1;
#X obj 85 69 spigot;
#X obj 114 44 tgl 15 0 empty empty empty 17 7 0 10 -262144 -1 -1 0
1;
#X obj 88 21 r \$0-onset;
#X obj 162 348 s \$0-onset;
#X obj 92 442 scope~ 130 130 256 3 128 0 5 0 0 0 0 102 255 51 135 135
135 0;
#X obj 427 337 vline~;
#X msg 387 301 stop;
#X obj 360 366 *~;
#X msg 464 265 0 100;
#X floatatom 357 300 5 0 0 0 - - -;
#X msg 129 390 range 0 100;
#X msg 283 511 delayMode \$1;
#X floatatom 282 457 5 0 0 0 - - -;
#X obj 293 388 bang;
#X obj 333 401 bang;
#X obj 311 429 timer;
#X floatatom 311 444 5 0 0 0 - - -;
#X obj 366 326 osc~ 1400;
#X msg 139 415 range 0 \$1;
#X floatatom 82 385 5 0 0 0 - - -;
#X obj 185 245 essentiaRT~ 5;
#X msg 423 274 1 100;
#X connect 2 0 15 0;
#X connect 2 0 15 1;
#X connect 2 1 7 0;
#X connect 4 0 10 0;
#X connect 5 0 6 0;
#X connect 6 0 4 0;
#X connect 7 0 2 0;
#X connect 8 0 2 0;
#X connect 9 0 5 0;
#X connect 10 0 7 0;
#X connect 11 0 46 0;
#X connect 13 0 0 1;
#X connect 13 0 0 0;
#X connect 14 0 2 0;
#X connect 15 0 0 0;
#X connect 15 0 0 1;
#X connect 15 0 46 0;
#X connect 16 0 17 2;
#X connect 17 1 12 0;
#X connect 17 1 29 0;
#X connect 18 0 19 0;
#X connect 19 0 46 0;
#X connect 21 0 17 0;
#X connect 24 0 22 0;
#X connect 25 0 24 1;
#X connect 26 0 13 0;
#X connect 27 0 26 1;
#X connect 28 0 26 0;
#X connect 31 0 33 1;
#X connect 33 0 46 0;
#X connect 34 0 31 0;
#X connect 35 0 43 0;
#X connect 36 0 30 0;
#X connect 37 0 46 0;
#X connect 38 0 37 0;
#X connect 39 0 41 0;
#X connect 40 0 41 1;
#X connect 41 0 42 0;
#X connect 43 0 33 0;
#X connect 44 0 30 0;
#X connect 45 0 44 0;
#X connect 46 0 30 0;
#X connect 46 1 21 0;
#X connect 46 1 24 0;
#X connect 46 1 39 0;
#X connect 46 2 23 0;
#X connect 46 2 40 0;
#X connect 47 0 31 0;
